<svg xmlns="http://www.w3.org/2000/svg" xmlns:xlink="http://www.w3.org/1999/xlink" width="360.012" height="202.443" viewBox="0 0 360.012 202.443"><defs><clipPath id="a"><rect width="13.535" height="60.04"/></clipPath><clipPath id="b"><rect width="4.041" height="10.969"/></clipPath></defs><g transform="translate(-21000.198 -580.621)"><path d="M736.3,702.82h47.4l-17-85.377c-.77-3.849-3.528-6.543-6.735-6.543s-5.966,2.694-6.735,6.543Z" transform="translate(20534.539 77.934)" fill="#f86f16"/><rect width="62.093" height="6.158" transform="translate(21263.465 774.981)" fill="#f86f16"/><path d="M756.724,646.2h19.821l1.924,9.558H754.8Z" transform="translate(20527.904 65.277)" fill="#fff"/><path d="M780.535,686.37H747.5l4.041-20.27h24.952Z" transform="translate(20530.523 58.142)" fill="#fff"/><g transform="translate(21296.498 693.709)"><g transform="translate(0)" clip-path="url(#a)"><path d="M776.3,618.5h1.668L789.9,678.54h-1.86Z" transform="translate(-776.3 -618.5)" fill="#de4719"/></g></g><g transform="translate(21308.879 756.764)"><g transform="translate(0 0)" clip-path="url(#b)"><path d="M797.4,716.8l2.181,10.969h-1.86L795.6,716.8Z" transform="translate(-795.6 -716.8)" fill="#de4719"/></g></g><path d="M386.3,702.82h47.4l-17-85.377c-.77-3.849-3.528-6.543-6.735-6.543s-5.966,2.694-6.735,6.543Z" transform="translate(20660.031 77.934)" fill="#f86f16"/><rect width="62.093" height="6.158" transform="translate(21038.955 774.981)" fill="#f86f16"/><path d="M406.66,646.2h19.885l1.924,9.558H404.8Z" transform="translate(20653.396 65.277)" fill="#fff"/><path d="M430.471,686.37H397.5l4.041-20.27h24.953Z" transform="translate(20656.016 58.142)" fill="#fff"/><g transform="translate(21071.99 693.709)"><g transform="translate(0)" clip-path="url(#a)"><path d="M426.3,618.5h1.668L439.9,678.54h-1.86Z" transform="translate(-426.3 -618.5)" fill="#de4719"/></g></g><g transform="translate(21084.307 756.764)"><g transform="translate(0 0)" clip-path="url(#b)"><path d="M447.36,716.8l2.181,10.969h-1.86L445.5,716.8Z" transform="translate(-445.5 -716.8)" fill="#de4719"/></g></g><rect width="13.92" height="153.115" transform="translate(21120.549 628.024)" fill="#243b89"/><path d="M517.411,510.256a10.456,10.456,0,1,0-10.456,10.456,10.458,10.458,0,0,0,10.456-10.456" transform="translate(20620.518 117.769)" fill="#f86f16"/><rect width="13.92" height="153.115" transform="translate(21226.389 628.024)" fill="#243b89"/><path d="M681.411,510.256a10.456,10.456,0,1,0-10.456,10.456,10.458,10.458,0,0,0,10.456-10.456" transform="translate(20561.717 117.769)" fill="#f86f16"/><rect width="10.776" height="38.231" transform="translate(21174.689 617.569)" fill="#243b89"/><rect width="162.352" height="28.416" transform="translate(21098.865 645.664)" fill="#cbddfb"/><path d="M481.493,572.016H468.6L482.135,543.6h12.893Z" transform="translate(20630.525 102.064)" fill="#80a4e5"/><path d="M534.293,572.016H521.4L534.935,543.6h12.893Z" transform="translate(20611.592 102.064)" fill="#80a4e5"/><path d="M587.093,572.016H574.2L587.734,543.6h12.893Z" transform="translate(20592.662 102.064)" fill="#80a4e5"/><path d="M639.893,572.016H627L640.535,543.6h12.893Z" transform="translate(20573.73 102.064)" fill="#80a4e5"/><path d="M692.693,572.016H679.8L693.335,543.6h12.893Z" transform="translate(20554.801 102.064)" fill="#80a4e5"/><rect width="162.352" height="28.416" transform="translate(21098.865 688.321)" fill="#cbddfb"/><path d="M481.493,638.516H468.6L482.135,610.1h12.893Z" transform="translate(20630.525 78.221)" fill="#80a4e5"/><path d="M534.293,638.516H521.4L534.935,610.1h12.893Z" transform="translate(20611.592 78.221)" fill="#80a4e5"/><path d="M587.093,638.516H574.2L587.734,610.1h12.893Z" transform="translate(20592.662 78.221)" fill="#80a4e5"/><path d="M639.893,638.516H627L640.535,610.1h12.893Z" transform="translate(20573.73 78.221)" fill="#80a4e5"/><path d="M692.693,638.516H679.8L693.335,610.1h12.893Z" transform="translate(20554.801 78.221)" fill="#80a4e5"/><path d="M605.777,467.088a24.888,24.888,0,1,0-24.888,24.888,24.912,24.912,0,0,0,24.888-24.888" transform="translate(20599.186 138.421)" fill="#f86f16"/><path d="M515.614,512.407a6.607,6.607,0,1,0-6.607,6.607,6.6,6.6,0,0,0,6.607-6.607" transform="translate(20618.404 115.617)" fill="#ee8c70"/><path d="M679.614,512.407a6.607,6.607,0,1,0-6.607,6.607,6.6,6.6,0,0,0,6.607-6.607" transform="translate(20559.604 115.617)" fill="#ee8c70"/><rect width="0.513" height="52.343" transform="translate(21127.859 728.797)" fill="#fff"/><rect width="0.513" height="41.823" transform="translate(21122.857 739.316)" fill="#fff"/><rect width="0.513" height="41.823" transform="translate(21236.393 739.316)" fill="#fff"/><rect width="0.513" height="30.02" transform="translate(21126.063 751.119)" fill="#fff"/><rect width="0.513" height="30.02" transform="translate(21229.721 751.119)" fill="#fff"/><path d="M491.573,756.724H133.039c-.394,0-.739-.449-.739-.962s.345-.962.739-.962H491.573c.394,0,.739.449.739.962s-.345.962-.739.962" transform="translate(20867.898 26.339)" fill="#243b89"/><g transform="translate(21171.414 587.998)"><path d="M611.409,146.012h-1.475a7.611,7.611,0,0,1-7.633-7.633V128.5h16.806v9.878a7.707,7.707,0,0,1-7.7,7.633" transform="translate(-602.3 -113.233)" fill="#fff"/><path d="M604.16,133.945h0a1.862,1.862,0,0,1-1.86-1.86V114.06a1.86,1.86,0,0,1,3.72,0v18.025a1.862,1.862,0,0,1-1.86,1.86" transform="translate(-602.3 -107.389)" fill="#fff"/><path d="M620.281,143.412l-.192-.128a2.079,2.079,0,0,1-.513-2.951l8.6-12.444a2.079,2.079,0,0,1,2.951-.513l.192.128a2.079,2.079,0,0,1,.513,2.951l-8.6,12.444a2.209,2.209,0,0,1-2.951.513" transform="translate(-608.35 -112.686)" fill="#fff"/><path d="M610.86,130.045h0a1.862,1.862,0,0,1-1.86-1.86V110.16a1.86,1.86,0,0,1,3.72,0v18.025a1.822,1.822,0,0,1-1.86,1.86" transform="translate(-604.702 -105.991)" fill="#fff"/><path d="M617.66,126.445h0a1.862,1.862,0,0,1-1.86-1.86V106.56a1.86,1.86,0,0,1,3.721,0v18.025a1.9,1.9,0,0,1-1.86,1.86" transform="translate(-607.14 -104.7)" fill="#fff"/><path d="M624.46,129.045h0a1.862,1.862,0,0,1-1.86-1.86V109.16a1.86,1.86,0,0,1,3.72,0v18.025a1.862,1.862,0,0,1-1.86,1.86" transform="translate(-609.578 -105.632)" fill="#fff"/></g></g></svg>