<svg xmlns="http://www.w3.org/2000/svg" xmlns:xlink="http://www.w3.org/1999/xlink" width="364.071" height="254.929" viewBox="0 0 364.071 254.929"><defs><linearGradient id="a" x1="-158.004" y1="244.744" x2="-158.004" y2="247.08" gradientUnits="objectBoundingBox"><stop offset="0" stop-color="#ffd1c1"/><stop offset="0.386" stop-color="#ffcfbf"/><stop offset="0.588" stop-color="#ffc9b7"/><stop offset="0.747" stop-color="#ffbda9"/><stop offset="0.882" stop-color="#ffae97"/><stop offset="1" stop-color="#ff9a7f"/></linearGradient><linearGradient id="b" x1="0.321" y1="0.272" x2="0.648" y2="0.663" gradientUnits="objectBoundingBox"><stop offset="0" stop-color="#ffd1c1"/><stop offset="0.243" stop-color="#ffcebd"/><stop offset="0.492" stop-color="#ffc3b1"/><stop offset="0.744" stop-color="#ffb29c"/><stop offset="0.996" stop-color="#ff9a80"/><stop offset="1" stop-color="#ff9a7f"/></linearGradient><linearGradient id="c" x1="276.453" y1="10.752" x2="278.476" y2="10.752" gradientUnits="objectBoundingBox"><stop offset="0" stop-color="#ffd1c1"/><stop offset="0.043" stop-color="#fcb"/><stop offset="0.27" stop-color="#ffb6a1"/><stop offset="0.503" stop-color="#ffa68e"/><stop offset="0.743" stop-color="#ff9d83"/><stop offset="1" stop-color="#ff9a7f"/></linearGradient><linearGradient id="d" x1="0.783" y1="0.823" x2="0.477" y2="0.488" gradientUnits="objectBoundingBox"><stop offset="0" stop-color="#ffd1c1"/><stop offset="0.592" stop-color="#ffae97"/><stop offset="1" stop-color="#ff9a7f"/></linearGradient><linearGradient id="e" x1="-47.537" y1="15.305" x2="-47.628" y2="14.506" xlink:href="#a"/><linearGradient id="f" x1="-40.963" y1="1" x2="-40.963" y2="0" xlink:href="#a"/><linearGradient id="g" x1="-445.263" y1="0.75" x2="-446.336" y2="0.436" gradientUnits="objectBoundingBox"><stop offset="0" stop-color="#e2b691"/><stop offset="1" stop-color="#ef9367"/></linearGradient><linearGradient id="h" x1="-136.51" y1="0.682" x2="-137.628" y2="0.335" xlink:href="#a"/><linearGradient id="i" x1="-67.271" y1="0.683" x2="-68.294" y2="0.177" xlink:href="#a"/><linearGradient id="j" x1="-277.481" y1="0.641" x2="-278.575" y2="0.312" xlink:href="#a"/><linearGradient id="k" x1="-0.549" y1="1.431" x2="0.755" y2="0.393" gradientUnits="objectBoundingBox"><stop offset="0" stop-color="#ffd1c1"/><stop offset="1" stop-color="#ff9a7f"/></linearGradient><linearGradient id="l" x1="-102.474" y1="-35.905" x2="-102.698" y2="-34.87" xlink:href="#a"/><linearGradient id="m" x1="-237.115" y1="-21.784" x2="-236.37" y2="-21.784" gradientUnits="objectBoundingBox"><stop offset="0" stop-color="#f9fbfc"/><stop offset="0.529" stop-color="#f7fafc"/><stop offset="0.719" stop-color="#f0f5fd"/><stop offset="0.855" stop-color="#e5ecfd"/><stop offset="0.964" stop-color="#d4e0ff"/><stop offset="0.997" stop-color="#cddbff"/></linearGradient><linearGradient id="n" x1="-95.201" y1="-6.699" x2="-95.849" y2="-6.699" gradientUnits="objectBoundingBox"><stop offset="0" stop-color="#faced3"/><stop offset="1" stop-color="#ffb2bc"/></linearGradient><linearGradient id="o" x1="-350.63" y1="0.001" x2="-350.63" y2="1.003" gradientUnits="objectBoundingBox"><stop offset="0" stop-color="#f4f3f1"/><stop offset="1" stop-color="#ffb2bc"/></linearGradient><linearGradient id="p" x1="655.187" y1="37.45" x2="655.187" y2="36.472" gradientUnits="objectBoundingBox"><stop offset="0" stop-color="#071786"/><stop offset="0.204" stop-color="#071681"/><stop offset="0.451" stop-color="#061472"/><stop offset="0.719" stop-color="#04115a"/><stop offset="1" stop-color="#020c38"/></linearGradient><linearGradient id="q" x1="460.07" y1="8.561" x2="457.958" y2="8.274" gradientUnits="objectBoundingBox"><stop offset="0" stop-color="#071786"/><stop offset="0.197" stop-color="#07167e"/><stop offset="0.498" stop-color="#051369"/><stop offset="0.864" stop-color="#030e47"/><stop offset="1" stop-color="#020c38"/></linearGradient><linearGradient id="r" x1="-166.617" y1="14.314" x2="-165.732" y2="14.314" xlink:href="#o"/><linearGradient id="s" x1="-137.548" y1="30.788" x2="-136.392" y2="30.788" xlink:href="#o"/><linearGradient id="t" x1="-637.421" y1="98.506" x2="-636.378" y2="98.506" xlink:href="#o"/><linearGradient id="u" x1="1232.801" y1="1" x2="1232.801" y2="-0.001" gradientUnits="objectBoundingBox"><stop offset="0" stop-color="#e7e6ff"/><stop offset="0.339" stop-color="#c9d2f8"/><stop offset="0.764" stop-color="#aabdf1"/><stop offset="1" stop-color="#9eb5ee"/></linearGradient><linearGradient id="v" x1="487.379" y1="1.001" x2="487.379" gradientUnits="objectBoundingBox"><stop offset="0" stop-color="#f9fbfc"/><stop offset="0.997" stop-color="#cddbff"/></linearGradient><linearGradient id="w" x1="283.685" y1="0.999" x2="283.685" y2="-0.001" gradientUnits="objectBoundingBox"><stop offset="0" stop-color="#f9fbfc"/><stop offset="0.307" stop-color="#f0f5fd"/><stop offset="0.803" stop-color="#d8e3fe"/><stop offset="0.997" stop-color="#cddbff"/></linearGradient><linearGradient id="x" x1="1189.88" y1="1.001" x2="1189.88" y2="0.006" xlink:href="#u"/><linearGradient id="y" x1="-190.213" y1="0.5" x2="-189.216" y2="0.5" xlink:href="#w"/><linearGradient id="z" x1="-8.878" y1="-65.987" x2="-8.109" y2="-65.987" xlink:href="#o"/><linearGradient id="aa" x1="-190.757" y1="0.5" x2="-189.758" y2="0.5" xlink:href="#w"/><linearGradient id="ab" x1="385.142" y1="-37.139" x2="385.753" y2="-37.139" xlink:href="#o"/></defs><g transform="translate(-899.001 -405)"><path d="M84.594,143.9c53.865,4.309,152-68.5,152-3.17A118.3,118.3,0,0,1,0,140.726C0,75.392,30.729,139.586,84.594,143.9Z" transform="translate(954.24 400.906)" fill="#e4eefd"/><g transform="translate(1021.918 532.329)"><path d="M50.094,19.933A1.9,1.9,0,0,0,48.5,18.524l-4.149-.543c-.089-.241-.152-.4-.161-.423l-.07-.169s-.064-.147-.167-.37L46.5,13.7a1.9,1.9,0,0,0,.13-2.121A23.518,23.518,0,0,0,43.2,7.41a23.5,23.5,0,0,0-4.17-3.43,1.893,1.893,0,0,0-2.12.13L33.6,6.66l-.369-.167-.059-.025L33.013,6.4l-.379-.144-.542-4.15A1.9,1.9,0,0,0,30.683.52,23.72,23.72,0,0,0,25.308,0a23.51,23.51,0,0,0-5.376.522,1.9,1.9,0,0,0-1.408,1.591l-.542,4.15c-.238.089-.4.15-.414.157l-.126.052-.052.022s-.146.065-.37.168L13.7,4.112a1.9,1.9,0,0,0-2.12-.129A23.5,23.5,0,0,0,7.411,7.414a23.518,23.518,0,0,0-3.43,4.17A1.9,1.9,0,0,0,4.11,13.7l2.55,3.316c-.1.223-.167.37-.167.37l.009,0a1.956,1.956,0,0,0-.095.208s-.058.15-.145.382l-4.148.542A1.9,1.9,0,0,0,.522,19.934,23.61,23.61,0,0,0,0,25.308a23.488,23.488,0,0,0,.523,5.376,1.9,1.9,0,0,0,1.592,1.407l4.149.543c.089.239.151.4.157.414l.052.127.022.052s.064.147.167.37l-2.55,3.317a1.9,1.9,0,0,0-.129,2.121A23.521,23.521,0,0,0,7.414,43.2a23.417,23.417,0,0,0,4.171,3.431A1.894,1.894,0,0,0,13.7,46.5l3.317-2.55.371.168.052.022.16.064s.148.057.38.144l.543,4.15A1.9,1.9,0,0,0,19.936,50.1a23.5,23.5,0,0,0,5.375.522,23.511,23.511,0,0,0,5.375-.522A1.9,1.9,0,0,0,32.093,48.5l.543-4.15c.239-.089.4-.151.419-.159l.172-.072s.146-.064.37-.168l3.317,2.55a1.893,1.893,0,0,0,2.121.129,23.517,23.517,0,0,0,4.17-3.43,23.567,23.567,0,0,0,3.43-4.169,1.9,1.9,0,0,0-.129-2.121L43.957,33.6c.1-.224.167-.371.167-.371.008-.017.015-.034.022-.051l.065-.16s.057-.149.145-.381l4.149-.543A1.9,1.9,0,0,0,50.1,30.683a23.515,23.515,0,0,0,.522-5.375A23.625,23.625,0,0,0,50.094,19.933ZM46.629,28.51l-3.916.512a1.9,1.9,0,0,0-1.549,1.269c-.224.658-.48,1.322-.48,1.322l-.04.1c-.056.126-.321.715-.6,1.281a1.9,1.9,0,0,0,.2,2l2.407,3.131a24.858,24.858,0,0,1-2.127,2.4,25.085,25.085,0,0,1-2.4,2.128l-3.13-2.406a1.9,1.9,0,0,0-2-.2c-.619.306-1.263.593-1.263.593h0l-.085.036s-.683.263-1.358.493a1.9,1.9,0,0,0-1.269,1.549l-.512,3.916a26.667,26.667,0,0,1-6.4,0l-.512-3.916a1.9,1.9,0,0,0-1.27-1.549c-.657-.224-1.321-.48-1.321-.48l-.1-.041c-.125-.056-.714-.32-1.279-.6a1.9,1.9,0,0,0-2,.2L12.5,42.649a24.947,24.947,0,0,1-2.4-2.128,25.237,25.237,0,0,1-2.127-2.4l2.407-3.132a1.9,1.9,0,0,0,.2-2c-.282-.57-.548-1.163-.6-1.283l-.026-.063c-.005-.011-.264-.685-.491-1.353A1.9,1.9,0,0,0,7.9,29.022L3.986,28.51a25.42,25.42,0,0,1-.192-3.2,25.064,25.064,0,0,1,.194-3.2L7.9,21.594a1.9,1.9,0,0,0,1.55-1.271c.226-.667.486-1.342.491-1.352s.011-.028.015-.042h0s.3-.667.611-1.3a1.9,1.9,0,0,0-.2-2L7.968,12.5A26.387,26.387,0,0,1,12.5,7.967l3.131,2.407a1.9,1.9,0,0,0,2,.2c.571-.282,1.165-.548,1.284-.6l.061-.025c.011,0,.689-.265,1.357-.493A1.9,1.9,0,0,0,21.595,7.9l.511-3.917a26.673,26.673,0,0,1,6.4,0L29.022,7.9a1.9,1.9,0,0,0,1.269,1.548c.661.225,1.328.483,1.328.483h0l.1.038c.133.059.718.323,1.279.6a1.9,1.9,0,0,0,1.994-.2L38.12,7.967a24.952,24.952,0,0,1,2.4,2.126,25.232,25.232,0,0,1,2.128,2.4l-2.407,3.131a1.9,1.9,0,0,0-.2,1.995c.305.618.592,1.264.592,1.264h0l.034.082c0,.011.265.688.493,1.357a1.9,1.9,0,0,0,1.549,1.269l3.916.512a26.593,26.593,0,0,1,0,6.4Z" fill="#f29015"/><path d="M36.486,24.4A12.084,12.084,0,1,0,48.57,36.485,12.1,12.1,0,0,0,36.486,24.4Zm0,20.375a8.291,8.291,0,1,1,8.29-8.291A8.3,8.3,0,0,1,36.486,44.776Z" transform="translate(-11.178 -11.177)" fill="#f29015"/></g><g transform="translate(1075.678 550.651)"><path d="M44.634,17.76a1.692,1.692,0,0,0-1.418-1.255l-3.7-.484c-.08-.214-.136-.359-.143-.377l-.063-.151s-.057-.131-.149-.33l2.272-2.956a1.69,1.69,0,0,0,.115-1.889A20.955,20.955,0,0,0,38.494,6.6a20.935,20.935,0,0,0-3.716-3.056,1.687,1.687,0,0,0-1.889.115L29.934,5.934l-.329-.149-.053-.023-.138-.056-.338-.128-.483-3.7A1.691,1.691,0,0,0,27.339.464,21.135,21.135,0,0,0,22.55,0a20.947,20.947,0,0,0-4.79.465,1.691,1.691,0,0,0-1.254,1.418l-.483,3.7-.369.14-.113.046-.046.019s-.13.058-.33.15L12.209,3.663a1.69,1.69,0,0,0-1.889-.115A20.941,20.941,0,0,0,6.6,6.606a20.955,20.955,0,0,0-3.056,3.716,1.69,1.69,0,0,0,.115,1.89l2.272,2.955c-.091.2-.149.329-.149.329l.008,0a1.743,1.743,0,0,0-.085.185s-.052.133-.129.34l-3.7.483A1.693,1.693,0,0,0,.465,17.761,21.037,21.037,0,0,0,0,22.55a20.928,20.928,0,0,0,.466,4.79,1.692,1.692,0,0,0,1.418,1.254l3.7.484c.08.213.134.355.14.369l.046.113.02.046s.057.131.149.33L3.664,32.891a1.688,1.688,0,0,0-.115,1.889,20.958,20.958,0,0,0,3.057,3.715,20.865,20.865,0,0,0,3.717,3.057,1.688,1.688,0,0,0,1.888-.116l2.956-2.272.33.15.046.02.142.057s.132.051.339.128l.484,3.7a1.693,1.693,0,0,0,1.255,1.418,20.943,20.943,0,0,0,4.789.465,20.948,20.948,0,0,0,4.789-.465A1.691,1.691,0,0,0,28.6,43.218l.484-3.7c.213-.079.357-.135.374-.141l.154-.064s.13-.057.33-.15l2.955,2.272a1.687,1.687,0,0,0,1.89.115A20.954,20.954,0,0,0,38.5,38.495a21,21,0,0,0,3.057-3.715,1.69,1.69,0,0,0-.115-1.889l-2.272-2.956c.091-.2.149-.331.149-.331s.013-.03.019-.045l.058-.142s.051-.133.129-.339l3.7-.484a1.692,1.692,0,0,0,1.418-1.254A20.952,20.952,0,0,0,45.1,22.55,21.05,21.05,0,0,0,44.634,17.76ZM41.547,25.4l-3.489.456a1.688,1.688,0,0,0-1.381,1.131c-.2.587-.428,1.178-.428,1.178l-.036.089c-.05.112-.286.637-.534,1.141a1.693,1.693,0,0,0,.175,1.778L38,33.964A22.147,22.147,0,0,1,36.105,36.1,22.349,22.349,0,0,1,33.964,38l-2.789-2.144a1.693,1.693,0,0,0-1.778-.176c-.551.272-1.126.528-1.126.528h0l-.076.032s-.608.235-1.21.439a1.69,1.69,0,0,0-1.13,1.38L25.4,41.547a23.76,23.76,0,0,1-5.706,0l-.456-3.489a1.689,1.689,0,0,0-1.131-1.38c-.586-.2-1.177-.427-1.177-.427l-.09-.037c-.112-.05-.636-.285-1.14-.534a1.7,1.7,0,0,0-1.779.175L11.134,38a22.228,22.228,0,0,1-2.14-1.9,22.486,22.486,0,0,1-1.9-2.139l2.145-2.79A1.69,1.69,0,0,0,9.419,29.4c-.251-.507-.488-1.036-.535-1.143L8.86,28.2c0-.01-.236-.61-.437-1.205a1.688,1.688,0,0,0-1.381-1.133L3.551,25.4a22.65,22.65,0,0,1-.171-2.852A22.333,22.333,0,0,1,3.553,19.7l3.49-.456a1.69,1.69,0,0,0,1.381-1.133c.2-.594.433-1.2.437-1.2s.01-.025.014-.037h0s.265-.594.545-1.163a1.691,1.691,0,0,0-.175-1.779L7.1,11.134A23.511,23.511,0,0,1,11.135,7.1l2.79,2.144a1.694,1.694,0,0,0,1.778.176c.509-.252,1.038-.489,1.144-.535l.054-.023c.01,0,.614-.236,1.209-.439a1.691,1.691,0,0,0,1.131-1.38l.455-3.49a23.765,23.765,0,0,1,5.706,0l.456,3.49a1.689,1.689,0,0,0,1.131,1.38c.589.2,1.183.43,1.183.43h0l.085.034c.118.053.639.288,1.14.534a1.691,1.691,0,0,0,1.777-.177L33.965,7.1A22.232,22.232,0,0,1,36.1,8.993,22.482,22.482,0,0,1,38,11.134l-2.144,2.79A1.69,1.69,0,0,0,35.68,15.7c.272.551.528,1.126.528,1.126h0l.03.073c0,.01.236.613.439,1.209a1.691,1.691,0,0,0,1.38,1.131l3.489.456a23.694,23.694,0,0,1,0,5.706Z" fill="#f29015"/><path d="M35.169,24.4A10.767,10.767,0,1,0,45.936,35.168,10.779,10.779,0,0,0,35.169,24.4Zm0,18.155a7.387,7.387,0,1,1,7.386-7.387A7.4,7.4,0,0,1,35.169,42.556Z" transform="translate(-12.619 -12.619)" fill="#f29015"/></g><g transform="translate(765.381 63.063)"><path d="M681.5,472.2h.736c22.216,0,40.231,14.507,40.231,32.436s-18.015,32.436-40.231,32.436H681.5Z" transform="translate(-332.131 -94.265)" fill="#fd8316"/><g transform="translate(405.814 381.312)"><g transform="translate(0 26.922)"><path d="M826.72,594.83a14.417,14.417,0,0,1,1.083-1.213c-1.472-1.559-3.031-3.031-4.59-4.417-.39.606-.65,1.083-.779,1.3l-1.213.693c-.909.433-1.862.823-2.772,1.256-.606.26-1.169.52-1.776.823a8.985,8.985,0,0,1-2.165,1,19.167,19.167,0,0,1-2.209.26.492.492,0,0,0-.346.13.553.553,0,0,0-.087.52,2.07,2.07,0,0,0,.346,1.169,2.509,2.509,0,0,0,.52.433,3.921,3.921,0,0,0,.953.476,1.914,1.914,0,0,0,.866-.087,10.53,10.53,0,0,1,1.646.13,5.468,5.468,0,0,0-.606,1.126,4.335,4.335,0,0,0-.563,1.472v.173c.043.043.087.087.13.087.217.087.3.346.476.476s.433.13.606.26c.216.13.3.39.433.563a2.427,2.427,0,0,0,.909.693.991.991,0,0,1,.433.3c.13.173.173.346.346.476.217.173.476.043.736.043.346,0,.39.26.65.39.26.173.52,0,.78-.13a14.291,14.291,0,0,0,2.858-1.905,16.354,16.354,0,0,0,1.516-2.858,31.622,31.622,0,0,1,1.819-3.638Z" transform="translate(-811.84 -568.832)" fill="url(#a)"/><path d="M857.1,545.9a5.118,5.118,0,0,1,.26,2.122,6.751,6.751,0,0,1-1.905,3.421c-3.248,3.811-6.582,7.449-10.047,11.043-1.732,1.776-4.027,4.287-5.8,5.976l-4.807-4.114s9.7-12.169,14.074-19.011c.823-1.256,1.732-2.642,3.161-2.988,2.122-.52,3.291,0,4.374,2.035A6.987,6.987,0,0,1,857.1,545.9Z" transform="translate(-824.857 -542.166)" fill="url(#b)"/><path d="M825.365,606.733c-.433-.606-.736-.3-.736-.3l-1.169,1.862c.087-.26.216-.563.3-.823.39-1.083.433-.78.823-1.862,0,0-1.039-1.126-1.689.13l.606-2.209a2.574,2.574,0,0,0-3.335-1.169s-1.689,3.854-1.819,4.417a.873.873,0,0,0,.087.736c.173.26.563.3.736.563.26.3.173.823.476,1.083.216.173.606.173.823.346s.217.52.39.736c.173.173.476.216.65.39.087.087.13.173.216.217a.667.667,0,0,0,.693.087.845.845,0,0,0,.3-.043C824.325,610.674,825.8,607.339,825.365,606.733Z" transform="translate(-815.509 -576.188)" fill="url(#c)"/></g><path d="M841.237,517.2c-1.559-.39-2.858-1.732-4.114-3.2-3.118-3.551-6.279-7.1-9.4-10.61-1.386-1.559-2.815-3.161-4.157-4.72-2.815-3.248-7.016-7.968-3.291-12.3a4.77,4.77,0,0,1,3.9-1.126,5.643,5.643,0,0,1,2.555,1.256c1.776,1.386,3.335,3.594,4.634,4.98,2.642,2.9,5.2,5.846,7.708,8.834,1.6,1.949,3.161,3.9,4.677,5.933,1.213,1.689,2.945,3.681,3.421,5.8.52,2.252-1.256,4.071-3.031,4.85A4.668,4.668,0,0,1,841.237,517.2Z" transform="translate(-815.791 -482.944)" fill="url(#d)"/><path d="M825.326,505.853c-2.858-4.677-14.681-19.1-9.137-24.641,6.149-6.149,21,13.078,21,13.078Z" transform="translate(-813.478 -479.998)" fill="#fff"/></g><path d="M877.7,664.925c-23.775-2.035-34.774-40.881-45.384-78.6-.779-2.685-1.516-5.37-2.252-8.012-13.035-45.6-56.73-38.239-57.164-38.152l.65,4.85.65,4.807c1.516-.26,37.07-6.106,47.853,31.57.736,2.642,1.516,5.283,2.252,7.968,11.3,40.1,24.121,85.442,55.215,85.442h2.122A68.665,68.665,0,0,1,877.7,664.925Z" transform="translate(-383.95 -132.518)" fill="#2845a6"/><path d="M791.649,633.521c-3.594-8.7-5.24-18.188-6.669-27.456-.693-4.59-.65-21.783-1.039-26.46-.693-8.791,1.342-7.362,12.082-6.582a10.287,10.287,0,0,1,3.9,1.083c14.291,7.189,9.354,28.712,7.362,40.751-.866,5.24-2.209,11.519-3.378,16.673C797.928,638.328,791.649,633.521,791.649,633.521Z" transform="translate(-390.14 -151.089)" fill="#243b89"/><path d="M844.475,797.35a12.678,12.678,0,0,0-1.6-1.819c-.173-.173-1.6-1.819-1.732-2.035-1.559-3.075-4.937-12-4.937-12l-8.7,3.854s4.677,6.929,5.456,11.909h0c-2.858,3.854-8.4,9.83-8.4,9.83s-7.145,4.764-7.492,5.153a7.145,7.145,0,0,0-1.862,2.685s0,2.425,10.35-.476a36.169,36.169,0,0,0,10.826-5.067c1.386-.78,2.772-1.559,4.157-2.382,1.429-.823,5.846-2.988,6.236-3.681a3.016,3.016,0,0,0,.26-.736C847.16,800.858,845.3,798.736,844.475,797.35Z" transform="translate(-407.931 -269.62)" fill="url(#e)"/><path d="M842.872,814a26.5,26.5,0,0,1-6.539,2.945,14.105,14.105,0,0,1-4.894.693c-2.945,3.638-6.886,7.882-6.886,7.882s-7.145,4.764-7.492,5.153a7.146,7.146,0,0,0-1.862,2.685s0,2.425,10.35-.476a36.169,36.169,0,0,0,10.826-5.067c1.386-.779,2.772-1.559,4.157-2.382,1.429-.823,5.846-2.988,6.236-3.681a3.018,3.018,0,0,0,.26-.736c.173-1.732-1.689-3.811-2.555-5.2A10.716,10.716,0,0,0,842.872,814Z" transform="translate(-407.931 -288.046)" fill="#243b89"/><path d="M828.509,727.565c-2.945-10.956-12.775-33.389-22.562-44.345-1.559-1.732-4.5-3.031-6.8-2.3-1.776.563-3.984,2.339-4.417,4.244-.346,1.559,1.083,5.76,1.732,7.1,1.862,3.9,13.252,30.011,19.271,41.617Z" transform="translate(-396.296 -212.481)" fill="#243b89"/><path d="M744.993,589.1h20.44c.043.043.043.087.087.13l.043-.13h14.248a34.206,34.206,0,0,1-.173,12c-2.035,9.094-13.252,12.645-17.106,13.6-2.165,4.417-4.634,8.531-6.539,11.866-2.6,4.634-5.11,13.295-8.012,17.755-7.882,4.331-12.862-1.472-12.862-1.472-.39-9.4,1.126-23,2.988-32.176C738.8,606.942,742.828,595.6,744.993,589.1Z" transform="translate(-362.495 -160.541)" fill="#243b89"/><path d="M717,823.045a9.587,9.587,0,0,0-.693-2.339c-.087-.217-.65-2.339-.65-2.555-.043-3.464.736-12.948.736-12.948l-9.527-.3s1.213,8.271-.26,13.078h0c-4.244,2.252-11.822,5.24-11.822,5.24s-8.531,1.213-8.964,1.386a8.184,8.184,0,0,0-2.858,1.6s-1.039,2.165,9.527,4.071a34.5,34.5,0,0,0,11.952.087c1.6-.087,3.2-.217,4.807-.3,1.646-.13,6.539-.173,7.189-.65a1.271,1.271,0,0,0,.52-.563C717.911,827.376,717.175,824.691,717,823.045Z" transform="translate(-332.945 -282.887)" fill="url(#f)"/><path d="M748.1,805.2c.173.52.346,1.039.476,1.559.217-.52.39-1.039.563-1.559Z" transform="translate(-369.889 -283.057)" fill="#ffd9b6"/><path d="M716.309,839.459c-.043-.13-.26-.866-.433-1.559-.346.173-.736.39-1.083.52-4.114,1.949-8.488,1.646-12.818.65a.331.331,0,0,1-.217-.087c-3.551,1.559-6.972,2.9-6.972,2.9s-8.531,1.213-8.964,1.386a8.185,8.185,0,0,0-2.858,1.6s-1.039,2.165,9.527,4.071a34.5,34.5,0,0,0,11.952.087c1.6-.087,3.2-.216,4.807-.3,1.646-.13,6.539-.173,7.189-.65a1.271,1.271,0,0,0,.52-.563c.909-1.472.13-4.157-.043-5.8A7.27,7.27,0,0,0,716.309,839.459Z" transform="translate(-332.945 -301.596)" fill="#243b89"/><path d="M746.4,752.645c1.862-10,1.646-15.374,1.819-25.55.043-3.638.39-6.193.043-9.787-.346-3.638-.346-10.653-4.2-12.472a8.681,8.681,0,0,0-7.535.26c-2.122,1.213-2.555,3.724-2.555,5.933,0,4.331-.606,27.889-.173,40.967C733.753,752.038,746.4,752.645,746.4,752.645Z" transform="translate(-361.691 -225.738)" fill="#243b89"/><path d="M760.519,440.1l1.386,5.543-3.2.78Z" transform="translate(-375.899 -76.066)" fill="url(#g)"/><path d="M783.39,445.763c-.043,1.776-.39,12.212-.39,12.212,1.083,1.213,6.279,1.646,8.445-.217a5.3,5.3,0,0,0,1.949-2.815l-.65-15.244Z" transform="translate(-389.676 -75.839)" fill="url(#h)"/><path d="M778.471,413.1l.563,5.413.866,8.271.26,2.339c-5.283,8.964-14.031,9.917-16.846,6.929s-4.114-20.137-4.114-20.137Z" transform="translate(-376.182 -60.759)" fill="url(#i)"/><path d="M767.54,429.746s-6.669-14.074-8.748-15.244-9.008.476-12.689-5.023c-3.638-5.457-1.429-8.271,0-8.575,1.429-.26,4.157,5.067,8.921,1.905,4.85-3.248,14.767-3.248,16.326.65,0,0,6.193.65,4.85,9.094-1.342,8.488-3.681,15.59-5.76,16.2Z" transform="translate(-367.633 -53.587)" fill="#343947"/><path d="M783.968,432.094c2.122,1.732,2.035,6.669-2.079,9.4l-1.689-8.141A2.478,2.478,0,0,1,783.968,432.094Z" transform="translate(-388.088 -71.264)" fill="url(#j)"/><path d="M769.4,475.662c-5.933.26-15.287,1.256-17.5,7.925a26.674,26.674,0,0,0-.953,11.086c.3,2.9.563,5.8.65,8.7.217,4.894.476,10.437-1.213,15.157L741.9,538.456s30.964,11,45.384-3.594c0,0-.823-46.38-6.366-55.951-.65-1.169-2.512-1.819-3.681-2.165A20.347,20.347,0,0,0,769.4,475.662Z" transform="translate(-366.374 -96.212)" fill="#e4eefd"/><path d="M711.771,575.6c-1.126,2.555-4.59,9.138-4.59,9.138l-3.378,2.252-2.122,1.429a6.845,6.845,0,0,1-2.079.65,4.934,4.934,0,0,0-1.126.087.7.7,0,0,0-.476.606.661.661,0,0,0,.3.52,2.214,2.214,0,0,0,2.165.563c.3-.087.563-.216.823-.3a1.972,1.972,0,0,1,.866-.217.926.926,0,0,1,.779.39.57.57,0,0,1-.173.823,8.461,8.461,0,0,0-.736,1c-.606.909-1.256,1.819-1.862,2.685-.26.39-.563.736-.433,1.256a1.265,1.265,0,0,0,1.342.866,8.346,8.346,0,0,0,1.646-.823c.173-.087,1.472-.823,1.6-.693.693.52,1.039,1.213,1.906.823a2.243,2.243,0,0,1,1.646-.39c.823.26,1.169,1.083,2.079,1.126.693,0,1.776-.217,2.079-.909l3.941-11.563c.476-1.429,2.468-2.945,3.638-4.547Z" transform="translate(-341.486 -152.887)" fill="url(#k)"/><g transform="translate(369.917 394.709)"><path d="M735.814,545.217c1.256-.866,1.906-2.468,2.512-4.157,1.516-4.157,3.118-8.271,4.677-12.429.693-1.862,1.386-3.681,2.079-5.543,1.386-3.768,3.464-9.311-1.213-11.866a4.575,4.575,0,0,0-3.768.3,5.294,5.294,0,0,0-1.819,1.949,39.977,39.977,0,0,0-2.382,5.89c-1.342,3.421-2.6,6.842-3.768,10.307-.736,2.252-1.472,4.461-2.079,6.756-.52,1.862-1.342,4.2-1.039,6.193.3,2.122,2.425,3.161,4.244,3.2A3.547,3.547,0,0,0,735.814,545.217Z" transform="translate(-728.949 -510.933)" fill="url(#l)"/></g><path d="M750.068,515c1.689-5.24,10-22.432,3.248-26.5-7.449-4.46-16.716,20.44-16.716,20.44Z" transform="translate(-363.37 -103.203)" fill="#fff"/><g transform="translate(216.446 372.761)"><g transform="translate(0 3.177)"><path d="M394.974,506.829c-.65.693-7.665-7.362-8.358-8.141-2.945-3.464-19.921-30.617-7.665-31.093a6.155,6.155,0,0,1,4.59,2.209c5.11,5.457,16.889,26.2,16.889,26.2Z" transform="translate(-374.559 -467.589)" fill="#fff"/><path d="M417.728,540.34s-2.079-10.307,3.854-12.342l-.693-1.3a7.425,7.425,0,0,0-4.547,1.6c-1.083.909-5.023,5.023-4.5,10.263.043.39,4.071,1.905,4.071,1.905Z" transform="translate(-395.668 -501.101)" fill="url(#m)"/></g><path d="M433.854,460.4a.042.042,0,0,1,.043.043,3.358,3.358,0,0,1,1.169,1.169c.13.217.693,1,.606,1.213.13-.346.3-.693.433-1.039.216-.476.39-1.126,1.039-1.039a1.971,1.971,0,0,1,.823.346,1.972,1.972,0,0,0,.823.346,6.46,6.46,0,0,0,.909-.087c.736,0,1.3.606,1.992.866.52.217,1.169.217,1.6.606a1.456,1.456,0,0,1,.433.693c.3.78.736,2.079.3,2.9l-6.323,10.523a28.678,28.678,0,0,0-1.732,5.023c-.563,1.689-1.083,3.378-1.6,5.11-1.256,4.157-5.76,20.137-12.992,14.984-1.559-1.126-1.6-4.287-1.516-6.279.26-4.72,12.689-22.043,12.689-22.043l.736-4.071-.043-4.2a9.383,9.383,0,0,0-.346-3.291,2.054,2.054,0,0,1-.13-1.429.623.623,0,0,1,.433-.433A.537.537,0,0,1,433.854,460.4Z" transform="translate(-400.231 -460.252)" fill="url(#n)"/></g><path d="M365.318,813.558a13.107,13.107,0,0,1,.823-2.512c.087-.216.78-2.512.823-2.772.173-3.724-.346-14.074-.346-14.074h10.35s-1.6,8.921-.173,14.2h0c4.547,2.6,12.645,6.063,12.645,6.063s9.224,1.6,9.7,1.819a8.759,8.759,0,0,1,3.031,1.819s1.039,2.382-10.48,4.071c0,0-4.98,1.039-12.948-.3l-5.2-.52c-1.776-.173-7.1-.39-7.8-.953a2.4,2.4,0,0,1-.563-.606C364.192,818.235,365.058,815.333,365.318,813.558Z" transform="translate(-152.535 -276.821)" fill="#fcc7b7"/><path d="M366.177,831.046c.043-.13.3-.953.52-1.646.39.217.78.433,1.169.606,4.374,2.252,9.138,2.079,13.858,1.169.087,0,.173-.043.26-.043,3.768,1.819,7.449,3.378,7.449,3.378s9.224,1.6,9.7,1.819a8.759,8.759,0,0,1,3.031,1.819s1.039,2.382-10.48,4.071c0,0-4.98,1.039-12.948-.3l-5.2-.52c-1.776-.173-7.1-.39-7.8-.953a2.4,2.4,0,0,1-.563-.606c-.909-1.646,0-4.547.217-6.279A9.961,9.961,0,0,1,366.177,831.046Z" transform="translate(-152.571 -296.777)" fill="#243b89"/><path d="M364.778,591.245c-.217-9.311-2.209-26.243-9.917-26.806-2.858-.217-5.76-1.256-8.445-.173a8.9,8.9,0,0,0-1.776,1c-3.031,2.079-4.807,5.89-5.2,9.614-.476,4.417.563,8.834,1.646,13.122,2.252,9.354,4.46,18.751,7.405,27.889a26.845,26.845,0,0,0,1.516,3.9c-4.2,22.519,2.339,54.089,2.339,54.089l9.614-1s3.161-52.27,3.335-58.723a15.893,15.893,0,0,0-.173-3.075C365.948,604.67,364.952,598.434,364.778,591.245Z" transform="translate(-138.138 -146.186)" fill="#243b89"/><path d="M301.906,818.1a14.886,14.886,0,0,1,1.083-2.425c.13-.216,1.039-2.425,1.083-2.642C304.634,809.35,305.2,799,305.2,799l10.263,1.083s-2.512,8.7-1.689,14.118h0c4.244,3.075,11.952,7.405,11.952,7.405s8.964,2.555,9.441,2.858a8.241,8.241,0,0,1,2.815,2.165s.78,2.512-10.87,2.945c0,0-5.067.52-12.862-1.689-1.689-.346-3.421-.693-5.11-1.039-1.732-.346-7.016-1.169-7.665-1.732a1.436,1.436,0,0,1-.476-.693C300.26,822.6,301.473,819.83,301.906,818.1Z" transform="translate(-116.275 -279.542)" fill="#fcc7b7"/><path d="M302.945,835.4c.087-.13.39-.909.693-1.6.346.26.736.52,1.083.736,4.114,2.728,8.878,3.031,13.685,2.6.087,0,.173-.043.26-.043,3.551,2.209,7.059,4.157,7.059,4.157s8.964,2.555,9.441,2.858a8.24,8.24,0,0,1,2.815,2.165s.779,2.512-10.87,2.945c0,0-5.067.52-12.862-1.689-1.689-.346-3.421-.693-5.11-1.039-1.732-.346-7.016-1.169-7.665-1.732a1.437,1.437,0,0,1-.476-.693c-.736-1.732.476-4.5.909-6.236A13.193,13.193,0,0,1,302.945,835.4Z" transform="translate(-116.275 -299.271)" fill="#243b89"/><path d="M328.7,584.4a18.054,18.054,0,0,0-7.838-13.511,10.5,10.5,0,0,0-11.259-.52,13,13,0,0,0-5.8,8.575c-1.083,5.24-.346,10.826.65,15.98,1.039,5.37,1.819,10.783,2.772,16.2.563,3.161,1.256,6.279,1.819,9.441.13.823.3,1.646.52,2.512-7.275,21.913-3.941,55.734-3.941,55.734l9.657.043s8.618-51.274,9.527-57.943c.173-.693.39-1.429.563-2.079A76.921,76.921,0,0,0,327.921,607,104,104,0,0,0,328.7,584.4Z" transform="translate(-117.693 -149.124)" fill="#243b89"/><path d="M302.62,512.291c1.213-5.846,3.031-11.216,2.685-17.279-.346-6.106-.606-12.255-1.083-18.362-.217-2.6-.693-5.283-.78-7.882-.087-3.464,1.862-6.236,4.287-8.531a41.287,41.287,0,0,1,7.016-4.98c.087-.043.217-.13.3-.173a20.607,20.607,0,0,1,2.9-1.516,17.326,17.326,0,0,1,13.988,1c2.555,1.472,5.067,2.945,7.622,4.417a8.791,8.791,0,0,1,4.157,8.055c-.346,7.275-.693,14.507-1.213,21.739-.26,3.768-1,7.449-.65,11.259.476,4.98,2.209,10.437.866,15.417-.65,2.425-2.468,3.118-4.59,3.508-5.5,1.083-10.956,2.555-16.543,3.075a38.493,38.493,0,0,1-16.066-2.338C302.316,518.57,301.927,515.668,302.62,512.291Z" transform="translate(-117.163 -83.125)" fill="#e4eefd"/><path d="M361.519,472.332,355.5,465.88l6.453-.78Z" transform="translate(-147.307 -90.24)" fill="url(#o)"/><g transform="translate(210.444 379.494)"><path d="M367.2,475.8l-1.776,8.531-4.72-7.708,2.858-.433.909,1.819v-1.862Z" transform="translate(-360.7 -475.8)" fill="url(#p)"/><path d="M370.216,489.9l-1.516.173,1.429,35.381,4.634,3.724,3.2-4.98Z" transform="translate(-365.236 -483.794)" fill="url(#q)"/></g><path d="M340.3,437.759l1.039,7.708s3.031,9.094,12.255,2.772L351.646,436.2Z" transform="translate(-138.69 -73.855)" fill="url(#r)"/><path d="M338.5,407.682l2.079,13.814.087,1.905c5.413,6.582,12.645,6.236,14.551,3.464S356.6,405.3,356.6,405.3Z" transform="translate(-137.669 -56.336)" fill="url(#s)"/><path d="M374.433,429.7,374,435.676l3.421.26Z" transform="translate(-157.796 -70.17)" fill="#ffb5be"/><path d="M336.385,398.786A10.493,10.493,0,0,1,335,404.2c-1.646,3.248.13,8.748.13,8.748l-4.59-5.716,1.516,10a65.487,65.487,0,0,1-7.232-15.85c-.866-3.2-.736-7.535,2.988-8.748a26.172,26.172,0,0,1,2.728-.65s.346-.39.476-.52a7.739,7.739,0,0,1,2.3-1.386c3.768-1.516,8.228-1.039,12.082-.39,12.645,2.209,3.378,10.437,3.378,10.437l-.346-2.772S341.885,402.77,336.385,398.786Z" transform="translate(-129.665 -47.137)" fill="#343947"/><path d="M334.932,426.718c-1.256,1.689-.217,5.327,3.378,6.539l-.346-6.323A1.879,1.879,0,0,0,334.932,426.718Z" transform="translate(-135.357 -68.097)" fill="url(#t)"/><g transform="translate(200.008 368.971)"><g transform="translate(14.18 3.768)"><path d="M369.368,469.9l2.9-2.252-2.6-6.149S369.238,469.771,369.368,469.9Z" transform="translate(-369.344 -460.937)" fill="url(#u)"/><path d="M370.1,460.763l2.6,6.149,4.807.909L370.1,460.2Z" transform="translate(-369.773 -460.2)" fill="url(#v)"/></g><path d="M336.6,453.449l7.752,12.039,4.98-4.244-10.22-9.744Z" transform="translate(-336.6 -451.5)" fill="url(#w)"/><path d="M363.959,474l1.472,2.988-3.031-1.732Z" transform="translate(-351.227 -464.256)" fill="url(#x)"/></g><path d="M292.69,540.161c-.433-.087-44.128-7.449-57.163,38.152-.736,2.642-1.516,5.327-2.252,8.012-9.83,34.774-19.921,70.545-40.1,77.474a37.177,37.177,0,0,1-9.874,10.783v.087c.953.087,1.862.13,2.772.13,31.137,0,43.912-45.3,55.215-85.442.736-2.685,1.516-5.37,2.252-7.968,10.74-37.676,46.337-31.83,47.853-31.57l.65-4.807Z" transform="translate(-49.68 -132.518)" fill="#2845a6"/><path d="M445.342,472.2h-.606a32.436,32.436,0,0,0,0,64.872h.606Z" transform="translate(-179.51 -94.265)" fill="#fd8316"/><rect width="12.385" height="64.829" transform="translate(265.832 377.935)" fill="#fb7b16"/><g transform="translate(267.565 391.533)"><path d="M492.6,574.36a4.454,4.454,0,0,0,4.46,4.461H519.45V569.9H497.06A4.454,4.454,0,0,0,492.6,574.36Z" transform="translate(-492.6 -541.188)" fill="#cadbfb"/><path d="M497.06,503.6a4.46,4.46,0,1,0,0,8.921H519.45V503.6Z" transform="translate(-492.6 -503.6)" fill="#cadbfb"/></g><g transform="translate(289.954 391.533)"><path d="M553.221,508.061a4.46,4.46,0,1,1-4.46-4.46A4.454,4.454,0,0,1,553.221,508.061Z" transform="translate(-544.3 -503.6)" fill="#bfd1f7"/><path d="M553.221,574.36a4.46,4.46,0,1,1-4.46-4.46A4.454,4.454,0,0,1,553.221,574.36Z" transform="translate(-544.3 -541.188)" fill="#bfd1f7"/></g><g transform="translate(186.857 378.782)"><path d="M332.809,515.186c-.736.779-11.433-9.614-12.256-10.437-3.681-3.551-23.645-29.4-9.051-30.574a7.609,7.609,0,0,1,5.586,2.122c6.409,5.543,21.653,27.023,21.653,27.023Z" transform="translate(-306.234 -474.156)" fill="#fff"/><path d="M364.176,551.335l4.72-2.425.909-.866.346-1-.606-4.417-.563-4.331-6.453.65-4.331,4.5v5.63l3.854,2.642Z" transform="translate(-335.696 -510.522)" fill="url(#y)"/><path d="M415.821,531.72c.217-.866-.476-1.429-.476-2.3,0-.65.476-1.039.866-1.472.606-.693.043-1.213-.26-2.035-.087-.173,1.039-1.213,1.126-1.342a12.159,12.159,0,0,0,1.256-1.343,1.223,1.223,0,0,0-.433-1.516c-.433-.3-.866-.087-1.343.043-1.039.346-2.079.693-3.118,1a5.4,5.4,0,0,0-1.169.433.567.567,0,0,1-.823-.087.927.927,0,0,1-.13-.823,2.759,2.759,0,0,1,.433-.78c.173-.216.39-.433.563-.693a2.347,2.347,0,0,0,.087-2.208.844.844,0,0,0-.433-.433.663.663,0,0,0-.736.3,4.283,4.283,0,0,0-.39,1.039,6.674,6.674,0,0,1-1.213,1.819l-1.992,1.646-3.118,2.6-3.551,1.819s-31.223-.606-34.9,2.035c-1.559,1.126-3.9,3.118-3.681,5.2,1,9.051,23.558,2.642,25.2,2.122,1.472-.476,12.862-2.642,14.464-2.685l12.212-.476A2.435,2.435,0,0,0,415.821,531.72Z" transform="translate(-338.058 -499.092)" fill="url(#z)"/></g><path d="M360.584,550.588s1.169-10.87,6.929-13.425l-.779-.866s-5.023-.087-6.193.909c-1.083.909-5.76,6.453-4.807,11.606.087.39,4.2,1.559,4.2,1.559Z" transform="translate(-147.368 -130.603)" fill="url(#aa)"/><path d="M463.845,469.358s1.429-.13.78-1.3l1.386,1.646s1.819,1.429,2.685-1.776c-.476-.693-.953-1.386-1.472-2.079-.346-.476-.693-.953-1-1.429-.216-.3-.26-.433-.606-.606-.476-.217-.909-.433-1.386-.606a3.213,3.213,0,0,0-.909-.3,4.685,4.685,0,0,0-.779,0,5.872,5.872,0,0,1-1.689-.52c-.39-.13-1.213-.346-1.429.13-.3.563.736,1.559,1.039,2.035.52.736,1,1.429,1.516,2.165C462.633,467.583,463.239,468.492,463.845,469.358Z" transform="translate(-206.198 -88.608)" fill="url(#ab)"/></g><g transform="translate(1047.227 586.2)"><path d="M35.631,14.178a1.351,1.351,0,0,0-1.132-1l-2.951-.386c-.064-.171-.108-.287-.114-.3l-.05-.12s-.046-.1-.119-.263l1.814-2.359a1.349,1.349,0,0,0,.092-1.508,16.728,16.728,0,0,0-2.44-2.967,16.712,16.712,0,0,0-2.966-2.44,1.346,1.346,0,0,0-1.508.092L23.9,4.737l-.262-.119L23.591,4.6l-.11-.044-.27-.1L22.826,1.5a1.35,1.35,0,0,0-1-1.132A16.872,16.872,0,0,0,18,0a16.722,16.722,0,0,0-3.824.372,1.35,1.35,0,0,0-1,1.132L12.79,4.455l-.294.111-.09.037-.037.015-.263.119L9.746,2.925a1.349,1.349,0,0,0-1.508-.092,16.717,16.717,0,0,0-2.967,2.44,16.728,16.728,0,0,0-2.44,2.966,1.349,1.349,0,0,0,.092,1.509l1.814,2.359c-.072.159-.119.263-.119.263l.006,0a1.391,1.391,0,0,0-.067.148s-.041.106-.1.271l-2.95.385a1.352,1.352,0,0,0-1.132,1A16.793,16.793,0,0,0,0,18a16.707,16.707,0,0,0,.372,3.824,1.351,1.351,0,0,0,1.132,1l2.951.386c.064.17.107.284.112.294l.037.09.016.037s.046.1.119.263L2.925,26.256a1.348,1.348,0,0,0-.092,1.508,16.73,16.73,0,0,0,2.44,2.965A16.656,16.656,0,0,0,8.24,33.171a1.347,1.347,0,0,0,1.508-.093l2.359-1.814.264.119.037.016.114.046.271.1.386,2.952a1.352,1.352,0,0,0,1,1.132A16.718,16.718,0,0,0,18,36a16.723,16.723,0,0,0,3.823-.371,1.35,1.35,0,0,0,1-1.132l.386-2.952c.17-.063.285-.108.3-.113l.123-.051s.1-.046.263-.119l2.359,1.814a1.346,1.346,0,0,0,1.509.092,16.727,16.727,0,0,0,2.966-2.44,16.763,16.763,0,0,0,2.44-2.965,1.349,1.349,0,0,0-.092-1.508L31.266,23.9c.072-.16.119-.264.119-.264s.01-.024.015-.036l.046-.114s.041-.106.1-.271l2.951-.386a1.351,1.351,0,0,0,1.132-1A16.725,16.725,0,0,0,36,18,16.8,16.8,0,0,0,35.631,14.178Zm-2.465,6.1-2.785.364a1.348,1.348,0,0,0-1.1.9c-.159.468-.342.94-.342.94l-.029.071c-.04.089-.228.509-.426.911a1.352,1.352,0,0,0,.14,1.419l1.712,2.227a17.68,17.68,0,0,1-1.513,1.708,17.841,17.841,0,0,1-1.709,1.513l-2.226-1.711a1.352,1.352,0,0,0-1.42-.141c-.44.217-.9.422-.9.422h0l-.061.025s-.486.187-.966.351a1.349,1.349,0,0,0-.9,1.1l-.364,2.785a18.968,18.968,0,0,1-4.555,0l-.364-2.785a1.348,1.348,0,0,0-.9-1.1c-.468-.16-.94-.341-.94-.341l-.072-.029c-.089-.04-.508-.227-.91-.426a1.354,1.354,0,0,0-1.42.14L8.888,30.336A17.744,17.744,0,0,1,7.18,28.822a17.95,17.95,0,0,1-1.513-1.708l1.712-2.228a1.349,1.349,0,0,0,.14-1.42c-.2-.405-.39-.827-.427-.912l-.019-.045c0-.008-.188-.487-.349-.962a1.348,1.348,0,0,0-1.1-.9l-2.786-.364A18.081,18.081,0,0,1,2.7,18a17.828,17.828,0,0,1,.138-2.278l2.786-.364a1.349,1.349,0,0,0,1.1-.9c.161-.474.346-.954.349-.962s.008-.02.011-.03h0s.211-.474.435-.928a1.35,1.35,0,0,0-.14-1.42L5.667,8.888A18.768,18.768,0,0,1,8.889,5.667l2.227,1.712a1.352,1.352,0,0,0,1.419.14c.406-.2.829-.39.914-.427l.043-.018c.008,0,.49-.188.965-.351a1.35,1.35,0,0,0,.9-1.1l.363-2.786a18.972,18.972,0,0,1,4.555,0l.364,2.786a1.348,1.348,0,0,0,.9,1.1c.47.16.944.343.944.343h0l.068.027c.094.042.51.23.91.426a1.35,1.35,0,0,0,1.418-.141l2.227-1.711a17.747,17.747,0,0,1,1.708,1.512,17.947,17.947,0,0,1,1.513,1.709l-1.712,2.227a1.349,1.349,0,0,0-.14,1.419c.217.44.421.9.421.9h0l.024.059c0,.008.188.49.351.965a1.35,1.35,0,0,0,1.1.9l2.785.364a18.914,18.914,0,0,1,0,4.555Z" fill="#f29015"/><path d="M33,24.4A8.6,8.6,0,1,0,41.592,33,8.605,8.605,0,0,0,33,24.4Zm0,14.493a5.9,5.9,0,1,1,5.9-5.9A5.9,5.9,0,0,1,33,38.894Z" transform="translate(-14.996 -14.995)" fill="#f29015"/></g></g></svg>