<svg xmlns="http://www.w3.org/2000/svg" width="307.102" height="300.088" viewBox="0 0 307.102 300.088"><g transform="translate(-941.626 -392.6)"><g transform="translate(-37)"><path d="M108.41,153c69.03,5.522,194.793-87.789,194.793-4.062a151.6,151.6,0,0,1-303.2,0C0,65.212,39.38,147.478,108.41,153Z" transform="translate(982.525 392.147)" fill="#e4eefd"/><g transform="translate(642.326 228.6)"><path d="M567.7,345.8c0,.1-1,.2-2.8.7a23.039,23.039,0,0,0-7,3.4,21.627,21.627,0,0,0-3.9,3.6,15.318,15.318,0,0,0-1.6,2.5,21.077,21.077,0,0,0-1,3c-1.1,4.2-.7,9.1-.5,14.1s-.1,10.1-2.1,14.1a14.749,14.749,0,0,1-3.8,5,16.713,16.713,0,0,1-4.6,2.9,16.016,16.016,0,0,1-4.3,1.3,13.332,13.332,0,0,1-3.4.1,20.584,20.584,0,0,1-2.1-.3,3.126,3.126,0,0,1-.7-.2c0-.1,1,.2,2.9.3a20.618,20.618,0,0,0,3.3-.2,15.916,15.916,0,0,0,4.2-1.4,19,19,0,0,0,4.5-2.9,15.212,15.212,0,0,0,3.6-4.9c1.9-3.9,2.2-8.8,2-13.9-.2-5-.5-10,.6-14.3a16.292,16.292,0,0,1,1.1-3.1,16.809,16.809,0,0,1,5.8-6.3,24.106,24.106,0,0,1,7.2-3.3,12.262,12.262,0,0,1,2.1-.4A.781.781,0,0,0,567.7,345.8Z" fill="#2f408f"/><rect width="7.6" height="9.2" transform="translate(525.1 392)" fill="#2f408f"/><rect width="42.5" height="46.6" transform="translate(567.7 322.5)" fill="#b4cff8"/><circle cx="14" cy="14" r="14" transform="translate(575 332)" fill="#2f408f"/><circle cx="7" cy="7" r="7" transform="translate(582 339)" fill="#b4cff8"/><circle cx="1.3" cy="1.3" r="1.3" transform="translate(572.2 328.4)" fill="#2f408f"/><path d="M605,329.7a1.3,1.3,0,1,1-1.3-1.3A1.324,1.324,0,0,1,605,329.7Z" fill="#2f408f"/><path d="M605.3,364.1a1.3,1.3,0,1,1-1.3-1.3A1.324,1.324,0,0,1,605.3,364.1Z" fill="#2f408f"/><path d="M574.8,364.7a1.3,1.3,0,1,1-1.3-1.3A1.26,1.26,0,0,1,574.8,364.7Z" fill="#2f408f"/><rect width="3.4" height="46.6" transform="translate(610.2 322.5)" fill="#2f408f"/></g><g transform="translate(722.326 228.6)"><path d="M399.9,164H274.1a3.9,3.9,0,0,0-3.9,3.9v88.9a3.9,3.9,0,0,0,3.9,3.9h48.3s3.1,9.5-6.4,14.4h45.1s-10.7-3.7-8-14.4h46.8a3.9,3.9,0,0,0,3.9-3.9V167.9A3.9,3.9,0,0,0,399.9,164Z" fill="#263238"/><path d="M338.7,251.4a2.416,2.416,0,0,1-3.4,3.4c-.1-.1-.2-.1-.2-.2a2.416,2.416,0,0,1,3.4-3.4Z" fill="#455a64"/><path d="M401.7,244.5H272.3v-76a2.8,2.8,0,0,1,2.8-2.8H398.7a2.8,2.8,0,0,1,2.8,2.8v76Z" fill="#fff"/><path d="M377.4,260.7s-17.9.1-40,.1-40,0-40-.1,17.9-.1,40-.1C359.5,260.7,377.4,260.7,377.4,260.7Z" fill="#455a64"/></g><g transform="translate(662.844 219.907)"><g transform="translate(371.3 189.6)"><path d="M378.469,239.488a7.17,7.17,0,0,1-6.273-10.754l20.911-35.549a7.281,7.281,0,0,1,6.273-3.585h0a7.677,7.677,0,0,1,6.273,3.585l20.313,35.847a7.617,7.617,0,0,1,0,7.169,7.281,7.281,0,0,1-6.273,3.585l-41.224-.3Zm20.911-47.8h0a5.267,5.267,0,0,0-4.481,2.39l-20.911,35.549a5.132,5.132,0,0,0,0,5.078,4.767,4.767,0,0,0,4.182,2.39h0l41.224.3a5.267,5.267,0,0,0,4.481-2.39,5.133,5.133,0,0,0,0-5.078l-20.313-35.847A4.768,4.768,0,0,0,399.38,191.691Z" transform="translate(-371.3 -189.6)" fill="#fd8316"/></g><g transform="translate(396.393 206.627)"><path d="M379.7,216.808a2.689,2.689,0,1,1,2.689,2.689A2.507,2.507,0,0,1,379.7,216.808Zm0-21.508h5.078l-.9,15.833H380.6Z" transform="translate(-379.7 -195.3)" fill="#fd8316"/></g></g><g transform="translate(728.326 222.6)"><rect width="138.6" height="98.1" transform="translate(270.8 285.6)" fill="#2f408f"/><rect width="151.5" height="37.6" transform="translate(250.6 275.4)" fill="#b4cff8"/><path d="M298.6,285.6a1.7,1.7,0,1,1-1.7-1.7A1.686,1.686,0,0,1,298.6,285.6Z" fill="#263238"/><path d="M306.1,285.6a1.7,1.7,0,1,1-1.7-1.7A1.628,1.628,0,0,1,306.1,285.6Z" fill="#263238"/><path d="M313.7,285.6a1.7,1.7,0,1,1-1.7-1.7A1.686,1.686,0,0,1,313.7,285.6Z" fill="#263238"/><path d="M321.2,285.6a1.7,1.7,0,1,1-1.7-1.7A1.628,1.628,0,0,1,321.2,285.6Z" fill="#263238"/><path d="M379.7,285.6a1.7,1.7,0,1,1-1.7-1.7A1.628,1.628,0,0,1,379.7,285.6Z" fill="#263238"/><path d="M387.4,285.6a1.7,1.7,0,1,1-1.7-1.7A1.628,1.628,0,0,1,387.4,285.6Z" fill="#263238"/><path d="M328.8,285.6a1.7,1.7,0,1,1-1.7-1.7A1.685,1.685,0,0,1,328.8,285.6Z" fill="#263238"/><path d="M365.9,285.6a1.7,1.7,0,1,1-1.7-1.7A1.685,1.685,0,0,1,365.9,285.6Z" fill="#263238"/><path d="M336.3,285.6a1.7,1.7,0,1,1-1.7-1.7A1.628,1.628,0,0,1,336.3,285.6Z" fill="#f5f5f5"/><path d="M343.9,285.6a1.7,1.7,0,1,1-1.7-1.7A1.685,1.685,0,0,1,343.9,285.6Z" fill="#f5f5f5"/><path d="M359.2,285.6a1.7,1.7,0,1,1-1.7-1.7A1.686,1.686,0,0,1,359.2,285.6Z" fill="#f5f5f5"/><path d="M393.7,285.6a1.7,1.7,0,1,1-1.7-1.7A1.686,1.686,0,0,1,393.7,285.6Z" fill="#f5f5f5"/><path d="M351.4,285.6a1.7,1.7,0,1,1-1.7-1.7A1.628,1.628,0,0,1,351.4,285.6Z" fill="#e8505b"/><path d="M373,285.6a1.7,1.7,0,1,1-1.7-1.7A1.628,1.628,0,0,1,373,285.6Z" fill="#e8505b"/><path d="M390.3,293.8a1.7,1.7,0,1,1,1.7,1.7A1.628,1.628,0,0,1,390.3,293.8Z" fill="#263238"/><circle cx="1.7" cy="1.7" r="1.7" transform="translate(382.7 292.1)" fill="#263238"/><path d="M375.2,293.8a1.7,1.7,0,1,1,1.7,1.7A1.628,1.628,0,0,1,375.2,293.8Z" fill="#263238"/><path d="M367.6,293.8a1.7,1.7,0,1,1,1.7,1.7A1.685,1.685,0,0,1,367.6,293.8Z" fill="#263238"/><path d="M309.1,293.8a1.7,1.7,0,1,1,1.7,1.7A1.685,1.685,0,0,1,309.1,293.8Z" fill="#263238"/><path d="M301.4,293.8a1.7,1.7,0,1,1,1.7,1.7A1.686,1.686,0,0,1,301.4,293.8Z" fill="#263238"/><circle cx="1.7" cy="1.7" r="1.7" transform="translate(360.1 292.1)" fill="#263238"/><circle cx="1.7" cy="1.7" r="1.7" transform="translate(323 292.1)" fill="#263238"/><path d="M352.5,293.8a1.7,1.7,0,1,1,1.7,1.7A1.685,1.685,0,0,1,352.5,293.8Z" fill="#f5f5f5"/><path d="M345,293.8a1.7,1.7,0,1,1,1.7,1.7A1.628,1.628,0,0,1,345,293.8Z" fill="#f5f5f5"/><path d="M329.7,293.8a1.7,1.7,0,1,1,1.7,1.7A1.628,1.628,0,0,1,329.7,293.8Z" fill="#f5f5f5"/><path d="M295.2,293.8a1.7,1.7,0,1,1,1.7,1.7A1.628,1.628,0,0,1,295.2,293.8Z" fill="#f5f5f5"/><path d="M337.4,293.8a1.7,1.7,0,1,1,1.7,1.7A1.686,1.686,0,0,1,337.4,293.8Z" fill="#e8505b"/><path d="M315.8,293.8a1.7,1.7,0,1,1,1.7,1.7A1.686,1.686,0,0,1,315.8,293.8Z" fill="#e8505b"/><path d="M298.6,301.2a1.7,1.7,0,1,1-1.7-1.7A1.686,1.686,0,0,1,298.6,301.2Z" fill="#263238"/><path d="M306.1,301.2a1.7,1.7,0,1,1-1.7-1.7A1.628,1.628,0,0,1,306.1,301.2Z" fill="#263238"/><path d="M313.7,301.2a1.7,1.7,0,1,1-1.7-1.7A1.686,1.686,0,0,1,313.7,301.2Z" fill="#263238"/><path d="M321.2,301.2a1.7,1.7,0,1,1-1.7-1.7A1.628,1.628,0,0,1,321.2,301.2Z" fill="#263238"/><path d="M379.7,301.2a1.7,1.7,0,1,1-1.7-1.7A1.628,1.628,0,0,1,379.7,301.2Z" fill="#263238"/><path d="M387.4,301.2a1.7,1.7,0,1,1-1.7-1.7A1.628,1.628,0,0,1,387.4,301.2Z" fill="#263238"/><path d="M328.8,301.2a1.7,1.7,0,1,1-1.7-1.7A1.685,1.685,0,0,1,328.8,301.2Z" fill="#263238"/><path d="M365.9,301.2a1.7,1.7,0,1,1-1.7-1.7A1.685,1.685,0,0,1,365.9,301.2Z" fill="#263238"/><path d="M336.3,301.2a1.7,1.7,0,1,1-1.7-1.7A1.628,1.628,0,0,1,336.3,301.2Z" fill="#f5f5f5"/><path d="M343.9,301.2a1.7,1.7,0,1,1-1.7-1.7A1.685,1.685,0,0,1,343.9,301.2Z" fill="#f5f5f5"/><path d="M359.2,301.2a1.7,1.7,0,1,1-1.7-1.7A1.686,1.686,0,0,1,359.2,301.2Z" fill="#f5f5f5"/><path d="M393.7,301.2a1.7,1.7,0,1,1-1.7-1.7A1.686,1.686,0,0,1,393.7,301.2Z" fill="#f5f5f5"/><path d="M351.4,301.2a1.7,1.7,0,1,1-1.7-1.7A1.628,1.628,0,0,1,351.4,301.2Z" fill="#e8505b"/><path d="M373,301.2a1.7,1.7,0,1,1-1.7-1.7A1.628,1.628,0,0,1,373,301.2Z" fill="#e8505b"/><rect width="29.8" height="4.6" transform="translate(257.3 283.2)" fill="#2f408f"/><rect width="29.8" height="4.6" transform="translate(257.3 291.1)" fill="#2f408f"/><rect width="29.8" height="4.6" transform="translate(257.3 299.2)" fill="#2f408f"/><rect width="151.5" height="37.6" transform="translate(250.6 321.8)" fill="#b4cff8"/><rect width="29.8" height="4.6" transform="translate(257.3 329.6)" fill="#2f408f"/><rect width="29.8" height="4.6" transform="translate(257.3 337.5)" fill="#2f408f"/><rect width="29.8" height="4.6" transform="translate(257.3 345.6)" fill="#2f408f"/><path d="M298,332a1.7,1.7,0,1,1-1.7-1.7A1.576,1.576,0,0,1,298,332Z" fill="#263238"/><path d="M305.6,332a1.7,1.7,0,1,1-1.7-1.7A1.626,1.626,0,0,1,305.6,332Z" fill="#263238"/><path d="M313.1,332a1.7,1.7,0,1,1-1.7-1.7A1.576,1.576,0,0,1,313.1,332Z" fill="#263238"/><path d="M320.7,332a1.7,1.7,0,1,1-1.7-1.7A1.626,1.626,0,0,1,320.7,332Z" fill="#263238"/><path d="M379.2,332a1.7,1.7,0,1,1-1.7-1.7A1.626,1.626,0,0,1,379.2,332Z" fill="#263238"/><path d="M386.9,332a1.7,1.7,0,1,1-1.7-1.7A1.626,1.626,0,0,1,386.9,332Z" fill="#263238"/><path d="M328.2,332a1.7,1.7,0,1,1-1.7-1.7A1.576,1.576,0,0,1,328.2,332Z" fill="#263238"/><path d="M365.3,332a1.7,1.7,0,1,1-1.7-1.7A1.626,1.626,0,0,1,365.3,332Z" fill="#263238"/><path d="M335.8,332a1.7,1.7,0,1,1-1.7-1.7A1.626,1.626,0,0,1,335.8,332Z" fill="#f5f5f5"/><path d="M343.3,332a1.7,1.7,0,1,1-1.7-1.7A1.576,1.576,0,0,1,343.3,332Z" fill="#f5f5f5"/><path d="M358.6,332a1.7,1.7,0,1,1-1.7-1.7A1.576,1.576,0,0,1,358.6,332Z" fill="#f5f5f5"/><path d="M393.1,332a1.7,1.7,0,1,1-1.7-1.7A1.685,1.685,0,0,1,393.1,332Z" fill="#f5f5f5"/><path d="M350.9,332a1.7,1.7,0,1,1-1.7-1.7A1.626,1.626,0,0,1,350.9,332Z" fill="#e8505b"/><path d="M372.5,332a1.7,1.7,0,1,1-1.7-1.7A1.626,1.626,0,0,1,372.5,332Z" fill="#e8505b"/><path d="M389.7,340.2a1.7,1.7,0,1,1,1.7,1.7A1.752,1.752,0,0,1,389.7,340.2Z" fill="#263238"/><path d="M382.2,340.2a1.7,1.7,0,1,1,1.7,1.7A1.686,1.686,0,0,1,382.2,340.2Z" fill="#263238"/><path d="M374.6,340.2a1.7,1.7,0,1,1,1.7,1.7A1.752,1.752,0,0,1,374.6,340.2Z" fill="#263238"/><path d="M367.1,340.2a1.7,1.7,0,1,1,1.7,1.7A1.686,1.686,0,0,1,367.1,340.2Z" fill="#263238"/><path d="M308.6,340.2a1.7,1.7,0,1,1,1.7,1.7A1.686,1.686,0,0,1,308.6,340.2Z" fill="#263238"/><path d="M300.9,340.2a1.7,1.7,0,1,1,1.7,1.7A1.686,1.686,0,0,1,300.9,340.2Z" fill="#263238"/><path d="M359.5,340.2a1.7,1.7,0,1,1,1.7,1.7A1.752,1.752,0,0,1,359.5,340.2Z" fill="#263238"/><path d="M322.4,340.2a1.7,1.7,0,1,1,1.7,1.7A1.752,1.752,0,0,1,322.4,340.2Z" fill="#263238"/><path d="M352,340.2a1.7,1.7,0,1,1,1.7,1.7A1.686,1.686,0,0,1,352,340.2Z" fill="#f5f5f5"/><path d="M344.4,340.2a1.7,1.7,0,1,1,1.7,1.7A1.752,1.752,0,0,1,344.4,340.2Z" fill="#f5f5f5"/><path d="M329.1,340.2a1.7,1.7,0,1,1,1.7,1.7A1.752,1.752,0,0,1,329.1,340.2Z" fill="#f5f5f5"/><path d="M294.6,340.2a1.7,1.7,0,1,1,1.7,1.7A1.752,1.752,0,0,1,294.6,340.2Z" fill="#f5f5f5"/><path d="M336.9,340.2a1.7,1.7,0,1,1,1.7,1.7A1.686,1.686,0,0,1,336.9,340.2Z" fill="#e8505b"/><path d="M315.3,340.2a1.7,1.7,0,1,1,1.7,1.7A1.686,1.686,0,0,1,315.3,340.2Z" fill="#e8505b"/><path d="M298,347.5a1.7,1.7,0,1,1-1.7-1.7A1.686,1.686,0,0,1,298,347.5Z" fill="#263238"/><path d="M305.6,347.5a1.7,1.7,0,1,1-1.7-1.7A1.752,1.752,0,0,1,305.6,347.5Z" fill="#263238"/><path d="M313.1,347.5a1.7,1.7,0,1,1-1.7-1.7A1.686,1.686,0,0,1,313.1,347.5Z" fill="#263238"/><path d="M320.7,347.5a1.7,1.7,0,1,1-1.7-1.7A1.752,1.752,0,0,1,320.7,347.5Z" fill="#263238"/><path d="M379.2,347.5a1.7,1.7,0,1,1-1.7-1.7A1.752,1.752,0,0,1,379.2,347.5Z" fill="#263238"/><path d="M386.9,347.5a1.7,1.7,0,1,1-1.7-1.7A1.752,1.752,0,0,1,386.9,347.5Z" fill="#263238"/><path d="M328.2,347.5a1.7,1.7,0,1,1-1.7-1.7A1.686,1.686,0,0,1,328.2,347.5Z" fill="#263238"/><path d="M365.3,347.5a1.7,1.7,0,1,1-1.7-1.7A1.752,1.752,0,0,1,365.3,347.5Z" fill="#263238"/><path d="M335.8,347.5a1.7,1.7,0,1,1-1.7-1.7A1.752,1.752,0,0,1,335.8,347.5Z" fill="#f5f5f5"/><path d="M343.3,347.5a1.7,1.7,0,1,1-1.7-1.7A1.685,1.685,0,0,1,343.3,347.5Z" fill="#f5f5f5"/><path d="M358.6,347.5a1.7,1.7,0,1,1-1.7-1.7A1.686,1.686,0,0,1,358.6,347.5Z" fill="#f5f5f5"/><path d="M393.1,347.5a1.7,1.7,0,1,1-1.7-1.7A1.752,1.752,0,0,1,393.1,347.5Z" fill="#f5f5f5"/><path d="M350.9,347.5a1.7,1.7,0,1,1-1.7-1.7A1.752,1.752,0,0,1,350.9,347.5Z" fill="#e8505b"/><path d="M372.5,347.5a1.7,1.7,0,1,1-1.7-1.7A1.752,1.752,0,0,1,372.5,347.5Z" fill="#e8505b"/><path d="M424.9,312.7H402.1V275.2l22.8-.1Z" fill="#2f408f"/><path d="M424.9,359.3l-22.8.1V321.8h22.8Z" fill="#2f408f"/><path d="M423.4,406.4H400.7V368.8h22.7Z" fill="#2f408f"/><rect width="151.5" height="37.6" transform="translate(250.3 368.8)" fill="#b4cff8"/><rect width="29.8" height="4.6" transform="translate(257 376.6)" fill="#2f408f"/><rect width="29.8" height="4.6" transform="translate(257 384.5)" fill="#2f408f"/><path d="M298.6,379.3a1.7,1.7,0,1,1-1.7-1.7A1.686,1.686,0,0,1,298.6,379.3Z" fill="#263238"/><path d="M306.2,379.3a1.7,1.7,0,1,1-1.7-1.7A1.752,1.752,0,0,1,306.2,379.3Z" fill="#263238"/><path d="M313.7,379.3a1.7,1.7,0,1,1-1.7-1.7A1.686,1.686,0,0,1,313.7,379.3Z" fill="#263238"/><path d="M321.3,379.3a1.7,1.7,0,1,1-1.7-1.7A1.752,1.752,0,0,1,321.3,379.3Z" fill="#263238"/><path d="M379.8,379.3a1.7,1.7,0,1,1-1.7-1.7A1.752,1.752,0,0,1,379.8,379.3Z" fill="#263238"/><path d="M387.5,379.3a1.7,1.7,0,1,1-1.7-1.7A1.752,1.752,0,0,1,387.5,379.3Z" fill="#263238"/><path d="M328.8,379.3a1.7,1.7,0,1,1-1.7-1.7A1.686,1.686,0,0,1,328.8,379.3Z" fill="#263238"/><path d="M365.9,379.3a1.7,1.7,0,1,1-1.7-1.7A1.686,1.686,0,0,1,365.9,379.3Z" fill="#263238"/><path d="M336.4,379.3a1.7,1.7,0,1,1-1.7-1.7A1.752,1.752,0,0,1,336.4,379.3Z" fill="#f5f5f5"/><path d="M343.9,379.3a1.7,1.7,0,1,1-1.7-1.7A1.686,1.686,0,0,1,343.9,379.3Z" fill="#f5f5f5"/><path d="M359.3,379.3a1.7,1.7,0,1,1-1.7-1.7A1.752,1.752,0,0,1,359.3,379.3Z" fill="#f5f5f5"/><path d="M393.8,379.3a1.7,1.7,0,1,1-1.7-1.7A1.752,1.752,0,0,1,393.8,379.3Z" fill="#f5f5f5"/><path d="M351.5,379.3a1.7,1.7,0,1,1-1.7-1.7A1.752,1.752,0,0,1,351.5,379.3Z" fill="#e8505b"/><path d="M373.1,379.3a1.7,1.7,0,1,1-1.7-1.7A1.752,1.752,0,0,1,373.1,379.3Z" fill="#e8505b"/><path d="M390.3,387.6a1.7,1.7,0,1,1,1.7,1.7A1.752,1.752,0,0,1,390.3,387.6Z" fill="#263238"/><path d="M382.8,387.6a1.7,1.7,0,1,1,1.7,1.7A1.752,1.752,0,0,1,382.8,387.6Z" fill="#263238"/><path d="M375.2,387.6a1.7,1.7,0,1,1,1.7,1.7A1.752,1.752,0,0,1,375.2,387.6Z" fill="#263238"/><path d="M367.7,387.6a1.7,1.7,0,1,1,1.7,1.7A1.752,1.752,0,0,1,367.7,387.6Z" fill="#263238"/><path d="M309.2,387.6a1.7,1.7,0,1,1,1.7,1.7A1.752,1.752,0,0,1,309.2,387.6Z" fill="#263238"/><path d="M301.5,387.6a1.7,1.7,0,1,1,1.7,1.7A1.752,1.752,0,0,1,301.5,387.6Z" fill="#263238"/><path d="M360.1,387.6a1.7,1.7,0,1,1,1.7,1.7A1.752,1.752,0,0,1,360.1,387.6Z" fill="#263238"/><path d="M323.1,387.6a1.7,1.7,0,1,1,1.7,1.7A1.686,1.686,0,0,1,323.1,387.6Z" fill="#263238"/><path d="M352.6,387.6a1.7,1.7,0,1,1,1.7,1.7A1.752,1.752,0,0,1,352.6,387.6Z" fill="#f5f5f5"/><path d="M345,387.6a1.7,1.7,0,1,1,1.7,1.7A1.752,1.752,0,0,1,345,387.6Z" fill="#f5f5f5"/><path d="M329.7,387.6a1.7,1.7,0,1,1,1.7,1.7A1.752,1.752,0,0,1,329.7,387.6Z" fill="#f5f5f5"/><path d="M295.2,387.6a1.7,1.7,0,1,1,1.7,1.7A1.752,1.752,0,0,1,295.2,387.6Z" fill="#f5f5f5"/><path d="M337.5,387.6a1.7,1.7,0,1,1,1.7,1.7A1.752,1.752,0,0,1,337.5,387.6Z" fill="#e8505b"/><path d="M315.9,387.6a1.7,1.7,0,1,1,1.7,1.7A1.686,1.686,0,0,1,315.9,387.6Z" fill="#e8505b"/><path d="M298.6,394.9a1.7,1.7,0,1,1-1.7-1.7A1.686,1.686,0,0,1,298.6,394.9Z" fill="#263238"/><path d="M306.2,394.9a1.7,1.7,0,1,1-1.7-1.7A1.752,1.752,0,0,1,306.2,394.9Z" fill="#263238"/><path d="M313.7,394.9a1.7,1.7,0,1,1-1.7-1.7A1.686,1.686,0,0,1,313.7,394.9Z" fill="#263238"/><path d="M321.3,394.9a1.7,1.7,0,1,1-1.7-1.7A1.752,1.752,0,0,1,321.3,394.9Z" fill="#263238"/><path d="M379.8,394.9a1.7,1.7,0,1,1-1.7-1.7A1.752,1.752,0,0,1,379.8,394.9Z" fill="#263238"/><path d="M387.5,394.9a1.7,1.7,0,1,1-1.7-1.7A1.752,1.752,0,0,1,387.5,394.9Z" fill="#263238"/><path d="M328.8,394.9a1.7,1.7,0,1,1-1.7-1.7A1.686,1.686,0,0,1,328.8,394.9Z" fill="#263238"/><path d="M365.9,394.9a1.7,1.7,0,1,1-1.7-1.7A1.686,1.686,0,0,1,365.9,394.9Z" fill="#263238"/><path d="M336.4,394.9a1.7,1.7,0,1,1-1.7-1.7A1.752,1.752,0,0,1,336.4,394.9Z" fill="#f5f5f5"/><path d="M343.9,394.9a1.7,1.7,0,1,1-1.7-1.7A1.686,1.686,0,0,1,343.9,394.9Z" fill="#f5f5f5"/><path d="M359.3,394.9a1.7,1.7,0,1,1-1.7-1.7A1.752,1.752,0,0,1,359.3,394.9Z" fill="#f5f5f5"/><path d="M393.8,394.9a1.7,1.7,0,1,1-1.7-1.7A1.752,1.752,0,0,1,393.8,394.9Z" fill="#f5f5f5"/><path d="M351.5,394.9a1.7,1.7,0,1,1-1.7-1.7A1.752,1.752,0,0,1,351.5,394.9Z" fill="#e8505b"/><path d="M373.1,394.9a1.7,1.7,0,1,1-1.7-1.7A1.752,1.752,0,0,1,373.1,394.9Z" fill="#e8505b"/></g><g transform="translate(865.449 500.951)"><g transform="translate(293.274 106.363)"><g transform="translate(0 0)"><path d="M302.638,143.4c-.031,0-.28-.342-.746-.871-.466-.56-1.12-1.275-1.835-2.115-.715-.809-1.368-1.586-1.8-2.146-.218-.28-.373-.529-.5-.684a.608.608,0,0,1-.155-.28c.031,0,.28.342.746.871.466.56,1.12,1.275,1.835,2.115.715.809,1.368,1.586,1.8,2.146.218.28.373.529.5.684A2.882,2.882,0,0,0,302.638,143.4Z" transform="translate(-297.6 -137.3)" fill="#2f408f"/></g></g><g transform="translate(298.56 92.4)"><g transform="translate(0)"><path d="M320.29,109.224c-.031,0-1.337-3.732-2.923-8.4-1.555-4.634-2.8-8.428-2.768-8.428s1.337,3.732,2.923,8.4C319.108,105.43,320.352,109.193,320.29,109.224Z" transform="translate(-314.598 -92.4)" fill="#2f408f"/></g></g><g transform="translate(309.413 100.983)"><path d="M349.5,129.2c-.031,0,.591-2.084,1.431-4.634s1.524-4.6,1.586-4.571c.031,0-.591,2.084-1.431,4.634S349.56,129.235,349.5,129.2Z" transform="translate(-349.496 -119.999)" fill="#2f408f"/></g><g transform="translate(314.732 109.935)"><g transform="translate(0)"><path d="M370.021,148.79c.031.031-.777.653-1.71,1.431s-1.679,1.462-1.71,1.431a2.573,2.573,0,0,1,.435-.5,22.38,22.38,0,0,1,2.426-2.021C369.8,148.883,370.021,148.758,370.021,148.79Z" transform="translate(-366.6 -148.785)" fill="#2f408f"/></g></g><g transform="translate(313.103 97.435)"><path d="M361.716,108.593a1.1,1.1,0,0,1-.093.529c-.093.28-.187.466-.249.466a1.1,1.1,0,0,1,.093-.529C361.561,108.78,361.685,108.562,361.716,108.593Z" transform="translate(-361.363 -108.59)" fill="#2f408f"/></g><g transform="translate(291.322 104.119)"><g transform="translate(0 0)"><path d="M291.75,130.68c-.031.031-.155-.093-.28-.249s-.187-.311-.124-.342c.031-.031.156.093.28.249C291.719,130.525,291.781,130.649,291.75,130.68Z" transform="translate(-291.322 -130.085)" fill="#2f408f"/></g></g></g></g></g></svg>