<svg xmlns="http://www.w3.org/2000/svg" width="48" height="24" viewBox="0 0 48 24"><g transform="translate(-3653 -1381)"><rect width="48" height="24" transform="translate(3653 1381)" fill="none"/><g transform="translate(3653 1220.6)"><path d="M43.2,187.339h1.681l-.84-2.139Z" transform="translate(-39.074 -18.814)" fill="#2fabf7"/><path d="M241.339,187.676a1.489,1.489,0,0,0-.611-.076H239.2v1.222h1.528a1.489,1.489,0,0,0,.611-.076.6.6,0,0,0,.229-.535A.425.425,0,0,0,241.339,187.676Z" transform="translate(-216.422 -20.984)" fill="#228fe0"/><path d="M41.21,164.4v.917l-.457-.917h-3.58v.917l-.457-.917H31.841a4.626,4.626,0,0,0-2.133.458V164.4H26.28v.458a2.192,2.192,0,0,0-1.447-.458H12.569l-.838,1.91-.838-1.91H7.008v.917l-.457-.917H3.276l-1.523,3.591L0,171.964H3.885l.457-1.222H5.408l.457,1.222h4.418v-.917l.381.917h2.209l.381-.917v.917H23.843v-1.986H24c.152,0,.152,0,.152.229v1.681h5.485v-.458a4.552,4.552,0,0,0,2.057.458h2.285l.457-1.222H35.5l.457,1.222h4.418v-1.146l.686,1.146h3.58V164.4Zm-25.747,6.418H14.168v-4.2l-1.828,4.2H11.2l-1.828-4.2v4.2H6.78l-.533-1.146H3.656L3.2,170.894H1.752l2.285-5.424h1.9l2.133,5.119V165.47h2.057l1.676,3.667,1.523-3.667h2.133Zm5.18-4.2H17.673v.993h2.895v1.07H17.673v1.07h2.971v1.146H16.378V165.47h4.266Zm5.713,2.216a1.916,1.916,0,0,1,.229.993v1.07H25.29v-.688a1.824,1.824,0,0,0-.229-1.07c-.229-.229-.457-.229-.914-.229H22.776v1.986H21.481V165.47h2.895a2.912,2.912,0,0,1,1.523.229,1.3,1.3,0,0,1,.609,1.222,1.521,1.521,0,0,1-.914,1.452A1.448,1.448,0,0,1,26.356,168.831Zm2.285,1.986H27.347v-5.424h1.295Zm15.006,0H41.82l-2.438-4.049v4.049h-2.59l-.457-1.146H33.669l-.457,1.222H31.765a2.655,2.655,0,0,1-1.828-.611,2.69,2.69,0,0,1-.686-2.063,3.138,3.138,0,0,1,.686-2.139,2.4,2.4,0,0,1,1.9-.611H33.06v1.146H31.841a1.4,1.4,0,0,0-.99.306,1.8,1.8,0,0,0-.381,1.222,1.665,1.665,0,0,0,.381,1.3,1.212,1.212,0,0,0,.914.306H32.3l1.752-4.2h1.9l2.133,5.119v-5.119h1.9L42.2,169.29v-3.744H43.5v5.272Z" fill="#0571c1"/><g transform="translate(19.172 166.386)"><path d="M358.4,187.339h1.757l-.84-2.139Z" transform="translate(-343.425 -185.2)" fill="#228fe0"/><path d="M203.586,281.555V277.2l-1.986,2.139Z" transform="translate(-201.6 -268.46)" fill="#228fe0"/></g><path d="M136.8,282.8v.993h2.827v1.07H136.8v1.146h3.132l1.452-1.6-1.375-1.6Z" transform="translate(-123.775 -107.139)" fill="#2fabf7"/><path d="M237.6,282.8H236v1.375h1.681c.458,0,.764-.229.764-.688A.771.771,0,0,0,237.6,282.8Z" transform="translate(-213.527 -107.127)" fill="#228fe0"/><path d="M148.331,263.838V260.4h-3.209a2.507,2.507,0,0,0-1.6.458V260.4H140a2.424,2.424,0,0,0-1.528.458V260.4h-6.189v.458a2.953,2.953,0,0,0-1.681-.458H126.48v.458a2.9,2.9,0,0,0-1.757-.458h-4.584l-1.07,1.146-.993-1.146H111.2v7.487h6.723l1.07-1.146.993,1.146h4.126V266.13h.535a4.648,4.648,0,0,0,1.757-.229v2.063h3.438v-1.986h.153c.229,0,.229,0,.229.229v1.757h10.391a3,3,0,0,0,1.757-.458v.458h3.285a3.432,3.432,0,0,0,1.834-.382h0a2.6,2.6,0,0,0,1.222-2.292A2.926,2.926,0,0,0,148.331,263.838Zm-23.684,1.222h-1.528v1.834h-2.445l-1.528-1.757-1.6,1.757H112.5V261.47h5.119l1.528,1.757,1.6-1.757H124.8c.993,0,2.139.306,2.139,1.757C126.862,264.755,125.793,265.06,124.647,265.06Zm7.64-.306a1.733,1.733,0,0,1,.229.993v1.07h-1.3v-.688a1.706,1.706,0,0,0-.229-1.07c-.153-.229-.458-.229-.917-.229H128.7v1.986h-1.3v-5.424h2.9a3.076,3.076,0,0,1,1.528.229,1.352,1.352,0,0,1,.688,1.222,1.521,1.521,0,0,1-.917,1.452A1.306,1.306,0,0,1,132.287,264.755Zm5.272-2.216h-2.98v.993h2.9v1.07h-2.9v1.07h2.98v1.146H133.28v-5.424h4.278Zm3.209,4.278h-2.445v-1.146h2.445a.645.645,0,0,0,.535-.153.554.554,0,0,0,0-.764.646.646,0,0,0-.458-.153c-1.222-.076-2.674,0-2.674-1.681,0-.764.458-1.6,1.834-1.6h2.521v1.3h-2.368a1.133,1.133,0,0,0-.535.076c-.153.076-.153.229-.153.382,0,.229.153.306.306.382a.969.969,0,0,0,.458.076h.688a1.945,1.945,0,0,1,1.452.458,1.581,1.581,0,0,1,.382,1.146C142.754,266.283,142.066,266.818,140.767,266.818Zm6.57-.535a2.228,2.228,0,0,1-1.6.535h-2.445v-1.146h2.445a.645.645,0,0,0,.535-.153.554.554,0,0,0,0-.764.646.646,0,0,0-.458-.153c-1.222-.076-2.674,0-2.674-1.681,0-.764.458-1.6,1.834-1.6h2.521v1.3H145.2a1.133,1.133,0,0,0-.535.076c-.153.076-.153.229-.153.382,0,.229.076.306.306.382a.969.969,0,0,0,.458.076h.688a1.945,1.945,0,0,1,1.452.458.075.075,0,0,1,.076.076,1.754,1.754,0,0,1,.306,1.07A1.555,1.555,0,0,1,147.338,266.283Z" transform="translate(-100.713 -86.878)" fill="#0571c1"/><path d="M297.339,283.676a1.489,1.489,0,0,0-.611-.076H295.2v1.222h1.528a1.489,1.489,0,0,0,.611-.076.6.6,0,0,0,.229-.535A.425.425,0,0,0,297.339,283.676Z" transform="translate(-267.09 -107.85)" fill="#228fe0"/><g transform="translate(19.172 166.386)"><path d="M241.339,187.676a1.489,1.489,0,0,0-.611-.076H239.2v1.222h1.528a1.489,1.489,0,0,0,.611-.076.6.6,0,0,0,.229-.535A.425.425,0,0,0,241.339,187.676Z" transform="translate(-235.609 -187.371)" fill="#228fe0"/><path d="M358.4,187.339h1.757l-.84-2.139Z" transform="translate(-343.425 -185.2)" fill="#228fe0"/><path d="M203.586,281.555V277.2l-1.986,2.139Z" transform="translate(-201.6 -268.46)" fill="#228fe0"/></g><g transform="translate(22.473 175.673)"><path d="M237.6,282.8H236v1.375h1.681c.458,0,.764-.229.764-.688A.771.771,0,0,0,237.6,282.8Z" transform="translate(-236 -282.8)" fill="#228fe0"/></g><g transform="translate(28.11 175.75)"><path d="M297.339,283.676a1.489,1.489,0,0,0-.611-.076H295.2v1.222h1.528a1.489,1.489,0,0,0,.611-.076.6.6,0,0,0,.229-.535A.425.425,0,0,0,297.339,283.676Z" transform="translate(-295.2 -283.6)" fill="#228fe0"/></g><g transform="translate(0 164.4)"><path d="M124.188,266.665l-1.07-1.146v1.3H120.6l-1.528-1.757-1.681,1.757h-5.042V261.47h5.119l1.6,1.757.764-.917-1.91-1.91H111.2v7.487h6.723l1.146-1.146.993,1.146h4.126Z" transform="translate(-100.58 -251.278)" fill="#2fabf7"/><path d="M15.662,171.887l-.993-1.07h-.458v-.458l-1.146-1.146-.764,1.6h-1.07l-1.834-4.2v4.2H6.8l-.535-1.146h-2.6l-.535,1.146H1.757l2.292-5.348h1.91L8.1,170.588V165.47H9.245l-1.07-1.07H7.029v.917l-.382-.917H3.285l-1.528,3.591L0,171.887H3.973l.458-1.146H5.5l.535,1.146h4.278v-.917l.382.917h2.216l.382-.917v.917Z" transform="translate(0 -164.4)" fill="#2fabf7"/><path d="M115.622,194.422,114.4,193.2l.917,1.986Z" transform="translate(-103.475 -190.458)" fill="#2fabf7"/></g><g transform="translate(7.431 164.476)"><path d="M204.655,265.334a2.8,2.8,0,0,0,1.222-2.063l-1.07-1.07a2.26,2.26,0,0,1,.153.764,1.555,1.555,0,0,1-.458,1.146,2.228,2.228,0,0,1-1.6.535h-2.445V263.5H202.9a.645.645,0,0,0,.535-.153.554.554,0,0,0,0-.764.646.646,0,0,0-.458-.153c-1.222-.076-2.674,0-2.674-1.681,0-.764.458-1.452,1.6-1.6l-.84-.84c-.153.076-.229.153-.306.153V258h-3.514a2.425,2.425,0,0,0-1.528.458V258h-6.265v.458A2.953,2.953,0,0,0,187.77,258h-4.126v.458a2.9,2.9,0,0,0-1.757-.458H177.3l-1.07,1.146L175.24,258h-.84l2.292,2.292,1.146-1.222h4.049c.993,0,2.139.306,2.139,1.757,0,1.528-1.07,1.834-2.216,1.834h-1.528v1.146l1.146,1.146v-1.146h.382a4.648,4.648,0,0,0,1.757-.229v2.063h3.438v-1.986h.153c.229,0,.229,0,.229.229v1.757h10.391a3,3,0,0,0,1.757-.458v.458h3.285a3.031,3.031,0,0,0,1.834-.306Zm-15.2-2.75a1.734,1.734,0,0,1,.229.993v1.07h-1.3v-.688a1.706,1.706,0,0,0-.229-1.07c-.153-.229-.458-.229-.917-.229H185.86v1.986h-1.3v-5.424h2.9a3.076,3.076,0,0,1,1.528.229,1.351,1.351,0,0,1,.688,1.222,1.521,1.521,0,0,1-.917,1.452A1.307,1.307,0,0,1,189.451,262.584Zm5.272-2.216h-2.98v.993h2.9v1.07h-2.9v1.07h2.98v1.146h-4.278v-5.424h4.278Zm3.209,4.279h-2.445V263.5h2.445a.645.645,0,0,0,.535-.153.554.554,0,0,0,0-.764.646.646,0,0,0-.458-.153c-1.222-.076-2.674,0-2.674-1.681,0-.764.458-1.6,1.834-1.6h2.521v1.3H197.32a1.133,1.133,0,0,0-.535.076c-.153.076-.153.229-.153.382,0,.229.153.306.306.382a.969.969,0,0,0,.458.076h.688a1.945,1.945,0,0,1,1.452.458,1.581,1.581,0,0,1,.382,1.146C199.918,264.112,199.23,264.647,197.932,264.647Z" transform="translate(-165.308 -249.184)" fill="#228fe0"/><path d="M459.2,284.058c0,.229.076.306.306.382a.969.969,0,0,0,.458.076h.688a2.219,2.219,0,0,1,1.07.229l-1.146-1.146h-.688a1.133,1.133,0,0,0-.535.076A.584.584,0,0,0,459.2,284.058Z" transform="translate(-422.91 -272.327)" fill="#228fe0"/><path d="M431.2,240.4l.153.229h.076Z" transform="translate(-397.584 -233.239)" fill="#228fe0"/><path d="M387.2,196.4l1.3,3.132V197.7Z" transform="translate(-357.786 -193.431)" fill="#228fe0"/><path d="M95.55,170.7H95.7c.153,0,.153,0,.153.229v1.681h5.5v-.458a4.577,4.577,0,0,0,2.063.458h2.292l.458-1.222h1.07l.458,1.222h4.431v-.764l-1.07-1.07v.84h-2.6l-.382-1.222h-2.674l-.458,1.222H103.5a2.3,2.3,0,0,1-2.521-2.674,3.132,3.132,0,0,1,.688-2.139,2.408,2.408,0,0,1,1.91-.611h1.222v1.146h-1.222a1.409,1.409,0,0,0-.993.306,1.794,1.794,0,0,0-.382,1.222,1.662,1.662,0,0,0,.382,1.3,1.218,1.218,0,0,0,.917.306h.535l1.757-4.2h.764l-1.07-1.07H103.5a4.652,4.652,0,0,0-2.139.458V165.2H97.995v.458a2.2,2.2,0,0,0-1.452-.458h-12.3l-.84,1.91-.84-1.91H79.2l1.07,1.07H81.8l1.3,2.827.458.458,1.375-3.362h2.139v5.424h-1.3v-4.2l-1.3,3.056,2.216,2.216h8.786Zm3.514-4.508h1.3v5.424h-1.3Zm-6.723,1.146h-2.98v.993h2.9v1.07h-2.9v1.07h2.98v1.146H88.063v-5.424h4.278Zm2.139,4.2h-1.3v-5.424h2.9a2.929,2.929,0,0,1,1.528.229,1.3,1.3,0,0,1,.611,1.222,1.521,1.521,0,0,1-.917,1.452,1,1,0,0,1,.611.458,1.911,1.911,0,0,1,.229.993v1.07h-1.3v-.688a1.82,1.82,0,0,0-.229-1.07c-.076-.153-.306-.153-.764-.153H94.48v1.91Z" transform="translate(-79.2 -165.2)" fill="#228fe0"/></g></g></g></svg>