<svg xmlns="http://www.w3.org/2000/svg" width="22.138" height="22.137" viewBox="0 0 22.138 22.137"><g transform="translate(0.136 0)"><path d="M18.6,3.126a11.137,11.137,0,0,0-15.474,0A11.136,11.136,0,1,0,18.874,18.875,11.137,11.137,0,0,0,18.6,3.126ZM18.35,18.35h0A10.394,10.394,0,1,1,21.394,11a10.394,10.394,0,0,1-3.044,7.35Z" transform="translate(0.001)"/><g transform="translate(5 4.376)"><g transform="translate(3.878 9.769)"><path d="M153.253,384.061a.267.267,0,0,0-.014-.048.259.259,0,0,0-.023-.044.247.247,0,0,0-.07-.07.251.251,0,0,0-.044-.023.238.238,0,0,0-.047-.014.25.25,0,0,0-.1,0,.245.245,0,0,0-.048.014.256.256,0,0,0-.044.023.254.254,0,0,0-.093.114.266.266,0,0,0-.014.148.238.238,0,0,0,.014.047.234.234,0,0,0,.023.044.247.247,0,0,0,.07.07.257.257,0,0,0,.044.023.246.246,0,0,0,.048.014.243.243,0,0,0,.1,0,.236.236,0,0,0,.047-.014.255.255,0,0,0,.044-.023.247.247,0,0,0,.07-.07.258.258,0,0,0,.037-.091A.244.244,0,0,0,153.253,384.061Z" transform="translate(-152.75 -383.857)"/></g><g transform="translate(0 7.892)"><path d="M11.68,312.082v-.008a1.056,1.056,0,0,0-1.43-.527l-1.769.489a1.16,1.16,0,0,0-.718-.707H7.756l-1.944-.66a2.006,2.006,0,0,0-1.618-.744,2.03,2.03,0,0,0-1.586.951H.254A.254.254,0,0,0,0,311.13v3.2a.254.254,0,0,0,.254.254h1.51a.254.254,0,0,0,.254-.254v-.219h.708a.254.254,0,0,0,.254-.254v-.073a1.8,1.8,0,0,1,.927.333,15.378,15.378,0,0,0,1.525.779h.011a2.28,2.28,0,0,0,.817.154,2.025,2.025,0,0,0,.841-.18l3.91-1.4.021-.008a1.084,1.084,0,0,0,.648-1.38ZM1.51,314.074h-1v-2.693h1Zm.962-.473H2.017v-2.22h.454Zm8.357-.6-3.908,1.4H6.9a1.646,1.646,0,0,1-1.264.022,14.7,14.7,0,0,1-1.474-.753,2.285,2.285,0,0,0-1.181-.4v-2.045a1.568,1.568,0,0,1,1.211-.8,1.465,1.465,0,0,1,1.243.584.254.254,0,0,0,.135.107l2.018.685a.57.57,0,0,1,.414.672.5.5,0,0,1-.608.341L5.117,312.1a.254.254,0,0,0-.153.484l2.279.722H7.25a1,1,0,0,0,1.238-.689q.009-.031.016-.062l1.906-.528c.275-.094.637-.128.8.243.164.435-.268.674-.381.73Z" transform="translate(0 -309.922)"/></g><g transform="translate(8.614 3.158)"><path d="M339.753,123.7a.28.28,0,0,0-.038-.092.247.247,0,0,0-.07-.07.259.259,0,0,0-.044-.023.253.253,0,0,0-.147-.014.238.238,0,0,0-.047.014.251.251,0,0,0-.044.023.247.247,0,0,0-.07.07.26.26,0,0,0-.023.044.25.25,0,0,0-.014.048.258.258,0,0,0,.014.147.254.254,0,0,0,.023.044.247.247,0,0,0,.07.07.253.253,0,0,0,.044.023.256.256,0,0,0,.047.014.25.25,0,0,0,.049,0,.255.255,0,0,0,.05-.005.269.269,0,0,0,.047-.014.258.258,0,0,0,.044-.023.247.247,0,0,0,.07-.07.287.287,0,0,0,.038-.091.257.257,0,0,0,0-.1Z" transform="translate(-339.25 -123.498)"/></g><g transform="translate(0.754 0.023)"><path d="M41.683.883h-1.51a.254.254,0,0,0-.254.254v.219h-.708a.254.254,0,0,0-.254.254v.073a1.8,1.8,0,0,1-.927-.333A15.363,15.363,0,0,0,36.5.572h-.011A2.16,2.16,0,0,0,34.831.6L33.814.959,32.953.1a.254.254,0,0,0-.359,0L29.766,2.925a.252.252,0,0,0,0,.359L34.6,8.116a.274.274,0,0,0,.359,0L37.54,5.535c.067.006.137.009.209.009a2.03,2.03,0,0,0,1.586-.951h2.35a.254.254,0,0,0,.254-.254v-3.2a.254.254,0,0,0-.256-.256ZM32.773.636l.579.579a1.107,1.107,0,0,1-1.157,0Zm-1.89,3.047L30.3,3.1l.579-.579a1.107,1.107,0,0,1,0,1.157Zm3.894,3.894L34.2,7a1.105,1.105,0,0,1,1.157,0Zm.944-.944a1.614,1.614,0,0,0-1.889,0L31.249,4.049a1.614,1.614,0,0,0,0-1.889l.579-.579a1.614,1.614,0,0,0,1.889,0l.549.549a1.006,1.006,0,0,0-.756.554,1.447,1.447,0,1,0,1.664,1.791l.857.291A1.621,1.621,0,0,0,36.3,6.053Zm-1.544-2.5h.007l.508.172a.94.94,0,1,1-1.275-1.073,1.124,1.124,0,0,0,.761.9Zm2.489,1.551a1.111,1.111,0,0,1-.162-.528,1.974,1.974,0,0,0,.448.242Zm2.29-1.45a1.568,1.568,0,0,1-1.211.8,1.848,1.848,0,0,1-.265-.019h0a1.454,1.454,0,0,1-.941-.515l-.031-.041a.253.253,0,0,0-.14-.116l-2.019-.685a.57.57,0,0,1-.414-.672h0a.5.5,0,0,1,.608-.341l2.275.721a.254.254,0,1,0,.153-.484l-1.809-.573-.016-.016h0l-.937-.937.805-.288h.019A1.646,1.646,0,0,1,36.3,1.037a14.708,14.708,0,0,1,1.474.753,2.285,2.285,0,0,0,1.181.4Zm.962-.153h-.454V1.864h.454Zm1.51,0h-1V1.391h1Z" transform="translate(-29.691 -0.023)"/></g></g></g></svg>