<svg xmlns="http://www.w3.org/2000/svg" width="22.138" height="22.137" viewBox="0 0 22.138 22.137"><g transform="translate(0.136 0)"><path d="M18.6,3.126a11.137,11.137,0,0,0-15.474,0A11.136,11.136,0,1,0,18.874,18.875,11.137,11.137,0,0,0,18.6,3.126ZM18.35,18.35h0A10.394,10.394,0,1,1,21.394,11a10.394,10.394,0,0,1-3.044,7.35Z" transform="translate(0.001)"/><g transform="translate(5 4.399)"><path d="M11.6,1.523h-.914v-.38a1.143,1.143,0,0,0-2.285,0v.381H4.6V1.143a1.143,1.143,0,0,0-2.285,0v.381H1.4A1.4,1.4,0,0,0,0,2.92V11.6A1.4,1.4,0,0,0,1.4,13H11.6A1.4,1.4,0,0,0,13,11.6V2.92a1.4,1.4,0,0,0-1.4-1.4Zm-2.434-.38a.381.381,0,0,1,.762,0V2.666a.381.381,0,1,1-.762,0Zm-6.094,0a.381.381,0,1,1,.762,0V2.666a.381.381,0,1,1-.762,0ZM.762,2.92A.635.635,0,0,1,1.4,2.285h.914v.381a1.143,1.143,0,0,0,2.285,0V2.285H8.4v.381a1.143,1.143,0,0,0,2.285,0V2.285H11.6a.635.635,0,0,1,.635.635v1.7H.762ZM12.238,11.6a.635.635,0,0,1-.635.635H1.4A.635.635,0,0,1,.762,11.6V5.383H12.238Z"/><path d="M292.145,242.762h.6v4.189a.381.381,0,0,0,.762,0v-4.57a.381.381,0,0,0-.381-.381h-.977a.381.381,0,1,0,0,.762Z" transform="translate(-284.356 -235.855)"/><path d="M153.287,246.57a.764.764,0,0,1-.754-.655.776.776,0,0,1-.007-.107.381.381,0,0,0-.762,0,1.522,1.522,0,0,0,.446,1.077,2.091,2.091,0,0,0,2.186,0c.828-1.014-.174-2.128.415-3.363a1.524,1.524,0,0,0-3.018-.295.381.381,0,1,0,.747.147.762.762,0,1,1,.747.91.381.381,0,1,0,0,.762.762.762,0,1,1,0,1.523Z" transform="translate(-147.911 -235.855)"/></g></g></svg>