<svg xmlns="http://www.w3.org/2000/svg" width="28" height="20" viewBox="0 0 28 20"><g transform="translate(-22213 867)"><rect width="28" height="20" transform="translate(22213 -867)" fill="none"/><g transform="translate(-5 2)"><g transform="translate(22222 -867)" fill="#fff" stroke="#707070" stroke-width="1"><rect width="20" height="18" stroke="none"/><rect x="0.5" y="0.5" width="19" height="17" fill="none"/></g><g transform="translate(21981 -1215)"><path d="M1,0H1A1,1,0,0,1,2,1V2A0,0,0,0,1,2,2H0A0,0,0,0,1,0,2V1A1,1,0,0,1,1,0Z" transform="translate(246 346)" fill="#707070"/><path d="M1,0H1A1,1,0,0,1,2,1V2A0,0,0,0,1,2,2H0A0,0,0,0,1,0,2V1A1,1,0,0,1,1,0Z" transform="translate(254 346)" fill="#707070"/></g><rect width="20" height="1" transform="translate(22222 -864)" fill="#707070"/><g transform="translate(21981 -1216)"><rect width="2" height="2" transform="translate(254 361)" fill="#707070"/><rect width="2" height="2" transform="translate(250 361)" fill="#707070"/><rect width="2" height="2" transform="translate(254 356)" fill="#707070"/><rect width="2" height="2" transform="translate(250 356)" fill="#707070"/><rect width="2" height="2" transform="translate(246 361)" fill="#707070"/><rect width="2" height="2" transform="translate(246 356)" fill="#707070"/></g></g></g></svg>