<svg xmlns="http://www.w3.org/2000/svg" width="15" height="15" viewBox="0 0 15 15"><g transform="translate(-6201 -4518)"><rect width="15" height="15" transform="translate(6201 4518)" fill="none"/><path d="M15,2.891V13.233a.28.28,0,0,1-.093.216.317.317,0,0,1-.225.086H9.332V12.1H13.7v-.653H9.329v-.8h4.364V10H9.332V9.19h4.363V8.545H9.332V7.736h4.363V7.084H9.332v-.8h4.363V5.633H9.332V4.817h4.363V4.2H9.332V2.575h5.351a.282.282,0,0,1,.224.093A.29.29,0,0,1,15,2.891ZM8.532.958v14.2L0,13.684V2.474L8.532.956ZM7.244,5.151l-1.068.066L5.491,9.457H5.475c-.034-.2-.159-.9-.384-2.1l-.4-2.039-1,.05-.4,1.989c-.234,1.159-.365,1.833-.4,2.023H2.879L2.269,5.469l-.919.049.984,4.927,1.021.066.384-1.918c.225-1.125.356-1.779.384-1.958h.028c.038.191.16.859.384,2.006l.384,1.974,1.106.066L7.266,5.149H7.244Z" transform="translate(6201 4517.044)" fill="#5363cc"/></g></svg>