<svg xmlns="http://www.w3.org/2000/svg" width="15" height="15" viewBox="0 0 15 15"><g transform="translate(-6201 -4564)"><rect width="15" height="15" transform="translate(6201 4564)" fill="none"/><path d="M14.72,2.13H9.7v.93h1.481V4.532H9.7V5h1.481V6.473H9.7v.482h1.481V8.348H9.7v.558h1.481v1.4H9.7v.558h1.481v1.4H9.7V13.29H14.72c.079-.024.146-.117.2-.28a1.37,1.37,0,0,0,.081-.4V2.3c0-.08-.028-.128-.081-.145A.688.688,0,0,0,14.72,2.13Zm-.652,10.134H11.658v-1.4h2.411v1.4Zm0-1.961H11.658v-1.4h2.411Zm0-1.955H11.658V6.961h2.411V8.349Zm0-1.875H11.658V5h2.411V6.473h0Zm0-1.949H11.658V3.061h2.411V4.523ZM0,1.9V13.524l8.85,1.531V.329L0,1.9Zm5.246,8.794q-.051-.137-.474-1.164c-.281-.685-.45-1.084-.5-1.2H4.257L3.307,10.59,2.039,10.5l1.5-2.812L2.166,4.88l1.294-.068.855,2.2h.017l.966-2.3,1.337-.084L5.042,7.671l1.641,3.1-1.437-.084Z" transform="translate(6201 4563.671)" fill="#4da04d"/></g></svg>