<svg xmlns="http://www.w3.org/2000/svg" width="15" height="15" viewBox="0 0 15 15"><g transform="translate(-6200 -4471)"><rect width="15" height="15" transform="translate(6200 4471)" fill="none"/><path d="M5.684,7.5a2.656,2.656,0,0,1-.062-1.374C5.884,6.129,5.859,7.21,5.684,7.5ZM5.631,8.886a13.123,13.123,0,0,1-.888,1.837,12.03,12.03,0,0,1,1.966-.642A3.872,3.872,0,0,1,5.631,8.886ZM2.691,12.542c0,.023.413-.158,1.091-1.178A4.143,4.143,0,0,0,2.691,12.542ZM7.75,4.688H12V14.3a.726.726,0,0,1-.75.7H.75A.726.726,0,0,1,0,14.3V.7A.726.726,0,0,1,.75,0H7V3.984A.73.73,0,0,0,7.75,4.688ZM7.5,9.721A2.984,2.984,0,0,1,6.166,8.145a3.962,3.962,0,0,0,.194-1.881.8.8,0,0,0-1.494-.2A4.584,4.584,0,0,0,5.119,8.32a26.785,26.785,0,0,1-1.275,2.514s0,0-.006,0c-.847.407-2.3,1.3-1.7,1.992a1,1,0,0,0,.672.293c.559,0,1.116-.527,1.909-1.811a18.726,18.726,0,0,1,2.469-.68,4.971,4.971,0,0,0,2,.571A.754.754,0,0,0,9.8,9.932c-.434-.4-1.7-.284-2.3-.211Zm4.281-6.645L8.719.205A.776.776,0,0,0,8.188,0H8V3.75h4V3.571A.679.679,0,0,0,11.781,3.076ZM9.466,10.556c.128-.079-.078-.349-1.338-.264C9.288,10.755,9.466,10.556,9.466,10.556Z" transform="translate(6202 4471)" fill="#ff5f5f"/></g></svg>