<svg xmlns="http://www.w3.org/2000/svg" width="15" height="15" viewBox="0 0 15 15"><g transform="translate(-6201 -4611)"><rect width="15" height="15" transform="translate(6201 4611)" fill="none"/><path d="M14.678,3.051H9.339V5.042A1.864,1.864,0,0,1,10.5,4.675V6.611h1.921a1.939,1.939,0,0,1-1.931,1.943A2.006,2.006,0,0,1,9.346,8.17V9.5h4.2v.653h-4.2v.808h4.2v.645h-4.2v1.462h5.339c.216,0,.319-.114.319-.336V3.37a.28.28,0,0,0-.319-.319ZM10.8,6.293V4.34a1.938,1.938,0,0,1,1.934,1.952Zm-5.64.032A.6.6,0,0,0,5,6.03a.686.686,0,0,0-.3-.154,1.647,1.647,0,0,0-.431-.056l-.45.009V7.7h.016a4.432,4.432,0,0,0,.516,0,1.2,1.2,0,0,0,.506-.141A.832.832,0,0,0,5.2,6.991a1.579,1.579,0,0,0-.04-.694v.028ZM0,2.463V13.679l8.555,1.478V.945ZM6.383,7.517A1.724,1.724,0,0,1,5.331,8.558a4.129,4.129,0,0,1-1.518.174v2.139l-1.126-.131V4.864l1.787-.093a2.764,2.764,0,0,1,.979.113,1.34,1.34,0,0,1,.764.576,2.059,2.059,0,0,1,.319,1A2.459,2.459,0,0,1,6.383,7.517Z" transform="translate(6201 4610.055)" fill="#fc895e"/></g></svg>