<svg xmlns="http://www.w3.org/2000/svg" width="48" height="24" viewBox="0 0 48 24"><g transform="translate(-3800 -1379)"><rect width="48" height="24" transform="translate(3800 1379)" fill="none"/><g transform="translate(3800 1385)"><path d="M9.208,12.438a6.467,6.467,0,0,0,6.51-6.165A6.355,6.355,0,0,0,9.208,0H6.279A6.138,6.138,0,0,0,0,6.273a6.235,6.235,0,0,0,6.279,6.165Z" transform="translate(0 0)" fill="#0079be"/><path d="M29.769,20.83a5.693,5.693,0,1,0,5.7,5.693A5.7,5.7,0,0,0,29.769,20.83Zm-3.612,5.693h0a3.614,3.614,0,0,1,2.319-3.368V29.89A3.613,3.613,0,0,1,26.157,26.523Zm4.9,3.368h0V23.155a3.6,3.6,0,0,1,0,6.736Z" transform="translate(-23.476 -20.315)" fill="#fff"/><path d="M693.2,79.738c0-.589-.307-.55-.6-.557v-.17c.255.013.517.013.773.013.275,0,.648-.013,1.133-.013a2.386,2.386,0,0,1,2.619,2.292c0,.649-.379,2.279-2.7,2.279-.334,0-.642-.013-.95-.013s-.583.006-.877.013v-.17c.393-.04.583-.053.6-.5V79.738Zm.642,3.072h0c0,.5.36.563.681.563a1.825,1.825,0,0,0,1.879-2.044,1.968,1.968,0,0,0-2.049-2.108c-.269,0-.392.019-.511.026V82.81Z" transform="translate(-675.511 -77.062)" fill="#211e1f"/><path d="M885.022,80.554h.124c.183,0,.314,0,.314-.217V78.563c0-.288-.1-.328-.341-.458V78c.308-.092.675-.216.7-.236a.233.233,0,0,1,.118-.033c.032,0,.046.04.046.092v2.514c0,.217.144.217.327.217h.111v.17c-.223,0-.452-.013-.687-.013s-.472.006-.714.013v-.17Zm.7-3.831h0a.321.321,0,0,1,0-.642.321.321,0,0,1,.321.315A.327.327,0,0,1,885.723,76.722Z" transform="translate(-863.182 -74.204)" fill="#211e1f"/><path d="M949.841,143.762c0-.242-.072-.307-.38-.432v-.124a8.782,8.782,0,0,0,.864-.315c.02,0,.039.013.039.065v.426a1.92,1.92,0,0,1,1.134-.491c.556,0,.752.406.752.917v1.69c0,.217.144.217.328.217h.118v.17c-.23,0-.459-.013-.694-.013s-.472.006-.707.013v-.17h.118c.184,0,.314,0,.314-.217v-1.7c0-.374-.228-.557-.6-.557a1.75,1.75,0,0,0-.76.315V145.5c0,.217.145.217.328.217h.118v.17c-.229,0-.459-.013-.694-.013s-.472.006-.707.013v-.17h.118c.183,0,.314,0,.314-.217v-1.735Z" transform="translate(-925.981 -139.366)" fill="#211e1f"/><path d="M1081.922,144.076a1.6,1.6,0,0,0,0,.38,1.094,1.094,0,0,0,.962,1.133,1.256,1.256,0,0,0,.885-.439l.091.092a1.536,1.536,0,0,1-1.211.74,1.315,1.315,0,0,1-1.251-1.428c0-1.284.864-1.664,1.322-1.664a1.04,1.04,0,0,1,1.107,1.028.754.754,0,0,1-.006.118l-.059.039Zm1.159-.21h0c.163,0,.183-.085.183-.164a.555.555,0,0,0-.57-.6c-.4,0-.674.294-.753.766Z" transform="translate(-1054.712 -139.365)" fill="#211e1f"/><path d="M1185.82,145.713H1186c.183,0,.314,0,.314-.217v-1.84c0-.2-.242-.242-.34-.295v-.1c.478-.2.74-.374.8-.374.039,0,.058.02.058.085v.589h.014c.163-.255.439-.675.838-.675a.357.357,0,0,1,.373.347.318.318,0,0,1-.307.335c-.2,0-.2-.158-.433-.158a.553.553,0,0,0-.478.544V145.5c0,.217.131.217.314.217h.366v.17c-.36-.007-.634-.013-.917-.013s-.544.006-.779.013v-.17Z" transform="translate(-1156.557 -139.365)" fill="#211e1f"/><path d="M1283.2,144.974a.863.863,0,0,0,.825.8.463.463,0,0,0,.53-.465c0-.773-1.427-.524-1.427-1.578a.9.9,0,0,1,1.015-.839,1.718,1.718,0,0,1,.746.191l.047.667h-.151a.672.672,0,0,0-.714-.648.46.46,0,0,0-.51.432c0,.767,1.519.53,1.519,1.559,0,.432-.347.891-1.126.891a1.725,1.725,0,0,1-.8-.222l-.072-.753.118-.033Z" transform="translate(-1251.416 -139.366)" fill="#211e1f"/><path d="M1441.7,76.3h-.163a1.245,1.245,0,0,0-1.4-1.074,1.866,1.866,0,0,0-1.847,2.076,2.134,2.134,0,0,0,1.952,2.273,1.332,1.332,0,0,0,1.316-1.133l.15.039-.15.956a3.67,3.67,0,0,1-1.448.347,2.331,2.331,0,0,1-2.5-2.463,2.408,2.408,0,0,1,2.481-2.306,4.724,4.724,0,0,1,1.545.348l.065.936Z" transform="translate(-1402.134 -73.166)" fill="#211e1f"/><path d="M1612.778,66.344h.124c.184,0,.315,0,.315-.217V62.48c0-.426-.1-.439-.347-.511v-.1a4.17,4.17,0,0,0,.674-.282.68.68,0,0,1,.144-.072c.04,0,.053.04.053.092v4.525c0,.217.144.217.327.217h.11v.17c-.222,0-.451-.013-.687-.013s-.471.006-.714.013v-.17Z" transform="translate(-1572.986 -59.99)" fill="#211e1f"/><path d="M1672.313,149.412c0,.118.072.125.183.125.079,0,.177-.006.262-.006v.138a6.681,6.681,0,0,0-.943.2l-.033-.02v-.53a1.767,1.767,0,0,1-1.159.55.706.706,0,0,1-.72-.779v-1.677c0-.17-.026-.334-.392-.367v-.125c.236-.006.759-.046.844-.046s.073.046.073.19v1.689c0,.2,0,.76.569.76a1.462,1.462,0,0,0,.792-.4v-1.763c0-.13-.314-.2-.549-.268v-.118c.589-.04.956-.092,1.021-.092s.053.046.053.118v2.416Z" transform="translate(-1628.317 -143.255)" fill="#211e1f"/><path d="M1801.289,63.992a1.654,1.654,0,0,1,.976-.472,1.275,1.275,0,0,1,1.218,1.375,1.654,1.654,0,0,1-1.565,1.716,1.934,1.934,0,0,1-.91-.229l-.2.15-.137-.072a7.76,7.76,0,0,0,.091-1.166V62.48c0-.426-.1-.439-.347-.511v-.1a4.14,4.14,0,0,0,.674-.282.674.674,0,0,1,.145-.072c.039,0,.052.04.052.092v2.39h0Zm0,1.781h0a.7.7,0,0,0,.674.669c.7,0,1-.688,1-1.271a1.249,1.249,0,0,0-1.047-1.3,1.007,1.007,0,0,0-.622.308v1.591Z" transform="translate(-1755.99 -59.99)" fill="#211e1f"/><path d="M692.3,324.2h.05c.128,0,.263-.017.263-.2V322.13c0-.186-.135-.2-.263-.2h-.05v-.107c.139,0,.353.014.528.014s.391-.014.559-.014v.107h-.05c-.128,0-.263.018-.263.2V324c0,.186.136.2.263.2h.05v.108c-.171,0-.385-.014-.563-.014s-.385.014-.524.014V324.2Z" transform="translate(-675.214 -313.88)" fill="#211e1f"/><path d="M692.786,323.7c-.172,0-.386-.014-.563-.014s-.384.014-.524.014h-.015v-.138h.065c.129,0,.247-.013.248-.188v-1.867c0-.174-.119-.186-.248-.188h-.065v-.138h.015c.14,0,.354.014.528.014s.391-.014.559-.014h.016v.138h-.066c-.129,0-.248.014-.248.188v1.867c0,.174.119.185.248.188h.066v.138Zm-.015-.03h0v-.076h-.035c-.127,0-.279-.022-.279-.219v-1.867c0-.2.152-.219.279-.219h.035v-.076c-.165,0-.371.014-.544.014s-.374-.013-.512-.014v.076h.034c.127,0,.279.022.279.219v1.867c0,.2-.152.219-.279.219h-.034v.076c.138,0,.339-.014.508-.014s.38.013.548.014Z" transform="translate(-674.615 -313.256)" fill="#211e1f"/><path d="M744.075,323.6l.007-.007v-1.336a.294.294,0,0,0-.31-.335h-.079v-.107c.168,0,.331.014.5.014.146,0,.293-.014.438-.014v.107h-.053c-.15,0-.318.028-.318.452V324a2.346,2.346,0,0,0,.021.36h-.136l-1.835-2.046v1.468c0,.31.06.417.335.417h.06v.107c-.153,0-.306-.014-.459-.014s-.324.014-.485.014V324.2h.05c.246,0,.32-.167.32-.452v-1.5a.32.32,0,0,0-.324-.32h-.046v-.107c.135,0,.274.014.409.014.107,0,.21-.014.317-.014l1.586,1.785Z" transform="translate(-723.458 -313.879)" fill="#211e1f"/><path d="M743.651,323.773l-.147-.005-1.808-2.015v1.428c0,.31.051.4.32.4h.076v.138h-.016c-.154,0-.308-.014-.46-.014s-.323.014-.485.014h-.016v-.138h.066c.235,0,.3-.152.305-.437v-1.5a.305.305,0,0,0-.309-.305h-.062V321.2h.016c.136,0,.276.014.409.014.106,0,.209-.014.329-.008l1.566,1.763v-1.311c0-.284-.191-.318-.295-.32h-.094V321.2h.016c.168,0,.332.014.5.014.145,0,.291-.014.438-.014h.016v.137h-.069c-.147,0-.3.017-.3.437V323.4a2.334,2.334,0,0,0,.021.357l0,.018h-.018Zm-.135-.031h.118a2.369,2.369,0,0,1-.019-.344v-1.622c0-.428.179-.468.333-.468h.038v-.076c-.14,0-.281.014-.423.014-.163,0-.322-.013-.483-.014v.076h.063a.312.312,0,0,1,.326.351l0,1.347-.007.007-.012.011-1.585-1.792c-.106,0-.209.014-.317.014-.131,0-.264-.013-.394-.014v.076h.032a.335.335,0,0,1,.339.336v1.5c0,.285-.079.467-.336.468h-.034v.077c.154,0,.313-.014.469-.014s.3.013.444.014v-.076h-.045c-.281,0-.35-.123-.35-.433v-1.508l1.85,2.07Zm-.071-.74h0l.011-.01Zm-.008-.007h0l0,0Z" transform="translate(-722.828 -313.277)" fill="#211e1f"/><path d="M862.157,317.63c-.268,0-.278.064-.331.324h-.107c.014-.1.032-.2.043-.3a2.118,2.118,0,0,0,.021-.3h.086c.029.107.118.1.214.1h1.838c.1,0,.185,0,.193-.111l.085.014c-.014.1-.028.193-.039.289s-.006.192-.006.288l-.107.04c-.007-.132-.025-.343-.264-.343H863.2v1.9c0,.275.125.306.3.306h.068v.108c-.139,0-.389-.014-.581-.014-.214,0-.464.014-.6.014v-.108h.068c.2,0,.3-.018.3-.3v-1.9Z" transform="translate(-840.454 -309.512)" fill="#211e1f"/><path d="M862.861,319.24c-.14,0-.39-.014-.581-.014-.214,0-.463.014-.6.014h-.015V319.1h.083c.2,0,.276-.007.28-.283v-1.888h-.569V316.9h.6v1.919c0,.286-.115.315-.311.315h-.052v.075c.141,0,.38-.014.587-.014.186,0,.424.013.565.014v-.075h-.052c-.172,0-.311-.043-.311-.322V316.9h.6c.239,0,.27.2.278.337l.077-.028c0-.093,0-.186.007-.28s.023-.183.037-.274l-.054-.009c-.017.1-.117.109-.206.108h-1.856c-.084,0-.175,0-.207-.1H861.1a2.118,2.118,0,0,1-.021.289c-.01.1-.027.192-.04.286h.076c.047-.248.078-.329.343-.325v.031c-.263,0-.258.049-.316.313l0,.012H861l0-.019c.014-.1.032-.2.043-.3a2,2,0,0,0,.022-.3v-.016h.113l0,.011c.024.09.09.09.181.092h1.856c.1,0,.171,0,.178-.1v-.017l.016,0,.1.016,0,.016c-.014.1-.028.192-.039.287s-.007.191-.007.287v.011l-.01,0-.126.046v-.021c-.009-.134-.023-.328-.249-.328h-.569v1.88c0,.269.11.287.28.291h.083v.138Z" transform="translate(-839.753 -308.798)" fill="#211e1f"/><path d="M966.691,324.2h.05c.128,0,.264-.017.264-.2V322.13c0-.186-.136-.2-.264-.2h-.05v-.107c.217,0,.588.014.887.014s.67-.014.912-.014c-.006.153,0,.389.008.545l-.108.029c-.017-.231-.06-.417-.434-.417h-.495v.933h.424c.214,0,.26-.121.281-.314h.107q-.01.209-.011.417c0,.136,0,.271.011.406l-.107.021c-.021-.214-.032-.353-.278-.353h-.427v.83c0,.232.206.232.434.232.428,0,.616-.029.723-.435l.1.024c-.047.189-.089.378-.121.567-.228,0-.638-.014-.958-.014s-.745.014-.948.014V324.2Z" transform="translate(-942.836 -313.88)" fill="#211e1f"/><path d="M968,323.719c-.229,0-.638-.015-.958-.015s-.744.015-.948.015h-.015v-.138h.065c.129,0,.246-.013.248-.188v-1.867c0-.174-.119-.186-.248-.188h-.065V321.2h.015c.217,0,.588.014.887.014s.669-.014.912-.014h.016v.016c0,.054,0,.117,0,.184,0,.123,0,.258.011.36v.013l-.012,0-.125.033v-.018c-.021-.231-.052-.4-.419-.4h-.48v.9h.409c.205,0,.242-.107.266-.3v-.014h.137v.016c-.007.139-.011.278-.011.417s0,.27.011.406v.013l-.013,0-.124.025v-.017c-.025-.217-.026-.337-.263-.339h-.412v.815c0,.216.187.215.419.216.429,0,.6-.023.708-.423l0-.014.015,0,.114.029,0,.015c-.046.189-.089.377-.121.566l0,.013Zm-.013-.031h0c.031-.18.072-.36.115-.539l-.07-.018c-.107.4-.313.434-.734.432-.224,0-.449,0-.45-.247v-.845h.443c.249,0,.274.147.292.35l.077-.016c-.007-.131-.01-.263-.01-.394s0-.268.01-.4h-.077c-.02.186-.078.316-.295.314h-.44v-.965h.511c.371,0,.432.189.448.413l.077-.021c-.006-.1-.01-.23-.01-.349,0-.061,0-.119,0-.169-.242,0-.6.014-.9.014s-.653-.013-.872-.014v.076h.035c.127,0,.279.022.279.219v1.867c0,.2-.152.218-.279.219h-.035v.075c.208,0,.619-.014.932-.014s.716.013.945.014Z" transform="translate(-942.24 -313.277)" fill="#211e1f"/><path d="M1055.677,322.188c0-.26-.142-.271-.253-.271h-.064v-.107c.114,0,.335.014.552.014s.385-.014.573-.014c.449,0,.848.121.848.628a.673.673,0,0,1-.5.627l.609.912a.4.4,0,0,0,.346.214v.108c-.118,0-.232-.014-.349-.014s-.225.014-.335.014a9.987,9.987,0,0,1-.741-1.155h-.234v.763c0,.275.128.285.292.285h.064v.108c-.2,0-.409-.014-.613-.014-.171,0-.339.014-.517.014v-.108h.064c.132,0,.253-.06.253-.192v-1.811Zm.456.827h.174c.357,0,.548-.135.548-.556a.486.486,0,0,0-.52-.52,1.8,1.8,0,0,0-.2.014v1.062Z" transform="translate(-1029.317 -313.871)" fill="#211e1f"/><path d="M1057.177,323.7c-.119,0-.233-.014-.35-.014s-.222.014-.347.008a9.959,9.959,0,0,1-.738-1.148h-.211v.747c0,.268.111.266.276.27h.08v.138h-.016c-.2,0-.41-.014-.613-.014-.17,0-.337.014-.516.014h-.016v-.138h.08c.129,0,.237-.057.237-.177v-1.811c0-.253-.127-.252-.237-.255h-.08v-.138h.016c.115,0,.335.014.552.014s.384-.014.574-.014c.449,0,.863.125.864.642a.683.683,0,0,1-.488.635l.6.9a.382.382,0,0,0,.335.207l.013,0v.136h-.015Zm-1.66-1.185h.244l0,.008a11.1,11.1,0,0,0,.729,1.147c.109,0,.223-.015.334-.015s.224.012.335.014v-.078a.408.408,0,0,1-.343-.219l-.62-.928.018-.007a.656.656,0,0,0,.485-.614c0-.494-.384-.609-.832-.611-.188,0-.359.014-.574.014s-.421-.013-.537-.014v.076h.049c.111,0,.268.019.268.286v1.811c0,.143-.134.208-.268.209h-.049v.075c.172,0,.334-.014.5-.014.2,0,.4.014.6.014V323.6h-.049c-.163,0-.307-.02-.307-.3v-.778Zm0-.1h-.016v-1.091h.014a1.746,1.746,0,0,1,.2-.014.5.5,0,0,1,.536.536c0,.425-.205.57-.564.57h-.174Zm.175-.031h0c.353,0,.53-.126.534-.54a.472.472,0,0,0-.506-.506,1.517,1.517,0,0,0-.187.013v1.033Z" transform="translate(-1028.7 -313.259)" fill="#211e1f"/><path d="M1160.483,323.6l.006-.007v-1.336a.293.293,0,0,0-.309-.335h-.078v-.107c.167,0,.331.014.5.014.146,0,.292-.014.439-.014v.107h-.054c-.15,0-.317.028-.317.452V324a2.371,2.371,0,0,0,.021.36h-.135l-1.835-2.046v1.468c0,.31.061.417.335.417h.061v.107c-.153,0-.306-.014-.459-.014s-.325.014-.485.014V324.2h.049c.246,0,.321-.167.321-.452v-1.5a.319.319,0,0,0-.324-.32h-.046v-.107c.135,0,.275.014.41.014.106,0,.21-.014.317-.014l1.586,1.785Z" transform="translate(-1129.591 -313.879)" fill="#211e1f"/><path d="M1160.056,323.753l-.147,0-1.808-2.016v1.428c0,.31.051.4.32.4h.075v.138h-.016c-.154,0-.307-.015-.459-.015s-.324.015-.484.015h-.016v-.138h.066c.235,0,.3-.152.3-.438v-1.5a.3.3,0,0,0-.308-.305h-.062v-.138h.016c.136,0,.275.014.41.014.1,0,.208-.014.328-.009l1.566,1.764v-1.311c0-.283-.191-.318-.294-.32h-.094v-.138h.016c.168,0,.333.014.5.014.145,0,.292-.014.438-.014h.016v.138h-.068c-.147,0-.3.017-.3.437v1.622a2.28,2.28,0,0,0,.021.358l0,.017Zm-.135-.031h.117a2.42,2.42,0,0,1-.019-.344v-1.622c0-.428.181-.467.333-.468h.037v-.075c-.14,0-.281.014-.422.014-.164,0-.322-.013-.484-.014v.075h.063a.312.312,0,0,1,.326.351l0,1.347-.007.007-.011.011-1.586-1.792c-.106,0-.209.014-.317.014-.132,0-.265-.013-.395-.014v.075h.031a.336.336,0,0,1,.339.336v1.5c0,.286-.081.468-.336.469h-.035v.075c.154,0,.313-.014.469-.014s.3.013.445.014v-.075h-.045c-.281,0-.351-.123-.351-.433v-1.508l1.851,2.069Zm-.071-.74h0l.011-.01Zm-.009-.007h0l0,0Z" transform="translate(-1128.957 -313.257)" fill="#211e1f"/><path d="M1274.24,320.267a1.431,1.431,0,0,0-.079.278c0,.107.15.125.267.125h.04v.107c-.143-.008-.288-.014-.432-.014-.128,0-.256.006-.384.014v-.107h.021a.322.322,0,0,0,.309-.232l.571-1.635a3.032,3.032,0,0,0,.132-.442,1.813,1.813,0,0,0,.324-.153.081.081,0,0,1,.028-.007.025.025,0,0,1,.025.011c.01.028.021.06.032.089l.655,1.864c.043.125.085.256.131.363a.227.227,0,0,0,.236.142h.021v.107c-.16-.008-.321-.014-.491-.014s-.353.006-.535.014v-.107h.039c.082,0,.221-.014.221-.1a1.138,1.138,0,0,0-.072-.257l-.139-.413h-.808l-.114.371Zm.52-1.579h-.007l-.331,1.009h.666Z" transform="translate(-1242.222 -310.35)" fill="#211e1f"/><path d="M1275.523,320.179c-.16-.007-.321-.015-.49-.015s-.352.007-.534.015h-.016v-.139h.055c.083,0,.2-.019.2-.087a1.122,1.122,0,0,0-.07-.252l-.136-.4h-.786l-.111.36a1.5,1.5,0,0,0-.079.274c0,.087.134.108.253.108h.055v.139h-.016c-.143-.007-.288-.015-.43-.015s-.256.007-.384.015h-.016v-.139h.037a.305.305,0,0,0,.295-.221l.57-1.635a4.108,4.108,0,0,0,.142-.452,1.808,1.808,0,0,0,.323-.153.1.1,0,0,1,.034-.008.044.044,0,0,1,.039.021c.01.029.021.061.032.09l.656,1.864c.042.125.084.257.131.362a.209.209,0,0,0,.221.133h.036v.139Zm-1.01-.032h0c.177-.006.349-.013.519-.013s.32.007.475.013v-.074h0a.242.242,0,0,1-.25-.152c-.046-.108-.09-.24-.132-.365l-.656-1.863c-.011-.028-.021-.061-.031-.086,0,0,0,0-.005,0h-.007a.074.074,0,0,0-.021,0,1.322,1.322,0,0,1-.317.143,2.965,2.965,0,0,1-.132.445l-.57,1.636a.339.339,0,0,1-.324.243h-.006v.074c.122-.006.246-.013.369-.013s.278.007.414.013v-.074h-.023c-.116,0-.278-.015-.282-.14a1.4,1.4,0,0,1,.079-.283l.016,0-.016-.005.117-.381h.831l.143.424a1.08,1.08,0,0,1,.072.262c0,.109-.155.117-.236.119h-.024v.074Zm-.728-1.048h0l.341-1.039h.019v.016h0v-.016h.011l.338,1.039Zm.043-.031h.624l-.31-.955Zm.3-.989h0l.008,0Z" transform="translate(-1241.607 -309.737)" fill="#211e1f"/><path d="M1363.337,317.63c-.267,0-.278.064-.332.324h-.107c.014-.1.032-.2.043-.3a2.1,2.1,0,0,0,.021-.3h.086c.028.107.118.1.213.1h1.839c.1,0,.185,0,.192-.111l.085.014c-.014.1-.028.193-.039.289s-.008.192-.008.288l-.107.04c-.007-.132-.024-.343-.263-.343h-.584v1.9c0,.275.125.306.3.306h.068v.108c-.139,0-.388-.014-.581-.014-.214,0-.463.014-.6.014v-.108h.067c.2,0,.3-.018.3-.3v-1.9Z" transform="translate(-1329.266 -309.512)" fill="#211e1f"/><path d="M1364.027,319.241c-.14,0-.39-.014-.581-.014-.213,0-.463.014-.6.014h-.016V319.1h.083c.2,0,.275-.007.28-.283v-1.888h-.568V316.9h.6v1.919c0,.286-.115.314-.311.315h-.052v.076c.141,0,.38-.014.587-.014.186,0,.424.013.565.014v-.076h-.052c-.171,0-.31-.042-.311-.322V316.9h.6c.239,0,.271.2.277.336l.078-.028c0-.093,0-.186.007-.279s.023-.183.036-.274l-.054-.009c-.016.1-.117.109-.206.108h-1.857c-.084,0-.175,0-.207-.1h-.058a2.114,2.114,0,0,1-.022.29c-.009.1-.027.192-.04.286h.077c.047-.248.078-.329.344-.325v.031c-.264,0-.258.049-.317.313l0,.012h-.138l0-.018c.015-.1.033-.2.043-.3a2.048,2.048,0,0,0,.021-.3v-.016h.113l0,.011c.025.09.09.09.181.092h1.857c.1,0,.17,0,.176-.1v-.017l.017,0,.1.016,0,.016c-.015.1-.028.192-.039.287s-.007.191-.007.287v.011l-.01,0-.126.046v-.021c-.009-.134-.023-.328-.248-.328h-.569v1.881c0,.269.11.287.28.291h.083v.138Z" transform="translate(-1328.552 -308.799)" fill="#211e1f"/><path d="M1468.59,324.2h.05c.129,0,.263-.017.263-.2V322.13c0-.186-.135-.2-.263-.2h-.05v-.107c.139,0,.353.014.527.014s.393-.014.56-.014v.107h-.05c-.128,0-.264.018-.264.2V324c0,.186.136.2.264.2h.05v.108c-.171,0-.385-.014-.563-.014s-.385.014-.524.014Z" transform="translate(-1432.348 -313.88)" fill="#211e1f"/><path d="M1469.063,323.719c-.172,0-.385-.015-.563-.015s-.385.015-.524.015h-.016v-.138h.066c.129,0,.247-.013.247-.188v-1.867c0-.174-.119-.186-.247-.188h-.066V321.2h.016c.139,0,.353.014.527.014s.391-.014.56-.014h.015v.137h-.065c-.13,0-.247.014-.249.188v1.867c0,.174.119.186.249.188h.065v.138Zm-.016-.031h0v-.075h-.034c-.128,0-.279-.022-.279-.219v-1.867c0-.2.151-.219.279-.219h.034v-.076c-.165,0-.37.014-.544.014s-.373-.013-.511-.014v.076h.034c.127,0,.278.022.279.219v1.867c0,.2-.152.219-.279.219h-.034v.075c.137,0,.339-.014.508-.014s.379.013.547.014Z" transform="translate(-1431.734 -313.277)" fill="#211e1f"/><path d="M1518.215,319.66a1.25,1.25,0,0,1,1.365,1.23,1.307,1.307,0,0,1-1.346,1.365,1.259,1.259,0,0,1-1.333-1.279,1.3,1.3,0,0,1,1.314-1.315Zm.054,2.437h0c.691,0,.812-.61.812-1.129s-.281-1.151-.872-1.151c-.624,0-.809.556-.809,1.033,0,.638.292,1.248.87,1.248Z" transform="translate(-1479.469 -311.774)" fill="#211e1f"/><path d="M1516.25,320.361a1.314,1.314,0,0,1,1.33-1.331v.031a1.282,1.282,0,0,0-1.3,1.3,1.245,1.245,0,0,0,1.318,1.263,1.292,1.292,0,0,0,1.332-1.349,1.235,1.235,0,0,0-1.35-1.214v-.031a1.267,1.267,0,0,1,1.38,1.245,1.324,1.324,0,0,1-1.362,1.38,1.278,1.278,0,0,1-1.349-1.294h0Zm.5-.125h0c0-.479.188-1.049.824-1.049.6,0,.887.644.888,1.167s-.123,1.144-.827,1.144v-.03c.677,0,.795-.594.8-1.114s-.278-1.135-.857-1.136c-.611,0-.792.543-.794,1.017,0,.635.29,1.231.854,1.232v.03c-.592,0-.884-.621-.885-1.263Z" transform="translate(-1478.834 -311.159)" fill="#211e1f"/><path d="M1631.223,323.6l.007-.007v-1.336a.294.294,0,0,0-.311-.335h-.077v-.107c.167,0,.331.014.5.014.147,0,.293-.014.439-.014v.107h-.054c-.149,0-.317.028-.317.452V324a2.292,2.292,0,0,0,.022.36h-.135l-1.835-2.046v1.468c0,.31.06.417.335.417h.061v.107c-.153,0-.306-.014-.459-.014s-.325.014-.485.014V324.2h.05c.246,0,.32-.167.32-.452v-1.5a.319.319,0,0,0-.324-.32h-.046v-.107c.135,0,.274.014.41.014.107,0,.21-.014.317-.014l1.586,1.785Z" transform="translate(-1588.72 -313.879)" fill="#211e1f"/><path d="M1630.833,323.772l-.147-.005-1.808-2.015v1.428c0,.31.051.4.319.4h.077v.138h-.016c-.154,0-.307-.014-.46-.014s-.323.014-.485.014h-.015v-.138h.065c.235,0,.3-.152.305-.436v-1.5a.3.3,0,0,0-.309-.305h-.061V321.2h.015c.137,0,.275.014.41.014.106,0,.208-.014.329-.008l1.566,1.763v-1.311c0-.284-.191-.318-.3-.32h-.094V321.2h.016c.168,0,.332.014.5.014.146,0,.292-.014.439-.014h.016v.137h-.069c-.146,0-.3.018-.3.437V323.4a2.371,2.371,0,0,0,.02.358l0,.017h-.017Zm-.135-.031h.116a2.461,2.461,0,0,1-.018-.344v-1.622c0-.428.18-.467.332-.468h.038v-.075c-.141,0-.281.014-.424.014-.162,0-.321-.013-.483-.014v.075h.062a.313.313,0,0,1,.325.351l0,1.347-.007.007-.011.011-1.586-1.792c-.105,0-.209.014-.317.014-.131,0-.265-.013-.395-.014v.075h.031a.336.336,0,0,1,.34.336v1.5c0,.285-.08.467-.336.468h-.035v.075c.155,0,.313-.014.47-.014s.3.013.444.014v-.075h-.046c-.28,0-.35-.123-.35-.433v-1.508l1.851,2.07Zm-.072-.74h0l.011-.01Zm-.008-.007h0l0,0Z" transform="translate(-1588.123 -313.277)" fill="#211e1f"/><path d="M1745.017,320.267a1.5,1.5,0,0,0-.078.278c0,.107.15.125.267.125h.04v.107c-.143-.008-.289-.014-.431-.014s-.256.006-.384.014v-.107h.021a.322.322,0,0,0,.31-.232l.571-1.635a2.939,2.939,0,0,0,.131-.442,1.841,1.841,0,0,0,.325-.153.076.076,0,0,1,.028-.007.023.023,0,0,1,.025.011c.011.028.022.06.033.089l.655,1.864c.043.125.085.256.132.363a.226.226,0,0,0,.235.142h.022v.107c-.161-.008-.321-.014-.492-.014s-.353.006-.534.014v-.107h.04c.081,0,.221-.014.221-.1a1.138,1.138,0,0,0-.072-.257l-.138-.413h-.809l-.114.371Zm.521-1.579h-.007l-.332,1.009h.667Z" transform="translate(-1701.385 -310.35)" fill="#211e1f"/><path d="M1746.3,320.2c-.16-.006-.32-.014-.491-.014s-.352.008-.534.014h-.016v-.139h.054c.083,0,.206-.019.206-.088a1.14,1.14,0,0,0-.071-.252l-.135-.4h-.787l-.11.36a1.481,1.481,0,0,0-.077.273c0,.087.133.109.251.109h.054v.139h-.016c-.143-.006-.288-.014-.43-.014s-.256.008-.384.014h-.016v-.139h.036a.308.308,0,0,0,.3-.221l.57-1.635a4.674,4.674,0,0,0,.141-.451,1.9,1.9,0,0,0,.324-.153.092.092,0,0,1,.034-.007.04.04,0,0,1,.039.021c.011.028.021.06.033.089l.655,1.864c.043.125.085.257.131.363a.21.21,0,0,0,.22.133h.037v.139Zm-1.01-.031h0c.176-.007.35-.014.519-.014s.321.007.476.013v-.074h-.006a.243.243,0,0,1-.249-.152c-.047-.108-.089-.24-.132-.365l-.656-1.864c-.011-.028-.021-.061-.03-.085,0,0,0,0-.005,0h-.007a.069.069,0,0,0-.02,0,1.368,1.368,0,0,1-.318.142,3.048,3.048,0,0,1-.133.445l-.571,1.636a.339.339,0,0,1-.324.243h-.005v.074c.123-.006.245-.013.369-.013s.279.007.416.013v-.074h-.024c-.116,0-.279-.014-.283-.141a1.5,1.5,0,0,1,.079-.282l.015,0-.015-.005.117-.381h.831l.143.424a1.1,1.1,0,0,1,.072.262c-.005.109-.155.117-.236.119h-.023v.075Zm-.728-1.049h0l.342-1.039h.019v.016h0v-.016h.011l.337,1.039Zm.043-.031h.623l-.31-.954-.313.954Zm.3-.989h0l.007,0Z" transform="translate(-1700.77 -309.757)" fill="#211e1f"/><path d="M1850.886,323.958c0,.143.1.185.213.2a2.582,2.582,0,0,0,.471-.007.51.51,0,0,0,.341-.192.811.811,0,0,0,.11-.257h.1c-.039.2-.089.4-.132.606-.313,0-.627-.014-.94-.014s-.627.014-.941.014V324.2h.049c.129,0,.268-.017.268-.238V322.13c0-.186-.139-.2-.268-.2h-.049v-.107c.188,0,.374.014.562.014s.36-.014.542-.014v.107h-.09c-.135,0-.241,0-.241.192v1.839Z" transform="translate(-1804.456 -313.88)" fill="#211e1f"/><path d="M1851.367,323.72c-.314,0-.627-.014-.94-.014s-.627.014-.941.014h-.015v-.138h.065c.129,0,.251-.012.253-.223v-1.832c0-.173-.123-.185-.253-.188h-.065V321.2h.015c.189,0,.375.014.563.014s.359-.014.542-.014h.015v.137h-.1c-.138,0-.224,0-.227.177v1.839c0,.133.088.169.2.184.063,0,.129.007.2.007a2.528,2.528,0,0,0,.27-.014.5.5,0,0,0,.332-.186.8.8,0,0,0,.108-.252l0-.012h.134l0,.019c-.04.2-.089.4-.132.606l0,.012h-.012Zm-.013-.031h0c.041-.193.088-.382.126-.575h-.073a.821.821,0,0,1-.11.251.528.528,0,0,1-.353.2,2.689,2.689,0,0,1-.273.015c-.069,0-.136,0-.2-.008-.116-.013-.228-.062-.228-.215v-1.839c0-.2.125-.208.258-.208h.074v-.076c-.176,0-.349.014-.526.014s-.365-.013-.548-.014v.076h.034c.127,0,.283.022.283.218v1.832c0,.231-.155.254-.283.254h-.034v.075c.308,0,.616-.014.926-.014s.619.013.927.014Z" transform="translate(-1803.83 -313.278)" fill="#211e1f"/><path d="M1915,317.72a.375.375,0,1,1-.375.377A.369.369,0,0,1,1915,317.72Zm0,.681h0a.305.305,0,1,0-.3-.3A.3.3,0,0,0,1915,318.4Zm-.187-.107h0v-.019c.046-.006.055,0,.055-.034v-.278c0-.039,0-.052-.053-.05v-.019h.192c.066,0,.127.031.127.1a.118.118,0,0,1-.089.113l.062.086a.382.382,0,0,0,.083.088v.012h-.073c-.035,0-.066-.074-.135-.173h-.042v.125c0,.025.009.023.055.03v.019Zm.127-.2h.044c.048,0,.071-.037.071-.1a.07.07,0,0,0-.073-.081h-.042Z" transform="translate(-1867.379 -309.88)" fill="#211e1f"/><path d="M9.208,12.438a6.467,6.467,0,0,0,6.51-6.165A6.355,6.355,0,0,0,9.208,0H6.279A6.138,6.138,0,0,0,0,6.273a6.235,6.235,0,0,0,6.279,6.165Z" transform="translate(0 0)" fill="#0079be"/><path d="M29.769,20.83a5.693,5.693,0,1,0,5.7,5.693A5.7,5.7,0,0,0,29.769,20.83Zm-3.612,5.693h0a3.614,3.614,0,0,1,2.319-3.368V29.89A3.613,3.613,0,0,1,26.157,26.523Zm4.9,3.368h0V23.155a3.6,3.6,0,0,1,0,6.736Z" transform="translate(-23.476 -20.315)" fill="#fff"/><path d="M693.2,79.738c0-.589-.307-.55-.6-.557v-.17c.255.013.517.013.773.013.275,0,.648-.013,1.133-.013a2.386,2.386,0,0,1,2.619,2.292c0,.649-.379,2.279-2.7,2.279-.334,0-.642-.013-.95-.013s-.583.006-.877.013v-.17c.393-.04.583-.053.6-.5V79.738Zm.642,3.072h0c0,.5.36.563.681.563a1.825,1.825,0,0,0,1.879-2.044,1.968,1.968,0,0,0-2.049-2.108c-.269,0-.392.019-.511.026V82.81Z" transform="translate(-675.511 -77.062)" fill="#211e1f"/><path d="M885.022,80.554h.124c.183,0,.314,0,.314-.217V78.563c0-.288-.1-.328-.341-.458V78c.308-.092.675-.216.7-.236a.233.233,0,0,1,.118-.033c.032,0,.046.04.046.092v2.514c0,.217.144.217.327.217h.111v.17c-.223,0-.452-.013-.687-.013s-.472.006-.714.013v-.17Zm.7-3.831h0a.321.321,0,0,1,0-.642.321.321,0,0,1,.321.315A.327.327,0,0,1,885.723,76.722Z" transform="translate(-863.182 -74.204)" fill="#211e1f"/><path d="M949.841,143.762c0-.242-.072-.307-.38-.432v-.124a8.782,8.782,0,0,0,.864-.315c.02,0,.039.013.039.065v.426a1.92,1.92,0,0,1,1.134-.491c.556,0,.752.406.752.917v1.69c0,.217.144.217.328.217h.118v.17c-.23,0-.459-.013-.694-.013s-.472.006-.707.013v-.17h.118c.184,0,.314,0,.314-.217v-1.7c0-.374-.228-.557-.6-.557a1.75,1.75,0,0,0-.76.315V145.5c0,.217.145.217.328.217h.118v.17c-.229,0-.459-.013-.694-.013s-.472.006-.707.013v-.17h.118c.183,0,.314,0,.314-.217v-1.735Z" transform="translate(-925.981 -139.366)" fill="#211e1f"/><path d="M1081.922,144.076a1.6,1.6,0,0,0,0,.38,1.094,1.094,0,0,0,.962,1.133,1.256,1.256,0,0,0,.885-.439l.091.092a1.536,1.536,0,0,1-1.211.74,1.315,1.315,0,0,1-1.251-1.428c0-1.284.864-1.664,1.322-1.664a1.04,1.04,0,0,1,1.107,1.028.754.754,0,0,1-.006.118l-.059.039Zm1.159-.21h0c.163,0,.183-.085.183-.164a.555.555,0,0,0-.57-.6c-.4,0-.674.294-.753.766Z" transform="translate(-1054.712 -139.365)" fill="#211e1f"/><path d="M1185.82,145.713H1186c.183,0,.314,0,.314-.217v-1.84c0-.2-.242-.242-.34-.295v-.1c.478-.2.74-.374.8-.374.039,0,.058.02.058.085v.589h.014c.163-.255.439-.675.838-.675a.357.357,0,0,1,.373.347.318.318,0,0,1-.307.335c-.2,0-.2-.158-.433-.158a.553.553,0,0,0-.478.544V145.5c0,.217.131.217.314.217h.366v.17c-.36-.007-.634-.013-.917-.013s-.544.006-.779.013v-.17Z" transform="translate(-1156.557 -139.365)" fill="#211e1f"/><path d="M1283.2,144.974a.863.863,0,0,0,.825.8.463.463,0,0,0,.53-.465c0-.773-1.427-.524-1.427-1.578a.9.9,0,0,1,1.015-.839,1.718,1.718,0,0,1,.746.191l.047.667h-.151a.672.672,0,0,0-.714-.648.46.46,0,0,0-.51.432c0,.767,1.519.53,1.519,1.559,0,.432-.347.891-1.126.891a1.725,1.725,0,0,1-.8-.222l-.072-.753.118-.033Z" transform="translate(-1251.416 -139.366)" fill="#211e1f"/><path d="M1441.7,76.3h-.163a1.245,1.245,0,0,0-1.4-1.074,1.866,1.866,0,0,0-1.847,2.076,2.134,2.134,0,0,0,1.952,2.273,1.332,1.332,0,0,0,1.316-1.133l.15.039-.15.956a3.67,3.67,0,0,1-1.448.347,2.331,2.331,0,0,1-2.5-2.463,2.408,2.408,0,0,1,2.481-2.306,4.724,4.724,0,0,1,1.545.348l.065.936Z" transform="translate(-1402.134 -73.166)" fill="#211e1f"/><path d="M1612.778,66.344h.124c.184,0,.315,0,.315-.217V62.48c0-.426-.1-.439-.347-.511v-.1a4.17,4.17,0,0,0,.674-.282.68.68,0,0,1,.144-.072c.04,0,.053.04.053.092v4.525c0,.217.144.217.327.217h.11v.17c-.222,0-.451-.013-.687-.013s-.471.006-.714.013v-.17Z" transform="translate(-1572.986 -59.99)" fill="#211e1f"/><path d="M1672.313,149.412c0,.118.072.125.183.125.079,0,.177-.006.262-.006v.138a6.681,6.681,0,0,0-.943.2l-.033-.02v-.53a1.767,1.767,0,0,1-1.159.55.706.706,0,0,1-.72-.779v-1.677c0-.17-.026-.334-.392-.367v-.125c.236-.006.759-.046.844-.046s.073.046.073.19v1.689c0,.2,0,.76.569.76a1.462,1.462,0,0,0,.792-.4v-1.763c0-.13-.314-.2-.549-.268v-.118c.589-.04.956-.092,1.021-.092s.053.046.053.118v2.416Z" transform="translate(-1628.317 -143.255)" fill="#211e1f"/><path d="M1801.289,63.992a1.654,1.654,0,0,1,.976-.472,1.275,1.275,0,0,1,1.218,1.375,1.654,1.654,0,0,1-1.565,1.716,1.934,1.934,0,0,1-.91-.229l-.2.15-.137-.072a7.76,7.76,0,0,0,.091-1.166V62.48c0-.426-.1-.439-.347-.511v-.1a4.14,4.14,0,0,0,.674-.282.674.674,0,0,1,.145-.072c.039,0,.052.04.052.092v2.39h0Zm0,1.781h0a.7.7,0,0,0,.674.669c.7,0,1-.688,1-1.271a1.249,1.249,0,0,0-1.047-1.3,1.007,1.007,0,0,0-.622.308v1.591Z" transform="translate(-1755.99 -59.99)" fill="#211e1f"/><path d="M692.3,324.2h.05c.128,0,.263-.017.263-.2V322.13c0-.186-.135-.2-.263-.2h-.05v-.107c.139,0,.353.014.528.014s.391-.014.559-.014v.107h-.05c-.128,0-.263.018-.263.2V324c0,.186.136.2.263.2h.05v.108c-.171,0-.385-.014-.563-.014s-.385.014-.524.014V324.2Z" transform="translate(-675.214 -313.88)" fill="#211e1f"/><path d="M692.786,323.7c-.172,0-.386-.014-.563-.014s-.384.014-.524.014h-.015v-.138h.065c.129,0,.247-.013.248-.188v-1.867c0-.174-.119-.186-.248-.188h-.065v-.138h.015c.14,0,.354.014.528.014s.391-.014.559-.014h.016v.138h-.066c-.129,0-.248.014-.248.188v1.867c0,.174.119.185.248.188h.066v.138Zm-.015-.03h0v-.076h-.035c-.127,0-.279-.022-.279-.219v-1.867c0-.2.152-.219.279-.219h.035v-.076c-.165,0-.371.014-.544.014s-.374-.013-.512-.014v.076h.034c.127,0,.279.022.279.219v1.867c0,.2-.152.219-.279.219h-.034v.076c.138,0,.339-.014.508-.014s.38.013.548.014Z" transform="translate(-674.615 -313.256)" fill="#211e1f"/><path d="M744.075,323.6l.007-.007v-1.336a.294.294,0,0,0-.31-.335h-.079v-.107c.168,0,.331.014.5.014.146,0,.293-.014.438-.014v.107h-.053c-.15,0-.318.028-.318.452V324a2.346,2.346,0,0,0,.021.36h-.136l-1.835-2.046v1.468c0,.31.06.417.335.417h.06v.107c-.153,0-.306-.014-.459-.014s-.324.014-.485.014V324.2h.05c.246,0,.32-.167.32-.452v-1.5a.32.32,0,0,0-.324-.32h-.046v-.107c.135,0,.274.014.409.014.107,0,.21-.014.317-.014l1.586,1.785Z" transform="translate(-723.458 -313.879)" fill="#211e1f"/><path d="M743.651,323.773l-.147-.005-1.808-2.015v1.428c0,.31.051.4.32.4h.076v.138h-.016c-.154,0-.308-.014-.46-.014s-.323.014-.485.014h-.016v-.138h.066c.235,0,.3-.152.305-.437v-1.5a.305.305,0,0,0-.309-.305h-.062V321.2h.016c.136,0,.276.014.409.014.106,0,.209-.014.329-.008l1.566,1.763v-1.311c0-.284-.191-.318-.295-.32h-.094V321.2h.016c.168,0,.332.014.5.014.145,0,.291-.014.438-.014h.016v.137h-.069c-.147,0-.3.017-.3.437V323.4a2.334,2.334,0,0,0,.021.357l0,.018h-.018Zm-.135-.031h.118a2.369,2.369,0,0,1-.019-.344v-1.622c0-.428.179-.468.333-.468h.038v-.076c-.14,0-.281.014-.423.014-.163,0-.322-.013-.483-.014v.076h.063a.312.312,0,0,1,.326.351l0,1.347-.007.007-.012.011-1.585-1.792c-.106,0-.209.014-.317.014-.131,0-.264-.013-.394-.014v.076h.032a.335.335,0,0,1,.339.336v1.5c0,.285-.079.467-.336.468h-.034v.077c.154,0,.313-.014.469-.014s.3.013.444.014v-.076h-.045c-.281,0-.35-.123-.35-.433v-1.508l1.85,2.07Zm-.071-.74h0l.011-.01Zm-.008-.007h0l0,0Z" transform="translate(-722.828 -313.277)" fill="#211e1f"/><path d="M862.157,317.63c-.268,0-.278.064-.331.324h-.107c.014-.1.032-.2.043-.3a2.118,2.118,0,0,0,.021-.3h.086c.029.107.118.1.214.1h1.838c.1,0,.185,0,.193-.111l.085.014c-.014.1-.028.193-.039.289s-.006.192-.006.288l-.107.04c-.007-.132-.025-.343-.264-.343H863.2v1.9c0,.275.125.306.3.306h.068v.108c-.139,0-.389-.014-.581-.014-.214,0-.464.014-.6.014v-.108h.068c.2,0,.3-.018.3-.3v-1.9Z" transform="translate(-840.454 -309.512)" fill="#211e1f"/><path d="M862.861,319.24c-.14,0-.39-.014-.581-.014-.214,0-.463.014-.6.014h-.015V319.1h.083c.2,0,.276-.007.28-.283v-1.888h-.569V316.9h.6v1.919c0,.286-.115.315-.311.315h-.052v.075c.141,0,.38-.014.587-.014.186,0,.424.013.565.014v-.075h-.052c-.172,0-.311-.043-.311-.322V316.9h.6c.239,0,.27.2.278.337l.077-.028c0-.093,0-.186.007-.28s.023-.183.037-.274l-.054-.009c-.017.1-.117.109-.206.108h-1.856c-.084,0-.175,0-.207-.1H861.1a2.118,2.118,0,0,1-.021.289c-.01.1-.027.192-.04.286h.076c.047-.248.078-.329.343-.325v.031c-.263,0-.258.049-.316.313l0,.012H861l0-.019c.014-.1.032-.2.043-.3a2,2,0,0,0,.022-.3v-.016h.113l0,.011c.024.09.09.09.181.092h1.856c.1,0,.171,0,.178-.1v-.017l.016,0,.1.016,0,.016c-.014.1-.028.192-.039.287s-.007.191-.007.287v.011l-.01,0-.126.046v-.021c-.009-.134-.023-.328-.249-.328h-.569v1.88c0,.269.11.287.28.291h.083v.138Z" transform="translate(-839.753 -308.798)" fill="#211e1f"/><path d="M966.691,324.2h.05c.128,0,.264-.017.264-.2V322.13c0-.186-.136-.2-.264-.2h-.05v-.107c.217,0,.588.014.887.014s.67-.014.912-.014c-.006.153,0,.389.008.545l-.108.029c-.017-.231-.06-.417-.434-.417h-.495v.933h.424c.214,0,.26-.121.281-.314h.107q-.01.209-.011.417c0,.136,0,.271.011.406l-.107.021c-.021-.214-.032-.353-.278-.353h-.427v.83c0,.232.206.232.434.232.428,0,.616-.029.723-.435l.1.024c-.047.189-.089.378-.121.567-.228,0-.638-.014-.958-.014s-.745.014-.948.014V324.2Z" transform="translate(-942.836 -313.88)" fill="#211e1f"/><path d="M968,323.719c-.229,0-.638-.015-.958-.015s-.744.015-.948.015h-.015v-.138h.065c.129,0,.246-.013.248-.188v-1.867c0-.174-.119-.186-.248-.188h-.065V321.2h.015c.217,0,.588.014.887.014s.669-.014.912-.014h.016v.016c0,.054,0,.117,0,.184,0,.123,0,.258.011.36v.013l-.012,0-.125.033v-.018c-.021-.231-.052-.4-.419-.4h-.48v.9h.409c.205,0,.242-.107.266-.3v-.014h.137v.016c-.007.139-.011.278-.011.417s0,.27.011.406v.013l-.013,0-.124.025v-.017c-.025-.217-.026-.337-.263-.339h-.412v.815c0,.216.187.215.419.216.429,0,.6-.023.708-.423l0-.014.015,0,.114.029,0,.015c-.046.189-.089.377-.121.566l0,.013Zm-.013-.031h0c.031-.18.072-.36.115-.539l-.07-.018c-.107.4-.313.434-.734.432-.224,0-.449,0-.45-.247v-.845h.443c.249,0,.274.147.292.35l.077-.016c-.007-.131-.01-.263-.01-.394s0-.268.01-.4h-.077c-.02.186-.078.316-.295.314h-.44v-.965h.511c.371,0,.432.189.448.413l.077-.021c-.006-.1-.01-.23-.01-.349,0-.061,0-.119,0-.169-.242,0-.6.014-.9.014s-.653-.013-.872-.014v.076h.035c.127,0,.279.022.279.219v1.867c0,.2-.152.218-.279.219h-.035v.075c.208,0,.619-.014.932-.014s.716.013.945.014Z" transform="translate(-942.24 -313.277)" fill="#211e1f"/><path d="M1055.677,322.188c0-.26-.142-.271-.253-.271h-.064v-.107c.114,0,.335.014.552.014s.385-.014.573-.014c.449,0,.848.121.848.628a.673.673,0,0,1-.5.627l.609.912a.4.4,0,0,0,.346.214v.108c-.118,0-.232-.014-.349-.014s-.225.014-.335.014a9.987,9.987,0,0,1-.741-1.155h-.234v.763c0,.275.128.285.292.285h.064v.108c-.2,0-.409-.014-.613-.014-.171,0-.339.014-.517.014v-.108h.064c.132,0,.253-.06.253-.192v-1.811Zm.456.827h.174c.357,0,.548-.135.548-.556a.486.486,0,0,0-.52-.52,1.8,1.8,0,0,0-.2.014v1.062Z" transform="translate(-1029.317 -313.871)" fill="#211e1f"/><path d="M1057.177,323.7c-.119,0-.233-.014-.35-.014s-.222.014-.347.008a9.959,9.959,0,0,1-.738-1.148h-.211v.747c0,.268.111.266.276.27h.08v.138h-.016c-.2,0-.41-.014-.613-.014-.17,0-.337.014-.516.014h-.016v-.138h.08c.129,0,.237-.057.237-.177v-1.811c0-.253-.127-.252-.237-.255h-.08v-.138h.016c.115,0,.335.014.552.014s.384-.014.574-.014c.449,0,.863.125.864.642a.683.683,0,0,1-.488.635l.6.9a.382.382,0,0,0,.335.207l.013,0v.136h-.015Zm-1.66-1.185h.244l0,.008a11.1,11.1,0,0,0,.729,1.147c.109,0,.223-.015.334-.015s.224.012.335.014v-.078a.408.408,0,0,1-.343-.219l-.62-.928.018-.007a.656.656,0,0,0,.485-.614c0-.494-.384-.609-.832-.611-.188,0-.359.014-.574.014s-.421-.013-.537-.014v.076h.049c.111,0,.268.019.268.286v1.811c0,.143-.134.208-.268.209h-.049v.075c.172,0,.334-.014.5-.014.2,0,.4.014.6.014V323.6h-.049c-.163,0-.307-.02-.307-.3v-.778Zm0-.1h-.016v-1.091h.014a1.746,1.746,0,0,1,.2-.014.5.5,0,0,1,.536.536c0,.425-.205.57-.564.57h-.174Zm.175-.031h0c.353,0,.53-.126.534-.54a.472.472,0,0,0-.506-.506,1.517,1.517,0,0,0-.187.013v1.033Z" transform="translate(-1028.7 -313.259)" fill="#211e1f"/><path d="M1160.483,323.6l.006-.007v-1.336a.293.293,0,0,0-.309-.335h-.078v-.107c.167,0,.331.014.5.014.146,0,.292-.014.439-.014v.107h-.054c-.15,0-.317.028-.317.452V324a2.371,2.371,0,0,0,.021.36h-.135l-1.835-2.046v1.468c0,.31.061.417.335.417h.061v.107c-.153,0-.306-.014-.459-.014s-.325.014-.485.014V324.2h.049c.246,0,.321-.167.321-.452v-1.5a.319.319,0,0,0-.324-.32h-.046v-.107c.135,0,.275.014.41.014.106,0,.21-.014.317-.014l1.586,1.785Z" transform="translate(-1129.591 -313.879)" fill="#211e1f"/><path d="M1160.056,323.753l-.147,0-1.808-2.016v1.428c0,.31.051.4.32.4h.075v.138h-.016c-.154,0-.307-.015-.459-.015s-.324.015-.484.015h-.016v-.138h.066c.235,0,.3-.152.3-.438v-1.5a.3.3,0,0,0-.308-.305h-.062v-.138h.016c.136,0,.275.014.41.014.1,0,.208-.014.328-.009l1.566,1.764v-1.311c0-.283-.191-.318-.294-.32h-.094v-.138h.016c.168,0,.333.014.5.014.145,0,.292-.014.438-.014h.016v.138h-.068c-.147,0-.3.017-.3.437v1.622a2.28,2.28,0,0,0,.021.358l0,.017Zm-.135-.031h.117a2.42,2.42,0,0,1-.019-.344v-1.622c0-.428.181-.467.333-.468h.037v-.075c-.14,0-.281.014-.422.014-.164,0-.322-.013-.484-.014v.075h.063a.312.312,0,0,1,.326.351l0,1.347-.007.007-.011.011-1.586-1.792c-.106,0-.209.014-.317.014-.132,0-.265-.013-.395-.014v.075h.031a.336.336,0,0,1,.339.336v1.5c0,.286-.081.468-.336.469h-.035v.075c.154,0,.313-.014.469-.014s.3.013.445.014v-.075h-.045c-.281,0-.351-.123-.351-.433v-1.508l1.851,2.069Zm-.071-.74h0l.011-.01Zm-.009-.007h0l0,0Z" transform="translate(-1128.957 -313.257)" fill="#211e1f"/><path d="M1274.24,320.267a1.431,1.431,0,0,0-.079.278c0,.107.15.125.267.125h.04v.107c-.143-.008-.288-.014-.432-.014-.128,0-.256.006-.384.014v-.107h.021a.322.322,0,0,0,.309-.232l.571-1.635a3.032,3.032,0,0,0,.132-.442,1.813,1.813,0,0,0,.324-.153.081.081,0,0,1,.028-.007.025.025,0,0,1,.025.011c.01.028.021.06.032.089l.655,1.864c.043.125.085.256.131.363a.227.227,0,0,0,.236.142h.021v.107c-.16-.008-.321-.014-.491-.014s-.353.006-.535.014v-.107h.039c.082,0,.221-.014.221-.1a1.138,1.138,0,0,0-.072-.257l-.139-.413h-.808l-.114.371Zm.52-1.579h-.007l-.331,1.009h.666Z" transform="translate(-1242.222 -310.35)" fill="#211e1f"/><path d="M1275.523,320.179c-.16-.007-.321-.015-.49-.015s-.352.007-.534.015h-.016v-.139h.055c.083,0,.2-.019.2-.087a1.122,1.122,0,0,0-.07-.252l-.136-.4h-.786l-.111.36a1.5,1.5,0,0,0-.079.274c0,.087.134.108.253.108h.055v.139h-.016c-.143-.007-.288-.015-.43-.015s-.256.007-.384.015h-.016v-.139h.037a.305.305,0,0,0,.295-.221l.57-1.635a4.108,4.108,0,0,0,.142-.452,1.808,1.808,0,0,0,.323-.153.1.1,0,0,1,.034-.008.044.044,0,0,1,.039.021c.01.029.021.061.032.09l.656,1.864c.042.125.084.257.131.362a.209.209,0,0,0,.221.133h.036v.139Zm-1.01-.032h0c.177-.006.349-.013.519-.013s.32.007.475.013v-.074h0a.242.242,0,0,1-.25-.152c-.046-.108-.09-.24-.132-.365l-.656-1.863c-.011-.028-.021-.061-.031-.086,0,0,0,0-.005,0h-.007a.074.074,0,0,0-.021,0,1.322,1.322,0,0,1-.317.143,2.965,2.965,0,0,1-.132.445l-.57,1.636a.339.339,0,0,1-.324.243h-.006v.074c.122-.006.246-.013.369-.013s.278.007.414.013v-.074h-.023c-.116,0-.278-.015-.282-.14a1.4,1.4,0,0,1,.079-.283l.016,0-.016-.005.117-.381h.831l.143.424a1.08,1.08,0,0,1,.072.262c0,.109-.155.117-.236.119h-.024v.074Zm-.728-1.048h0l.341-1.039h.019v.016h0v-.016h.011l.338,1.039Zm.043-.031h.624l-.31-.955Zm.3-.989h0l.008,0Z" transform="translate(-1241.607 -309.737)" fill="#211e1f"/><path d="M1363.337,317.63c-.267,0-.278.064-.332.324h-.107c.014-.1.032-.2.043-.3a2.1,2.1,0,0,0,.021-.3h.086c.028.107.118.1.213.1h1.839c.1,0,.185,0,.192-.111l.085.014c-.014.1-.028.193-.039.289s-.008.192-.008.288l-.107.04c-.007-.132-.024-.343-.263-.343h-.584v1.9c0,.275.125.306.3.306h.068v.108c-.139,0-.388-.014-.581-.014-.214,0-.463.014-.6.014v-.108h.067c.2,0,.3-.018.3-.3v-1.9Z" transform="translate(-1329.266 -309.512)" fill="#211e1f"/><path d="M1364.027,319.241c-.14,0-.39-.014-.581-.014-.213,0-.463.014-.6.014h-.016V319.1h.083c.2,0,.275-.007.28-.283v-1.888h-.568V316.9h.6v1.919c0,.286-.115.314-.311.315h-.052v.076c.141,0,.38-.014.587-.014.186,0,.424.013.565.014v-.076h-.052c-.171,0-.31-.042-.311-.322V316.9h.6c.239,0,.271.2.277.336l.078-.028c0-.093,0-.186.007-.279s.023-.183.036-.274l-.054-.009c-.016.1-.117.109-.206.108h-1.857c-.084,0-.175,0-.207-.1h-.058a2.114,2.114,0,0,1-.022.29c-.009.1-.027.192-.04.286h.077c.047-.248.078-.329.344-.325v.031c-.264,0-.258.049-.317.313l0,.012h-.138l0-.018c.015-.1.033-.2.043-.3a2.048,2.048,0,0,0,.021-.3v-.016h.113l0,.011c.025.09.09.09.181.092h1.857c.1,0,.17,0,.176-.1v-.017l.017,0,.1.016,0,.016c-.015.1-.028.192-.039.287s-.007.191-.007.287v.011l-.01,0-.126.046v-.021c-.009-.134-.023-.328-.248-.328h-.569v1.881c0,.269.11.287.28.291h.083v.138Z" transform="translate(-1328.552 -308.799)" fill="#211e1f"/><path d="M1468.59,324.2h.05c.129,0,.263-.017.263-.2V322.13c0-.186-.135-.2-.263-.2h-.05v-.107c.139,0,.353.014.527.014s.393-.014.56-.014v.107h-.05c-.128,0-.264.018-.264.2V324c0,.186.136.2.264.2h.05v.108c-.171,0-.385-.014-.563-.014s-.385.014-.524.014Z" transform="translate(-1432.348 -313.88)" fill="#211e1f"/><path d="M1469.063,323.719c-.172,0-.385-.015-.563-.015s-.385.015-.524.015h-.016v-.138h.066c.129,0,.247-.013.247-.188v-1.867c0-.174-.119-.186-.247-.188h-.066V321.2h.016c.139,0,.353.014.527.014s.391-.014.56-.014h.015v.137h-.065c-.13,0-.247.014-.249.188v1.867c0,.174.119.186.249.188h.065v.138Zm-.016-.031h0v-.075h-.034c-.128,0-.279-.022-.279-.219v-1.867c0-.2.151-.219.279-.219h.034v-.076c-.165,0-.37.014-.544.014s-.373-.013-.511-.014v.076h.034c.127,0,.278.022.279.219v1.867c0,.2-.152.219-.279.219h-.034v.075c.137,0,.339-.014.508-.014s.379.013.547.014Z" transform="translate(-1431.734 -313.277)" fill="#211e1f"/><path d="M1518.215,319.66a1.25,1.25,0,0,1,1.365,1.23,1.307,1.307,0,0,1-1.346,1.365,1.259,1.259,0,0,1-1.333-1.279,1.3,1.3,0,0,1,1.314-1.315Zm.054,2.437h0c.691,0,.812-.61.812-1.129s-.281-1.151-.872-1.151c-.624,0-.809.556-.809,1.033,0,.638.292,1.248.87,1.248Z" transform="translate(-1479.469 -311.774)" fill="#211e1f"/><path d="M1516.25,320.361a1.314,1.314,0,0,1,1.33-1.331v.031a1.282,1.282,0,0,0-1.3,1.3,1.245,1.245,0,0,0,1.318,1.263,1.292,1.292,0,0,0,1.332-1.349,1.235,1.235,0,0,0-1.35-1.214v-.031a1.267,1.267,0,0,1,1.38,1.245,1.324,1.324,0,0,1-1.362,1.38,1.278,1.278,0,0,1-1.349-1.294h0Zm.5-.125h0c0-.479.188-1.049.824-1.049.6,0,.887.644.888,1.167s-.123,1.144-.827,1.144v-.03c.677,0,.795-.594.8-1.114s-.278-1.135-.857-1.136c-.611,0-.792.543-.794,1.017,0,.635.29,1.231.854,1.232v.03c-.592,0-.884-.621-.885-1.263Z" transform="translate(-1478.834 -311.159)" fill="#211e1f"/><path d="M1631.223,323.6l.007-.007v-1.336a.294.294,0,0,0-.311-.335h-.077v-.107c.167,0,.331.014.5.014.147,0,.293-.014.439-.014v.107h-.054c-.149,0-.317.028-.317.452V324a2.292,2.292,0,0,0,.022.36h-.135l-1.835-2.046v1.468c0,.31.06.417.335.417h.061v.107c-.153,0-.306-.014-.459-.014s-.325.014-.485.014V324.2h.05c.246,0,.32-.167.32-.452v-1.5a.319.319,0,0,0-.324-.32h-.046v-.107c.135,0,.274.014.41.014.107,0,.21-.014.317-.014l1.586,1.785Z" transform="translate(-1588.72 -313.879)" fill="#211e1f"/><path d="M1630.833,323.772l-.147-.005-1.808-2.015v1.428c0,.31.051.4.319.4h.077v.138h-.016c-.154,0-.307-.014-.46-.014s-.323.014-.485.014h-.015v-.138h.065c.235,0,.3-.152.305-.436v-1.5a.3.3,0,0,0-.309-.305h-.061V321.2h.015c.137,0,.275.014.41.014.106,0,.208-.014.329-.008l1.566,1.763v-1.311c0-.284-.191-.318-.3-.32h-.094V321.2h.016c.168,0,.332.014.5.014.146,0,.292-.014.439-.014h.016v.137h-.069c-.146,0-.3.018-.3.437V323.4a2.371,2.371,0,0,0,.02.358l0,.017h-.017Zm-.135-.031h.116a2.461,2.461,0,0,1-.018-.344v-1.622c0-.428.18-.467.332-.468h.038v-.075c-.141,0-.281.014-.424.014-.162,0-.321-.013-.483-.014v.075h.062a.313.313,0,0,1,.325.351l0,1.347-.007.007-.011.011-1.586-1.792c-.105,0-.209.014-.317.014-.131,0-.265-.013-.395-.014v.075h.031a.336.336,0,0,1,.34.336v1.5c0,.285-.08.467-.336.468h-.035v.075c.155,0,.313-.014.47-.014s.3.013.444.014v-.075h-.046c-.28,0-.35-.123-.35-.433v-1.508l1.851,2.07Zm-.072-.74h0l.011-.01Zm-.008-.007h0l0,0Z" transform="translate(-1588.123 -313.277)" fill="#211e1f"/><path d="M1745.017,320.267a1.5,1.5,0,0,0-.078.278c0,.107.15.125.267.125h.04v.107c-.143-.008-.289-.014-.431-.014s-.256.006-.384.014v-.107h.021a.322.322,0,0,0,.31-.232l.571-1.635a2.939,2.939,0,0,0,.131-.442,1.841,1.841,0,0,0,.325-.153.076.076,0,0,1,.028-.007.023.023,0,0,1,.025.011c.011.028.022.06.033.089l.655,1.864c.043.125.085.256.132.363a.226.226,0,0,0,.235.142h.022v.107c-.161-.008-.321-.014-.492-.014s-.353.006-.534.014v-.107h.04c.081,0,.221-.014.221-.1a1.138,1.138,0,0,0-.072-.257l-.138-.413h-.809l-.114.371Zm.521-1.579h-.007l-.332,1.009h.667Z" transform="translate(-1701.385 -310.35)" fill="#211e1f"/><path d="M1746.3,320.2c-.16-.006-.32-.014-.491-.014s-.352.008-.534.014h-.016v-.139h.054c.083,0,.206-.019.206-.088a1.14,1.14,0,0,0-.071-.252l-.135-.4h-.787l-.11.36a1.481,1.481,0,0,0-.077.273c0,.087.133.109.251.109h.054v.139h-.016c-.143-.006-.288-.014-.43-.014s-.256.008-.384.014h-.016v-.139h.036a.308.308,0,0,0,.3-.221l.57-1.635a4.674,4.674,0,0,0,.141-.451,1.9,1.9,0,0,0,.324-.153.092.092,0,0,1,.034-.007.04.04,0,0,1,.039.021c.011.028.021.06.033.089l.655,1.864c.043.125.085.257.131.363a.21.21,0,0,0,.22.133h.037v.139Zm-1.01-.031h0c.176-.007.35-.014.519-.014s.321.007.476.013v-.074h-.006a.243.243,0,0,1-.249-.152c-.047-.108-.089-.24-.132-.365l-.656-1.864c-.011-.028-.021-.061-.03-.085,0,0,0,0-.005,0h-.007a.069.069,0,0,0-.02,0,1.368,1.368,0,0,1-.318.142,3.048,3.048,0,0,1-.133.445l-.571,1.636a.339.339,0,0,1-.324.243h-.005v.074c.123-.006.245-.013.369-.013s.279.007.416.013v-.074h-.024c-.116,0-.279-.014-.283-.141a1.5,1.5,0,0,1,.079-.282l.015,0-.015-.005.117-.381h.831l.143.424a1.1,1.1,0,0,1,.072.262c-.005.109-.155.117-.236.119h-.023v.075Zm-.728-1.049h0l.342-1.039h.019v.016h0v-.016h.011l.337,1.039Zm.043-.031h.623l-.31-.954-.313.954Zm.3-.989h0l.007,0Z" transform="translate(-1700.77 -309.757)" fill="#211e1f"/><path d="M1850.886,323.958c0,.143.1.185.213.2a2.582,2.582,0,0,0,.471-.007.51.51,0,0,0,.341-.192.811.811,0,0,0,.11-.257h.1c-.039.2-.089.4-.132.606-.313,0-.627-.014-.94-.014s-.627.014-.941.014V324.2h.049c.129,0,.268-.017.268-.238V322.13c0-.186-.139-.2-.268-.2h-.049v-.107c.188,0,.374.014.562.014s.36-.014.542-.014v.107h-.09c-.135,0-.241,0-.241.192v1.839Z" transform="translate(-1804.456 -313.88)" fill="#211e1f"/><path d="M1851.367,323.72c-.314,0-.627-.014-.94-.014s-.627.014-.941.014h-.015v-.138h.065c.129,0,.251-.012.253-.223v-1.832c0-.173-.123-.185-.253-.188h-.065V321.2h.015c.189,0,.375.014.563.014s.359-.014.542-.014h.015v.137h-.1c-.138,0-.224,0-.227.177v1.839c0,.133.088.169.2.184.063,0,.129.007.2.007a2.528,2.528,0,0,0,.27-.014.5.5,0,0,0,.332-.186.8.8,0,0,0,.108-.252l0-.012h.134l0,.019c-.04.2-.089.4-.132.606l0,.012h-.012Zm-.013-.031h0c.041-.193.088-.382.126-.575h-.073a.821.821,0,0,1-.11.251.528.528,0,0,1-.353.2,2.689,2.689,0,0,1-.273.015c-.069,0-.136,0-.2-.008-.116-.013-.228-.062-.228-.215v-1.839c0-.2.125-.208.258-.208h.074v-.076c-.176,0-.349.014-.526.014s-.365-.013-.548-.014v.076h.034c.127,0,.283.022.283.218v1.832c0,.231-.155.254-.283.254h-.034v.075c.308,0,.616-.014.926-.014s.619.013.927.014Z" transform="translate(-1803.83 -313.278)" fill="#211e1f"/><path d="M1915,317.72a.375.375,0,1,1-.375.377A.369.369,0,0,1,1915,317.72Zm0,.681h0a.305.305,0,1,0-.3-.3A.3.3,0,0,0,1915,318.4Zm-.187-.107h0v-.019c.046-.006.055,0,.055-.034v-.278c0-.039,0-.052-.053-.05v-.019h.192c.066,0,.127.031.127.1a.118.118,0,0,1-.089.113l.062.086a.382.382,0,0,0,.083.088v.012h-.073c-.035,0-.066-.074-.135-.173h-.042v.125c0,.025.009.023.055.03v.019Zm.127-.2h.044c.048,0,.071-.037.071-.1a.07.07,0,0,0-.073-.081h-.042Z" transform="translate(-1867.379 -309.88)" fill="#211e1f"/></g></g></svg>