<svg xmlns="http://www.w3.org/2000/svg" width="48" height="24" viewBox="0 0 48 24"><g transform="translate(-3723 -1381)"><rect width="48" height="24" transform="translate(3723 1381)" fill="none"/><g transform="translate(3723 1215.8)"><circle cx="4.038" cy="4.038" r="4.038" transform="translate(21.432 169.278)" fill="#ef9122"/><path d="M221.6,174.038a4.038,4.038,0,1,1,4.038,4.038" transform="translate(-200.168 -0.722)" fill="#f26e21"/><path d="M234.4,171.165a4.008,4.008,0,0,1,5.668,5.668" transform="translate(-211.727 -0.722)" fill="#f44500"/><path d="M2.174,172.4H0v7.609H2.174a4.212,4.212,0,0,0,2.718-.854,3.84,3.84,0,0,0,1.4-2.951C6.289,173.953,4.659,172.4,2.174,172.4Zm1.786,5.746a2.984,2.984,0,0,1-2.019.621H1.475V173.72h.388a2.635,2.635,0,0,1,2.019.621,2.48,2.48,0,0,1,.854,1.864A2.321,2.321,0,0,1,3.96,178.146Z" transform="translate(0 -2.889)" fill="#595a5b"/><rect width="1.475" height="7.609" transform="translate(6.988 169.511)" fill="#595a5b"/><path d="M96.706,174.628c-.932-.311-1.165-.544-1.165-.932a.983.983,0,0,1,1.087-.854,1.5,1.5,0,0,1,1.242.621l.776-1.009A3.383,3.383,0,0,0,96.4,171.6a2.278,2.278,0,0,0-2.407,2.174c0,1.087.466,1.553,1.864,2.1a3.019,3.019,0,0,1,1.009.466.854.854,0,0,1,.466.776,1.082,1.082,0,0,1-1.165,1.087,1.811,1.811,0,0,1-1.631-1.009l-.932.932a3.045,3.045,0,0,0,2.64,1.475,2.449,2.449,0,0,0,2.64-2.485C98.88,175.793,98.414,175.249,96.706,174.628Z" transform="translate(-84.545 -2.167)" fill="#595a5b"/><path d="M152.8,173.315a3.945,3.945,0,0,0,4.038,3.96,4.392,4.392,0,0,0,1.864-.466v-1.786a2.414,2.414,0,0,1-1.786.854,2.509,2.509,0,0,1-2.562-2.64,2.539,2.539,0,0,1,2.485-2.64,2.448,2.448,0,0,1,1.864.854v-1.786a3.9,3.9,0,0,0-1.864-.466A4.292,4.292,0,0,0,152.8,173.315Z" transform="translate(-138.019)" fill="#3b3d3f"/><path d="M305.249,177.525l-2.019-5.125H301.6l3.184,7.842h.854l3.339-7.842h-1.631Z" transform="translate(-272.428 -2.889)"/><path d="M384,180.009h4.271v-1.242h-2.718v-2.1h2.64v-1.32h-2.64V173.72h2.718V172.4H384Z" transform="translate(-346.871 -2.889)"/><g transform="translate(0 169.511)"><path d="M441.584,176.826a2.049,2.049,0,0,0,1.786-2.174c0-1.4-1.009-2.252-2.718-2.252H438.4v7.609h1.475v-3.028h.233l2.1,3.028h1.786Zm-1.242-.932h-.466v-2.329h.466c.932,0,1.475.388,1.475,1.165S441.273,175.894,440.341,175.894Z" transform="translate(-395.991 -172.4)" fill="#595a5b"/><path d="M2.174,172.4H0v7.609H2.174a4.212,4.212,0,0,0,2.718-.854,3.84,3.84,0,0,0,1.4-2.951C6.289,173.953,4.659,172.4,2.174,172.4Zm1.786,5.746a2.984,2.984,0,0,1-2.019.621H1.475V173.72h.388a2.635,2.635,0,0,1,2.019.621,2.48,2.48,0,0,1,.854,1.864A2.321,2.321,0,0,1,3.96,178.146Z" transform="translate(0 -172.4)" fill="#595a5b"/></g><g transform="translate(6.988 169.511)"><rect width="1.475" height="7.609" transform="translate(0 0)" fill="#595a5b"/></g><g transform="translate(9.049 169.433)"><path d="M96.706,174.628c-.932-.311-1.165-.544-1.165-.932a.983.983,0,0,1,1.087-.854,1.5,1.5,0,0,1,1.242.621l.776-1.009A3.383,3.383,0,0,0,96.4,171.6a2.278,2.278,0,0,0-2.407,2.174c0,1.087.466,1.553,1.864,2.1a3.019,3.019,0,0,1,1.009.466.854.854,0,0,1,.466.776,1.082,1.082,0,0,1-1.165,1.087,1.811,1.811,0,0,1-1.631-1.009l-.932.932a3.045,3.045,0,0,0,2.64,1.475,2.449,2.449,0,0,0,2.64-2.485C98.88,175.793,98.414,175.249,96.706,174.628Z" transform="translate(-93.6 -171.6)" fill="#595a5b"/><path d="M157.615,187.388a4.392,4.392,0,0,0,1.864-.466v-1.786a2.414,2.414,0,0,1-1.786.854,2.509,2.509,0,0,1-2.562-2.64,2.9,2.9,0,0,1,.776-1.941L154.9,180.4a4.04,4.04,0,0,0-1.32,2.951A3.873,3.873,0,0,0,157.615,187.388Z" transform="translate(-147.754 -179.546)" fill="#595a5b"/></g><path d="M441.584,176.826a2.049,2.049,0,0,0,1.786-2.174c0-1.4-1.009-2.252-2.718-2.252H438.4v7.609h1.475v-3.028h.233l2.1,3.028h1.786Zm-1.242-.932h-.466v-2.329h.466c.932,0,1.475.388,1.475,1.165S441.273,175.894,440.341,175.894Z" transform="translate(-395.991 -2.889)"/><g transform="translate(10.876 179.87)"><path d="M112.8,283.871V279.6l2.951,3.028v-2.8h.621V284.1l-2.951-3.028v2.8Z" transform="translate(-112.8 -279.6)" fill="#f26e21"/><path d="M160.652,282.621h-1.631v.932h1.553v.621h-1.553v1.32h1.631v.544H158.4V282h2.252Z" transform="translate(-153.974 -281.767)" fill="#f26e21"/><path d="M187.153,283.344v3.417h-.621v-3.417H185.6V282.8h2.485v.544Z" transform="translate(-178.534 -282.489)" fill="#f26e21"/><path d="M215.021,281.355l1.009,2.718,1.087-2.873,1.009,2.873,1.087-2.718h.776l-1.786,4.271-1.009-2.873-1.087,2.873-1.708-4.271Z" transform="translate(-204.539 -281.045)" fill="#f26e21"/><path d="M272.8,283.3a2.086,2.086,0,1,1,2.1,2.1,1.871,1.871,0,0,1-1.4-.544A1.851,1.851,0,0,1,272.8,283.3Zm.621,0a1.41,1.41,0,0,0,.466,1.087,1.367,1.367,0,0,0,1.009.466,1.533,1.533,0,0,0,1.087-.466,1.553,1.553,0,0,0-1.087-2.64,1.533,1.533,0,0,0-1.087.466A1.855,1.855,0,0,0,273.421,283.3Z" transform="translate(-257.271 -281.045)" fill="#f26e21"/><path d="M325.4,284.329l1.242,1.708h-.776l-1.165-1.631h-.078v1.631H324V282h.7a1.612,1.612,0,0,1,1.165.311,1.247,1.247,0,0,1,.388.854.949.949,0,0,1-.233.7A.728.728,0,0,1,325.4,284.329Zm-.776-.466h.155c.544,0,.854-.233.854-.621s-.311-.621-.854-.621h-.233v1.242Z" transform="translate(-303.501 -281.767)" fill="#f26e21"/><path d="M356.7,282.908l1.553-1.631h.776l-1.786,1.786,1.786,2.174h-.776l-1.475-1.786-.155.155v1.631H356V281.2h.621v1.708Z" transform="translate(-332.395 -281.045)" fill="#f26e21"/></g><g transform="translate(29.132 169.511)"><path d="M386.951,210.551h-1.4v-1.4L384,207.6v4.193h4.193Z" transform="translate(-376.002 -204.184)" fill="#3b3d3f"/><path d="M306.958,173.176l-1.708,4.348-2.019-5.125H301.6l3.184,7.842h.854l2.485-5.9Z" transform="translate(-301.6 -172.4)" fill="#3b3d3f"/></g></g></g></svg>