<svg xmlns="http://www.w3.org/2000/svg" width="17.953" height="18" viewBox="0 0 17.953 18"><g transform="translate(-0.513 0)"><g transform="translate(3.093 2.559)"><g transform="translate(0 0)"><rect width="11.883" height="6.279" transform="translate(0 8.403) rotate(-45)" fill="#333"/></g></g><g transform="translate(12.25 0)"><g transform="translate(0 0)"><path d="M265.233,3.624,261.907.251a.819.819,0,0,0-1.156-.024l-.024.024-1.463,1.463,4.506,4.529,1.463-1.463A.8.8,0,0,0,265.233,3.624Z" transform="translate(-259.265 0)" fill="#333"/></g></g><g transform="translate(0.513 11.884)"><g transform="translate(0)"><path d="M2.432,261.954l-1.864,5a.819.819,0,0,0,.472,1.062.845.845,0,0,0,.59,0l5-1.887Z" transform="translate(-0.513 -261.954)" fill="#333"/></g></g></g></svg>