<svg xmlns="http://www.w3.org/2000/svg" width="22.138" height="22.137" viewBox="0 0 22.138 22.137"><g transform="translate(0.478 0)"><path d="M18.6,3.126a11.137,11.137,0,0,0-15.474,0A11.136,11.136,0,1,0,18.874,18.875,11.137,11.137,0,0,0,18.6,3.126ZM18.35,18.35h0A10.394,10.394,0,1,1,21.394,11a10.394,10.394,0,0,1-3.044,7.35Z" transform="translate(-0.341)"/><g transform="translate(5.068 7.046)"><path d="M10.84,85.333H1.26A1.262,1.262,0,0,0,0,86.593v5.546A1.262,1.262,0,0,0,1.26,93.4h9.58a1.262,1.262,0,0,0,1.26-1.26V86.593a1.262,1.262,0,0,0-1.26-1.26Zm.756,6.806a.757.757,0,0,1-.756.756H1.26a.757.757,0,0,1-.76-.756V86.593a.757.757,0,0,1,.756-.756H10.84a.757.757,0,0,1,.756.756Z" transform="translate(0 -85.333)"/><g transform="translate(1.008 1.008)"><path d="M52.709,128.11a.252.252,0,0,0-.35-.066l-4.135,2.829a.9.9,0,0,1-1.025,0l-4.135-2.829a.252.252,0,1,0-.284.416l4.135,2.829a1.4,1.4,0,0,0,1.594,0l4.135-2.829A.252.252,0,0,0,52.709,128.11Z" transform="translate(-42.67 -128)"/></g><g transform="translate(1.008 4.033)"><path d="M46.117,256.086a.253.253,0,0,0-.355-.032l-3.025,2.521a.252.252,0,0,0,.323.388l3.025-2.521A.253.253,0,0,0,46.117,256.086Z" transform="translate(-42.646 -255.996)"/></g><g transform="translate(7.563 4.033)"><path d="M323.44,258.574l-3.025-2.521a.252.252,0,0,0-.323.388l3.025,2.521a.252.252,0,1,0,.323-.388Z" transform="translate(-320.001 -255.995)"/></g></g></g></svg>