<svg xmlns="http://www.w3.org/2000/svg" width="28" height="20" viewBox="0 0 28 20"><g transform="translate(-22214 636)"><rect width="28" height="20" transform="translate(22214 -636)" fill="none"/><g transform="translate(-7 -0.623)"><g transform="translate(23875 -644)" fill="#fff" stroke-linejoin="round"><path d="M -1631.499877929688 27.49990081787109 L -1650.499633789063 27.49990081787109 L -1650.499633789063 17.50009918212891 L -1631.499877929688 17.50009918212891 L -1631.499877929688 27.49990081787109 Z" stroke="none"/><path d="M -1631.999877929688 26.99990081787109 L -1631.999877929688 18.00009918212891 L -1649.999633789063 18.00009918212891 L -1649.999633789063 26.99990081787109 L -1631.999877929688 26.99990081787109 M -1630.999877929688 27.99990081787109 L -1631.000854492188 27.99990081787109 L -1650.999633789063 27.99990081787109 L -1650.999633789063 17.00009918212891 L -1630.999877929688 17.00009918212891 L -1630.999877929688 27.99889945983887 L -1630.999877929688 27.99990081787109 Z" stroke="none" fill="#707070"/></g><rect width="18" height="10.377" transform="translate(22225 -635.377)" fill="#fff"/></g><g transform="translate(-1.999 2)"><path d="M1927.059,584.657l-4.235-3.218-3.912,3.5" transform="translate(20306.088 -1215.439)" fill="none" stroke="#707070" stroke-width="2"/><rect width="2" height="12.14" transform="translate(22228 -634)" fill="#707070"/></g></g></svg>