<svg xmlns="http://www.w3.org/2000/svg" width="28" height="20" viewBox="0 0 28 20"><g transform="translate(-22328 798)"><g transform="translate(113 298)"><rect width="28" height="20" transform="translate(22215 -1096)" fill="none"/><g transform="translate(-3 1)"><g transform="translate(21981 -1225)"><g transform="translate(237 130)" fill="#fff" stroke="#707070" stroke-width="1"><rect width="28" height="16" stroke="none"/><rect x="0.5" y="0.5" width="27" height="15" fill="none"/></g></g></g></g><g transform="translate(22332.57 -859.081)"><g transform="translate(7.393 68.943)"><g transform="translate(0 0)"><path d="M197.3,192.662a.41.41,0,0,0-.579.579,2.457,2.457,0,1,1-3.475,3.475.41.41,0,0,0-.579.579,3.276,3.276,0,1,0,4.633-4.633Z" transform="translate(-192.55 -192.542)" fill="#707070"/></g></g><g transform="translate(6.553 68.103)"><g transform="translate(0 0)"><path d="M174.515,170.716a3.244,3.244,0,0,0-3.847,3.22,3.207,3.207,0,0,0,.057.571.41.41,0,0,0,.4.338.363.363,0,0,0,.072-.007.41.41,0,0,0,.332-.474,2.374,2.374,0,0,1-.044-.428,2.428,2.428,0,0,1,2.886-2.414.409.409,0,1,0,.143-.806Z" transform="translate(-170.668 -170.659)" fill="#707070"/></g></g><g transform="translate(5.123 66.79)"><g transform="translate(0 0)"><path d="M147.873,140.786a19.9,19.9,0,0,0-5.364-4.279.41.41,0,1,0-.376.728,19.247,19.247,0,0,1,4.878,3.815c-.976,1.057-4.819,4.915-8.869,4.915a9.443,9.443,0,0,1-4.119-.987.409.409,0,0,0-.355.737,10.242,10.242,0,0,0,4.474,1.069c5.047,0,9.544-5.246,9.733-5.469A.409.409,0,0,0,147.873,140.786Z" transform="translate(-133.435 -136.461)" fill="#707070"/></g></g><g transform="translate(0 65.646)"><g transform="translate(0 0)"><path d="M12.517,107.131a8.457,8.457,0,0,0-2.688-.472c-5.047,0-9.544,5.246-9.733,5.469a.41.41,0,0,0-.023.5,15.206,15.206,0,0,0,3.757,3.562.407.407,0,0,0,.567-.115.408.408,0,0,0-.115-.567,14.979,14.979,0,0,1-3.344-3.092c.943-1.024,4.811-4.937,8.891-4.937a7.667,7.667,0,0,1,2.426.428.4.4,0,0,0,.519-.257A.409.409,0,0,0,12.517,107.131Z" transform="translate(0 -106.659)" fill="#707070"/></g></g><g transform="translate(2.457 64.008)"><g transform="translate(0 0)"><path d="M78.62,64.128a.41.41,0,0,0-.579,0L64.116,78.053a.41.41,0,0,0,.579.579L78.62,64.707A.41.41,0,0,0,78.62,64.128Z" transform="translate(-63.996 -64.008)" fill="#707070"/></g></g></g></g></svg>