<svg xmlns="http://www.w3.org/2000/svg" width="350.032" height="180" viewBox="0 0 350.032 180"><rect width="24.047" height="178.515" transform="translate(240.67)" fill="#9bc1f9" opacity="0.6"/><rect width="24.047" height="129.346" transform="translate(208.542 49.169)" fill="#9bc1f9" opacity="0.6"/><rect width="24.047" height="145.795" transform="translate(273.254 32.72)" fill="#9bc1f9" opacity="0.6"/><rect width="24.047" height="151.527" transform="translate(176.422 26.988)" fill="#9bc1f9" opacity="0.6"/><rect width="24.047" height="106.598" transform="translate(144.295 71.917)" fill="#9bc1f9" opacity="0.6"/><rect width="24.047" height="143.228" transform="translate(240.67 35.294)" fill="#9bc1f9" opacity="0.3"/><rect width="24.047" height="99.538" transform="translate(208.542 78.977)" fill="#9bc1f9" opacity="0.3"/><rect width="24.047" height="112.195" transform="translate(273.254 66.319)" fill="#9bc1f9" opacity="0.3"/><rect width="24.047" height="116.606" transform="translate(176.422 61.909)" fill="#9bc1f9" opacity="0.3"/><rect width="24.047" height="82.036" transform="translate(144.295 96.486)" fill="#9bc1f9" opacity="0.3"/><path d="M372.666,1.91,353.508,16.4l7.307.47-45.735,80.5L289.749,59.4l-35.824,83.559-23.039-32.726-28.726,40.6,1.814,7.262,26.9-37.839,24.36,34.592,35.689-83.253L315.5,108.433l50.638-89.119,4.694,5.053Z" transform="translate(-66.07 -0.485)" fill="#5183bf"/><path d="M1590.731,1101.529c-27.495-21.89-50.6-50.213-68.095-83.469l-37.817,30.383c20.226,38.451,46.937,71.192,78.73,96.508Z" transform="translate(-1461.758 -976.832)" fill="#3c8f7c"/><path d="M1519.034,1028.7l-23.494,19.173c1.866,3.478,1.187,8.172-1.59,10.546,17.785,31.443,40.063,58.758,66.013,80.917a6.023,6.023,0,0,1,8.956-1.493l17.166-26.958c-2.642-2.149-3.023-6.53-.9-9.7a263.822,263.822,0,0,1-57.968-71.058A5.11,5.11,0,0,1,1519.034,1028.7Z" transform="translate(-1464.074 -979.531)" fill="#96d9c9"/><path d="M1560.955,1114.6c5.874-7.575,5.814-18.755.276-25.442s-15.039-6.986-21.6-.239-7.18,18.658-.94,26.2S1555.067,1122.159,1560.955,1114.6Z" transform="translate(-1476.981 -990.889)" fill="#50bfa5"/><path d="M1562.758,1095.272c-.746.821-1.493,1.635-2.239,2.456,1.761,3.239,1.388,6.583-.515,8.762s-4.075,2.4-7.351.463c-2.381-1.344-3.523-1.746-4.254-.955-.612.664-.813,1.866.485,3.515a9.133,9.133,0,0,0,2.037,1.9,2.239,2.239,0,0,1,.582,2.8h0a1.575,1.575,0,0,1-2.344.687,12.951,12.951,0,0,1-2.149-1.993l-1.918,2.112c-.664-.843-1.328-1.679-1.993-2.53l2.09-2.239c-1.687-3.254-1.351-6.485.6-8.545,2.157-2.239,4.657-1.567,7.516.224,1.985,1.239,3.135,1.44,3.963.522s.582-2.44-.507-3.829a9.753,9.753,0,0,0-2.478-2.239,2.112,2.112,0,0,1-.507-2.8l.06-.1a1.6,1.6,0,0,1,2.239-.694,13.163,13.163,0,0,1,2.717,2.418l2.082-2.239C1561.527,1093.713,1562.139,1094.5,1562.758,1095.272Z" transform="translate(-1479.394 -992.943)" fill="#3c8f7c"/><path d="M1591.831,1145.329q-9.4-8.045-18.106-17.039l-2.985,3.873q8.822,9.113,18.352,17.278Z" transform="translate(-1487.305 -1003.179)" fill="#50bfa5"/><path d="M1579.2,1106.5a267.293,267.293,0,0,1-99.829-34.062q-8.956,21-17.912,41.988c36.331,20.949,75.491,34.331,115.42,39.376Z" transform="translate(-1455.833 -990.627)" fill="#3c8f7c"/><path d="M1480.048,1083.717l-10.978,26.316c3.314,1.881,5.023,5.918,3.776,9.12a306.745,306.745,0,0,0,96.776,33.017,6.045,6.045,0,0,1,7.075-5.418q.843-14.74,1.672-29.495a6.746,6.746,0,0,1-5.53-7.284A269.427,269.427,0,0,1,1487.855,1081a5.336,5.336,0,0,1-7.807,2.717Z" transform="translate(-1457.763 -992.798)" fill="#96d9c9"/><path d="M1556.875,1133.816a18.761,18.761,0,0,0-12.2-20.315,14.494,14.494,0,0,0-18.837,10.016c-2.388,8.441,2.918,18.225,12,21.233S1555.495,1142.6,1556.875,1133.816Z" transform="translate(-1472.018 -999.102)" fill="#50bfa5"/><path d="M1549.078,1118.05l-.746,2.985c3.112,1.731,4.426,4.568,3.844,7.195s-2.358,3.836-6.15,3.844c-2.717.06-3.9.284-4.15,1.246-.209.821.209,1.873,2.135,2.56a9.425,9.425,0,0,0,2.7.552,2.037,2.037,0,0,1,1.873,1.948h0a1.553,1.553,0,0,1-1.7,1.649,12.69,12.69,0,0,1-2.836-.567l-.627,2.582-2.985-1.06c.239-.925.47-1.851.7-2.776-3.052-1.791-4.344-4.515-3.65-7.075.746-2.814,3.269-3.448,6.627-3.373,2.321.045,3.418-.343,3.679-1.493s-.687-2.239-2.314-2.806a10.167,10.167,0,0,0-3.232-.59,1.948,1.948,0,0,1-1.806-1.985v-.112a1.575,1.575,0,0,1,1.612-1.612,14.361,14.361,0,0,1,3.537.634c.231-.925.455-1.851.687-2.776Z" transform="translate(-1477.703 -1000.07)" fill="#3c8f7c"/><path d="M1592.743,1023.967a21.167,21.167,0,0,1-2.463-.985,12.636,12.636,0,0,0-2.8-1.052c-1.552-.239-4.217-.075-5.687,1.493-1.836,1.978-5.09.358-4.433,10.74.746,11.747,7.292,10.449,7.463,10.255s5.844-7.515,5.844-7.515,1.985,4.336,1.985,4.179S1602.781,1027.341,1592.743,1023.967Z" transform="translate(-1489.159 -972.569)" fill="#0e2e35"/><path d="M1577.188,1128.47c-27.167,10.732-57.146,15.673-88.358,14.464q3.1,19.919,6.209,39.839c36.085,1.358,70.752-4.314,102.172-16.725Q1587.2,1147.255,1577.188,1128.47Z" transform="translate(-1462.776 -1004.84)" fill="#3c8f7c"/><path d="M1493.21,1152.011l4.075,24.875c3.276.1,6.374,2.53,6.941,5.515a248.592,248.592,0,0,0,85.656-14.023,5.008,5.008,0,0,1,2.672-7.09l-12.322-23.517c-2.642,1.015-5.97-.53-7.374-3.381a219.207,219.207,0,0,1-75.222,12.314A4.275,4.275,0,0,1,1493.21,1152.011Z" transform="translate(-1463.887 -1006.342)" fill="#96d9c9"/><path d="M1570.675,1163.615c-3.023-7.366-11.105-11.941-18.218-10.74s-11.262,7.941-9.128,15.464,10.493,12.919,18.494,11.531S1573.7,1170.973,1570.675,1163.615Z" transform="translate(-1479.377 -1010.983)" fill="#50bfa5"/><path d="M1557.414,1155.77l.851,2.612a6.3,6.3,0,0,1,6.1,4c.791,2.276,0,3.926-2.717,5.485-1.956,1.157-2.717,1.821-2.456,2.664.224.746,1.008,1.366,2.732,1.112a7.46,7.46,0,0,0,2.239-.679,1.843,1.843,0,0,1,2.239.746h0a1.321,1.321,0,0,1-.485,1.978,10.791,10.791,0,0,1-2.328.746c.246.746.485,1.493.746,2.239l-2.65.388-.746-2.44c-3.045-.134-5.224-1.717-5.9-3.978-.746-2.493.791-4.008,3.276-5.321,1.717-.918,2.328-1.672,2.015-2.642s-1.493-1.433-2.985-1.217a8.044,8.044,0,0,0-2.635.858,1.746,1.746,0,0,1-2.239-.8l-.052-.082a1.328,1.328,0,0,1,.433-1.9,10.739,10.739,0,0,1,2.874-.955c-.261-.813-.515-1.627-.746-2.441C1555.779,1156.016,1556.6,1155.889,1557.414,1155.77Z" transform="translate(-1481.943 -1011.765)" fill="#3c8f7c"/><path d="M1604.278,1157.25q-9.7,3.441-19.778,5.971c.522,1.246,1.037,2.5,1.56,3.732q10.21-2.575,20.054-6.068Z" transform="translate(-1491.244 -1012.141)" fill="#50bfa5"/><path d="M1547.16,1187.15v9.7c0,1.575,17.539,2.851,39.182,2.851s39.19-1.276,39.19-2.851v-9.7Z" transform="translate(-1481.165 -1019.726)" fill="#e59f39"/><path d="M1575.51,1199.614V1187.15H1547.15v9.7C1547.157,1198.181,1559.136,1199.27,1575.51,1199.614Z" transform="translate(-1480.628 -1019.726)" fill="#eab054"/><path d="M1586.92,1199.644c3.045.052,6.232.082,9.508.082,4.889,0,9.568-.067,13.882-.187V1187.15h-23.39Z" transform="translate(-1491.958 -1019.726)" fill="#eab054"/><path d="M1620.36,1199.5c13.964-.433,23.741-1.44,23.741-2.62v-9.7H1620.36Z" transform="translate(-1501.527 -1019.733)" fill="#eab054"/><ellipse cx="39.19" cy="2.851" rx="39.19" ry="2.851" transform="translate(65.995 164.469)" fill="#e59f39"/><path d="M1620.962,1186.33c0,1.09-14.449,1.978-32.271,1.978s-32.271-.888-32.271-1.978,14.449-1.97,32.271-1.97S1620.962,1185.248,1620.962,1186.33Z" transform="translate(-1483.689 -1019.018)" fill="#f7cc7f"/><path d="M1538.17,1173.36v9.7c0,1.575,17.546,2.851,39.19,2.851s39.19-1.276,39.19-2.851v-9.7Z" transform="translate(-1478.538 -1016.227)" fill="#e59f39"/><path d="M1566.53,1185.824V1173.36h-28.36v9.7C1538.17,1184.383,1550.156,1185.48,1566.53,1185.824Z" transform="translate(-1478.055 -1016.227)" fill="#eab054"/><path d="M1577.94,1185.846c3.045.06,6.232.09,9.508.09,4.888,0,9.56-.067,13.874-.187V1173.36H1577.94Z" transform="translate(-1489.389 -1016.227)" fill="#eab054"/><path d="M1611.38,1185.712c13.964-.44,23.741-1.448,23.741-2.62v-9.7H1611.38Z" transform="translate(-1498.958 -1016.235)" fill="#eab054"/><ellipse cx="39.19" cy="2.851" rx="39.19" ry="2.851" transform="translate(59.632 154.177)" fill="#e59f39"/><path d="M1611.982,1172.548c0,1.09-14.449,1.97-32.271,1.97s-32.271-.881-32.271-1.97,14.449-1.978,32.271-1.978S1611.982,1171.458,1611.982,1172.548Z" transform="translate(-1481.081 -1015.52)" fill="#f7cc7f"/><path d="M1544.16,1159.2v9.7c0,1.575,17.546,2.851,39.19,2.851s39.182-1.276,39.182-2.851v-9.7Z" transform="translate(-1480.288 -1012.635)" fill="#e59f39"/><path d="M1572.521,1171.664V1159.2h-28.36v9.7C1544.16,1170.246,1556.139,1171.32,1572.521,1171.664Z" transform="translate(-1479.771 -1012.635)" fill="#eab054"/><path d="M1583.93,1171.686c3.038.06,6.224.089,9.508.089,4.881,0,9.56-.067,13.874-.187V1159.2H1583.93Z" transform="translate(-1491.102 -1012.635)" fill="#eab054"/><path d="M1617.36,1171.552c13.964-.44,23.741-1.448,23.741-2.62v-9.7H1617.36Z" transform="translate(-1500.669 -1012.643)" fill="#eab054"/><ellipse cx="39.19" cy="2.851" rx="39.19" ry="2.851" transform="translate(63.872 143.609)" fill="#e59f39"/><path d="M1617.965,1158.388c0,1.09-14.441,1.97-32.264,1.97s-32.271-.881-32.271-1.97,14.441-1.978,32.271-1.978S1617.965,1157.3,1617.965,1158.388Z" transform="translate(-1482.82 -1011.928)" fill="#f7cc7f"/><path d="M1538.17,1145.23v9.7c0,1.575,17.546,2.851,39.19,2.851s39.19-1.276,39.19-2.851v-9.7Z" transform="translate(-1478.538 -1007.732)" fill="#e59f39"/><path d="M1566.53,1157.694V1145.23h-28.36v9.7C1538.17,1156.253,1550.156,1157.35,1566.53,1157.694Z" transform="translate(-1478.055 -1007.728)" fill="#eab054"/><path d="M1577.94,1157.753c3.045.052,6.232.082,9.508.082,4.888,0,9.56-.067,13.874-.187V1145.26H1577.94Z" transform="translate(-1489.389 -1007.741)" fill="#eab054"/><path d="M1611.38,1157.582c13.964-.433,23.741-1.44,23.741-2.62v-9.7H1611.38Z" transform="translate(-1498.958 -1007.732)" fill="#eab054"/><ellipse cx="39.19" cy="2.851" rx="39.19" ry="2.851" transform="translate(59.632 134.902)" fill="#e59f39"/><path d="M1611.982,1144.42c0,1.09-14.449,1.978-32.271,1.978s-32.271-.888-32.271-1.978,14.449-1.97,32.271-1.97S1611.982,1143.331,1611.982,1144.42Z" transform="translate(-1481.081 -1006.648)" fill="#f7cc7f"/><path d="M1880.192,1186v9.352c0,1.493-16.874,2.739-37.689,2.739s-37.682-1.224-37.682-2.739V1186Z" transform="translate(-1557.721 -1019.434)" fill="#e59f39"/><path d="M1869.26,1198.016V1186h27.278v9.352C1896.538,1196.635,1885.015,1197.688,1869.26,1198.016Z" transform="translate(-1574.068 -1019.434)" fill="#eab054"/><path d="M1859.917,1198.038q-4.388.078-9.142.082c-4.694,0-9.195-.06-13.344-.179V1186h22.487Z" transform="translate(-1563.57 -1019.434)" fill="#eab054"/><path d="M1827.65,1197.9c-13.434-.418-22.83-1.388-22.83-2.515V1186h22.83Z" transform="translate(-1554.258 -1019.434)" fill="#eab054"/><ellipse cx="37.682" cy="2.739" rx="37.682" ry="2.739" transform="translate(247.099 163.752)" fill="#e59f39"/><path d="M1813.73,1185.256c0,1.052,13.9,1.9,31.032,1.9s31.032-.851,31.032-1.9-13.889-1.9-31.032-1.9S1813.73,1184.211,1813.73,1185.256Z" transform="translate(-1559.982 -1018.764)" fill="#f7cc7f"/><path d="M1888.832,1172.77v9.359c0,1.493-16.875,2.739-37.69,2.739s-37.682-1.231-37.682-2.739v-9.359Z" transform="translate(-1559.913 -1016.078)" fill="#e59f39"/><path d="M1877.9,1184.756V1172.77h27.278v9.359C1905.178,1183.39,1893.647,1184.428,1877.9,1184.756Z" transform="translate(-1576.26 -1016.078)" fill="#eab054"/><path d="M1868.557,1184.778q-4.389.078-9.143.082c-4.695,0-9.195-.067-13.344-.179V1172.74h22.487Z" transform="translate(-1568.185 -1016.07)" fill="#eab054"/><path d="M1836.29,1184.644c-13.434-.418-22.83-1.388-22.83-2.515v-9.359h22.83Z" transform="translate(-1556.728 -1016.078)" fill="#eab054"/><ellipse cx="37.682" cy="2.739" rx="37.682" ry="2.739" transform="translate(253.547 153.856)" fill="#e59f39"/><ellipse cx="31.032" cy="1.896" rx="31.032" ry="1.896" transform="translate(260.197 154.699)" fill="#f7cc7f"/><path d="M1883.072,1159.15v9.359c0,1.493-16.875,2.739-37.682,2.739s-37.689-1.224-37.689-2.739v-9.359Z" transform="translate(-1558.452 -1012.623)" fill="#e59f39"/><path d="M1872.15,1171.143V1159.15h27.271v9.359C1899.421,1169.755,1887.9,1170.815,1872.15,1171.143Z" transform="translate(-1574.801 -1012.623)" fill="#eab054"/><path d="M1862.8,1171.158c-2.933.052-5.971.082-9.143.082-4.7,0-9.2-.067-13.352-.179V1159.12H1862.8Z" transform="translate(-1566.724 -1012.615)" fill="#eab054"/><path d="M1830.53,1171.024c-13.434-.418-22.83-1.388-22.83-2.515v-9.359h22.83Z" transform="translate(-1555.081 -1012.623)" fill="#eab054"/><ellipse cx="37.682" cy="2.739" rx="37.682" ry="2.739" transform="translate(249.256 143.691)" fill="#e59f39"/><ellipse cx="31.032" cy="1.896" rx="31.032" ry="1.896" transform="translate(255.905 144.535)" fill="#f7cc7f"/><path d="M1888.832,1145.72v9.359c0,1.493-16.875,2.739-37.69,2.739s-37.682-1.231-37.682-2.739v-9.359Z" transform="translate(-1559.913 -1007.856)" fill="#e59f39"/><path d="M1877.9,1157.714V1145.72h27.278v9.359C1905.178,1156.325,1893.647,1157.385,1877.9,1157.714Z" transform="translate(-1576.26 -1007.852)" fill="#eab054"/><path d="M1868.557,1157.728q-4.389.078-9.143.082c-4.695,0-9.195-.067-13.344-.179V1145.69h22.487Z" transform="translate(-1568.185 -1007.848)" fill="#eab054"/><path d="M1836.29,1157.594c-13.434-.418-22.83-1.388-22.83-2.515v-9.359h22.83Z" transform="translate(-1556.728 -1007.848)" fill="#eab054"/><ellipse cx="37.682" cy="2.739" rx="37.682" ry="2.739" transform="translate(253.547 135.374)" fill="#e59f39"/><ellipse cx="31.032" cy="1.896" rx="31.032" ry="1.896" transform="translate(260.197 136.236)" fill="#f7cc7f"/><path d="M1915.533,1124.29l-2.239,7.9c-.366,1.276-14.927-1.769-32.5-6.807s-31.54-10.158-31.174-11.434l2.239-7.9Z" transform="translate(-1569.083 -996.951)" fill="#e59f39"/><path d="M1903.18,1131.778l2.9-10.128,23.039,6.6-2.239,7.9C1926.555,1137.2,1916.569,1135.345,1903.18,1131.778Z" transform="translate(-1582.673 -1001.056)" fill="#eab054"/><path d="M1895.3,1129.531c-2.485-.664-5.083-1.381-7.747-2.142-3.97-1.134-7.754-2.239-11.195-3.381l2.888-10.068,18.994,5.448Z" transform="translate(-1575.869 -998.872)" fill="#eab054"/><path d="M1868.276,1121.6c-11.24-3.6-18.949-6.717-18.658-7.65l2.239-7.9,19.285,5.523Z" transform="translate(-1569.083 -996.609)" fill="#eab054"/><path d="M1852.658,1105.841c-.366,1.276,13.591,6.4,31.174,11.434s32.092,8.083,32.5,6.806-13.591-6.4-31.174-11.434S1853.023,1104.565,1852.658,1105.841Z" transform="translate(-1569.855 -996.564)" fill="#e59f39"/><path d="M1860.188,1108.042c-.254.881,11.277,4.963,25.756,9.113s26.42,6.792,26.674,5.9-11.277-4.963-25.756-9.113S1860.442,1107.153,1860.188,1108.042Z" transform="translate(-1571.766 -997.125)" fill="#f7cc7f"/><path d="M1888.828,1057.61l2.411,7.859c.388,1.269-13.434,6.65-30.958,12.008s-31.973,8.68-32.368,7.411l-2.4-7.859Z" transform="translate(-1562.97 -982.983)" fill="#e59f39"/><path d="M1882.74,1074.708l-3.09-10.075,22.912-7.023,2.411,7.859C1905.286,1066.514,1895.883,1070.372,1882.74,1074.708Z" transform="translate(-1576.704 -982.755)" fill="#eab054"/><path d="M1874.9,1077.57c-2.448.8-5.015,1.612-7.665,2.426-3.948,1.209-7.74,2.314-11.255,3.291l-3.067-10.016,18.89-5.792Z" transform="translate(-1569.921 -985.558)" fill="#eab054"/><path d="M1847.743,1085.718c-11.382,3.1-19.539,4.717-19.83,3.769l-2.4-7.859,19.181-5.889Z" transform="translate(-1560.153 -987.885)" fill="#eab054"/><path d="M1825.468,1076.817c.388,1.276,14.882-2.045,32.368-7.4s31.346-10.74,30.958-12.016-14.882,2.052-32.368,7.411S1825.117,1075.548,1825.468,1076.817Z" transform="translate(-1562.958 -982.675)" fill="#e59f39"/><path d="M1833,1075.73c.269.881,12.165-1.985,26.562-6.4s25.853-8.71,25.584-9.59-12.165,1.985-26.562,6.4S1832.7,1074.819,1833,1075.73Z" transform="translate(-1564.868 -983.303)" fill="#f7cc7f"/><path d="M1633.49,1188.239l.933,4.956a22.1,22.1,0,0,0,.172,2.836c.522,2.112,9.419-2.985,7.083-3.441a9.7,9.7,0,0,1-2.09-2.239,19.5,19.5,0,0,1-1.172-3.261Z" transform="translate(-1505.035 -1019.71)" fill="#f7a491"/><path d="M1641.019,1193.807s-2.3.567-3.463.687-2.664-1.7-3.508-1.358-1.418,6.135-1.418,6.135,14.658.672,18.128-.291C1652.132,1198.606,1645.594,1195.553,1641.019,1193.807Z" transform="translate(-1504.946 -1021.233)" fill="#f47458"/><path d="M1660.89,1187.937s.933,4.941.933,4.956a22.059,22.059,0,0,0,.172,2.836c.522,2.112,9.247-2.687,6.918-3.1a13.513,13.513,0,0,1-1.926-2.582,19.481,19.481,0,0,1-1.172-3.269Z" transform="translate(-1512.832 -1019.632)" fill="#f7a491"/><path d="M1668.146,1193.807s-2.3.567-3.463.687-2.672-1.7-3.508-1.358-1.426,6.135-1.426,6.135,14.665.672,18.128-.291C1679.229,1198.606,1672.684,1195.553,1668.146,1193.807Z" transform="translate(-1512.689 -1021.233)" fill="#f47458"/><path d="M1592.611,1119.47l26.674-6.187s11.941-3.164,14.852.552,15.151,54.952,15.151,54.952-6.329.552-6.717.276l-14.807-26.278a22.886,22.886,0,0,1-2.732-8.09l-1.052-7.523-10.859,3.164s-12.516,2.747-17.606-.411S1592.611,1119.47,1592.611,1119.47Z" transform="translate(-1493.942 -1000.669)" fill="#0e2e35"/><path d="M1605.12,1060.41c.425,0,1.575.4,3.269,3.582,2.157,4.06,5.306,16.33,5.306,16.33l-9.411,3.493-1.209-2.567-1.985-19.71S1605.008,1060.4,1605.12,1060.41Z" transform="translate(-1495.865 -983.696)" fill="#eab054"/><path d="M1584.16,1058a55.147,55.147,0,0,1,12.434,1.769s2.239,19.4-2.045,34.212c-.963,3.306.8,13.7.8,13.7l-27.868-.366s3.3-25.144,2.052-29.2-1.269-18.218-1.269-18.218l6.262-1.075A63.115,63.115,0,0,1,1584.16,1058Z" transform="translate(-1486.467 -983.695)" fill="#f7cc7f"/><path d="M1566.643,1063.47c2.6-.978,3.881,22.39,4.232,32.092a114.336,114.336,0,0,0,14.665-.149c.94-.067,3.112-.866,4.053-.985a9.319,9.319,0,0,1,2.3-.112,39.25,39.25,0,0,1,5.4,2.426c.41.433,1.888,1.873,1.657,2.455s-2.65-1.62-2.65-1.62l-1.187-.657c1.493,1.433,4.284,3.321,3.881,4.008s-2.933-1.246-4.739-2.552c1.552,1.4,3.478,3.888,3.03,4.276s-2.59-2.538-4.926-3.366c-.866-.313-1.731.545-2.411.642a4.895,4.895,0,0,1-1.769.1l-2.351-.231a12.663,12.663,0,0,0-1.94.284c-1.008.216-2.672.44-3.956.746-7.418,1.806-9.9,2.642-12.165,2.642C1560.881,1103.451,1560.485,1065.769,1566.643,1063.47Z" transform="translate(-1485.058 -985.001)" fill="#f7a491"/><path d="M1561.427,1084.7c-.485-9.866-.41-22.032,5.135-24.106,2.194-.813,6.053,4.1,5.359,24.308A42.048,42.048,0,0,1,1561.427,1084.7Z" transform="translate(-1484.489 -983.752)" fill="#eab054"/><path d="M1627.422,1084.839l-26.263,1.717a1.724,1.724,0,0,0-1.493,1.164l-6.8,20.248-14.471.948a.746.746,0,0,0-.687.784h0a.747.747,0,0,0,.746.679l41.2-2.687a2.881,2.881,0,0,0,2.515-1.873l6.956-18.658a1.717,1.717,0,0,0-1.709-2.321Z" transform="translate(-1489.682 -990.797)" fill="#f47458"/><path d="M1625.814,1101.016a1.448,1.448,0,1,1-1.344-1.717,1.552,1.552,0,0,1,1.343,1.717Z" transform="translate(-1501.951 -994.342)" fill="#fff"/><path d="M1567.419,1121.4l29.107-5.015s12.568-1.918,15.456,1.791,11.277,51.847,11.277,51.847-6.329.545-6.717.276-7.978-16.263-11.419-23.494a27.287,27.287,0,0,1-2.239-7.232l-1.112-6.553-3.657,1.261a44.511,44.511,0,0,1-20.024,2.142,18.753,18.753,0,0,1-7.1-1.97C1565.807,1131.293,1567.419,1121.4,1567.419,1121.4Z" transform="translate(-1486.7 -1001.648)" fill="#184655"/><path d="M1589.012,1051.042l.567,4.194s1.269,6.045-.366,7.217-6.933-7.389-6.933-7.389l.56-10.635Z" transform="translate(-1490.449 -978.991)" fill="#f7a491"/><path d="M1582.79,1047.878a12.023,12.023,0,0,0,6.829,6.717l-.478-3.553-6.172-6.612Z" transform="translate(-1490.583 -978.853)" fill="#f47458"/><path d="M1588.435,1028.9a5.613,5.613,0,0,1,6.471,5.657,42.274,42.274,0,0,1-.478,5.389c-.746,4.844-4.067,9.113-6.262,8.732s-7.709-4.56-6.717-11.456C1582.032,1032.958,1584.816,1029.48,1588.435,1028.9Z" transform="translate(-1490.244 -974.538)" fill="#f7a491"/><path d="M1582.431,1040.4a1.635,1.635,0,1,1-1.239-2.239,1.806,1.806,0,0,1,1.239,2.239Z" transform="translate(-1489.548 -976.954)" fill="#f7a491"/><path d="M1581.546,1035.287s2.649.657,3.635-1.045,4.478-5.374,8.956-3.851-3.941-3.732-4.3-3.732h-4.65s-3.314,2.709-3.433,2.985-1.075,3.553-1.075,3.553Z" transform="translate(-1490.072 -973.758)" fill="#0e2e35"/><rect width="66.02" height="24.032" transform="translate(280.292 178.261) rotate(180)" fill="#50bfa5"/><rect width="66.02" height="3.09" transform="translate(280.292 160.819) rotate(180)" fill="#96d9c9"/><rect width="66.02" height="3.09" transform="translate(280.292 166.857) rotate(180)" fill="#96d9c9"/><rect width="66.02" height="3.09" transform="translate(280.292 172.895) rotate(180)" fill="#96d9c9"/><rect width="66.02" height="3.09" transform="translate(280.292 178.254) rotate(180)" fill="#96d9c9"/><rect width="13.732" height="24.032" transform="translate(253.207 178.261) rotate(180)" fill="#f7cc7f"/><rect width="9.971" height="24.032" transform="translate(288.508 178.261) rotate(180)" fill="#3c8f7c"/><rect width="350.032" height="2.082" transform="translate(0 177.918)" fill="#0e2e35"/><path d="M1643.08,1031.182l.463,5.694,3.314-3.732,10.695-8.754-9.12,2.873s-4.478,2.179-4.7,2.463A12.648,12.648,0,0,0,1643.08,1031.182Z" transform="translate(-1507.864 -973.159)" fill="#50bfa5"/><path d="M182.67,76.1l19.315-4.344-14.471,6.792Z" transform="translate(-52.173 -20.456)" fill="#96d9c9"/><path d="M197.088,82.768,191.14,79.8l12.994-8.038Z" transform="translate(-54.483 -20.51)" fill="#96d9c9"/><path d="M1640.009,1037.451a7.01,7.01,0,0,1,1.552-.411l-.045-.41a6.9,6.9,0,0,0-1.657.433Z" transform="translate(-1506.739 -976.491)" fill="#3c8f7c"/><path d="M1627.28,1071.823a16.735,16.735,0,0,0,2.1-2.291l.328.254a17.475,17.475,0,0,1-2.142,2.344Zm3.732-4.941a13.119,13.119,0,0,0,.56-1.328c.187-.508.358-1.045.5-1.59l.4.1c-.149.56-.321,1.1-.508,1.635a13.044,13.044,0,0,1-.575,1.358Zm1.687-9.105h.411a27.263,27.263,0,0,1-.1,3.172l-.418-.045a26.209,26.209,0,0,0,.075-3.127Zm-.6-6.232.418-.06c.172,1.216.3,2.239.388,3.127l-.411.045c-.127-.911-.246-1.9-.426-3.112Zm-.463-3.135a15.482,15.482,0,0,1-.157-3.164h.41a15.629,15.629,0,0,0,.157,3.067h0l-.418.052Zm.522-6.292a7.536,7.536,0,0,1,1.806-2.65l.284.3a7.218,7.218,0,0,0-1.7,2.508Z" transform="translate(-1503.243 -977.84)" fill="#3c8f7c"/></svg>