<svg xmlns="http://www.w3.org/2000/svg" xmlns:xlink="http://www.w3.org/1999/xlink" width="48" height="24" viewBox="0 0 48 24"><defs><linearGradient id="a" x1="-0.757" y1="0.746" x2="1.821" y2="0.746" gradientUnits="objectBoundingBox"><stop offset="0" stop-color="#007940"/><stop offset="0.228" stop-color="#00873f"/><stop offset="0.743" stop-color="#40a737"/><stop offset="1" stop-color="#5cb531"/></linearGradient><linearGradient id="b" x1="-0.061" y1="0.528" x2="0.829" y2="0.528" xlink:href="#a"/><linearGradient id="c" x1="-0.826" y1="0.95" x2="1.987" y2="0.95" xlink:href="#a"/><linearGradient id="d" x1="0.188" y1="0.529" x2="1.092" y2="0.529" gradientUnits="objectBoundingBox"><stop offset="0" stop-color="#1f286f"/><stop offset="0.475" stop-color="#004e94"/><stop offset="0.826" stop-color="#0066b1"/><stop offset="1" stop-color="#006fbc"/></linearGradient><linearGradient id="e" x1="0.057" y1="0.528" x2="0.934" y2="0.528" gradientUnits="objectBoundingBox"><stop offset="0" stop-color="#6c2c2f"/><stop offset="0.174" stop-color="#882730"/><stop offset="0.573" stop-color="#be1833"/><stop offset="0.859" stop-color="#dc0436"/><stop offset="1" stop-color="#e60039"/></linearGradient></defs><g transform="translate(-3875 -1391)"><rect width="48" height="24" transform="translate(3875 1391)" fill="none"/><g transform="translate(3854.6 1382.3)"><path d="M59.562,27.862A4.845,4.845,0,0,1,54.724,32.7H28.4V13.538A4.845,4.845,0,0,1,33.238,8.7H59.562Z" transform="translate(0 0)" fill="#fff"/><g transform="translate(49.263 10.321)"><path d="M147,75.731h2c.057,0,.191-.019.248-.019a.893.893,0,0,0,.706-.9.926.926,0,0,0-.706-.9A1.007,1.007,0,0,0,149,73.9h-2Z" transform="translate(-145.284 -63.104)" fill="url(#a)"/><path d="M141.49,17.2a3.469,3.469,0,0,0-3.471,3.466v3.6h4.9a1.964,1.964,0,0,1,.343.019c1.106.057,1.926.628,1.926,1.619a1.621,1.621,0,0,1-1.583,1.581v.038c1.125.076,1.983.7,1.983,1.676,0,1.047-.954,1.733-2.212,1.733H138v7.046h5.092a3.469,3.469,0,0,0,3.471-3.466V17.2Z" transform="translate(-138 -17.2)" fill="url(#b)"/><path d="M149.708,60.539a.811.811,0,0,0-.706-.82c-.038,0-.134-.019-.191-.019H147v1.678h1.812a.532.532,0,0,0,.191-.019A.811.811,0,0,0,149.708,60.539Z" transform="translate(-145.284 -51.607)" fill="url(#c)"/></g><path d="M40.89,17.2a3.469,3.469,0,0,0-3.471,3.466v8.551A6.872,6.872,0,0,0,40.413,30a1.66,1.66,0,0,0,1.85-1.714V24.246h2.975v4.018c0,1.562-.973,2.838-4.272,2.838a14.661,14.661,0,0,1-3.566-.438v7.294h5.092a3.469,3.469,0,0,0,3.471-3.466V17.2Z" transform="translate(-7.284 -6.879)" fill="url(#d)"/><path d="M91.271,17.2A3.469,3.469,0,0,0,87.8,20.666V25.2c.877-.743,2.4-1.219,4.863-1.1a15.5,15.5,0,0,1,2.727.419v1.466a6.609,6.609,0,0,0-2.632-.762c-1.869-.133-2.994.781-2.994,2.38,0,1.619,1.125,2.533,2.994,2.38a6.934,6.934,0,0,0,2.632-.762v1.466a15.128,15.128,0,0,1-2.727.419c-2.46.114-3.986-.362-4.863-1.1v8h5.092a3.469,3.469,0,0,0,3.471-3.466V17.2Z" transform="translate(-48.091 -6.879)" fill="url(#e)"/></g></g></svg>