<svg xmlns="http://www.w3.org/2000/svg" width="54" height="54" viewBox="0 0 54 54"><g transform="translate(-612 -276)"><circle cx="27" cy="27" r="27" transform="translate(612 276)" fill="#0a66c2"/><g transform="translate(443.609 89.39)"><g transform="translate(181.39 197.61)"><rect width="6.242" height="20.173" transform="translate(0.597 10.095)" fill="#fff"/><path d="M185.083,205.063a3.727,3.727,0,1,0-3.693-3.727A3.727,3.727,0,0,0,185.083,205.063Z" transform="translate(-181.39 -197.61)" fill="#fff"/></g><path d="M200.253,219.074c0-2.835,1.3-4.526,3.8-4.526,2.3,0,3.365,1.624,3.365,4.526v10.583h6.217v-12.77c0-5.4-3.062-8.017-7.344-8.017a7.024,7.024,0,0,0-6.074,3.365v-2.717h-5.99v20.19h5.99Z" transform="translate(-2.039 -1.788)" fill="#fff"/></g></g></svg>