<svg xmlns="http://www.w3.org/2000/svg" width="22.138" height="22.137" viewBox="0 0 22.138 22.137"><g transform="translate(-749 -232)"><g transform="translate(749.137 232)"><path d="M18.6,3.126a11.137,11.137,0,0,0-15.474,0A11.136,11.136,0,1,0,18.874,18.875,11.137,11.137,0,0,0,18.6,3.126ZM18.35,18.35h0A10.394,10.394,0,1,1,21.394,11a10.394,10.394,0,0,1-3.044,7.35Z" transform="translate(0.001)"/></g><g transform="translate(679 236)"><g transform="translate(76)"><path d="M80.871,0a4.872,4.872,0,0,0-4.144,7.432l3.867,6.231a.406.406,0,0,0,.345.192h0a.406.406,0,0,0,.345-.2l3.768-6.291A4.872,4.872,0,0,0,80.871,0Zm3.487,6.95-3.426,5.72L77.417,7a4.062,4.062,0,1,1,6.941-.055Z" transform="translate(-76)"/></g><g transform="translate(78.435 2.435)"><path d="M168.436,90a2.435,2.435,0,1,0,2.435,2.436A2.438,2.438,0,0,0,168.436,90Zm0,4.065a1.629,1.629,0,1,1,1.626-1.629A1.63,1.63,0,0,1,168.436,94.065Z" transform="translate(-166 -90)"/></g></g></g></svg>