<svg xmlns="http://www.w3.org/2000/svg" width="48" height="24" viewBox="0 0 48 24"><g transform="translate(-3583 -1381)"><rect width="48" height="24" transform="translate(3583 1381)" fill="none"/><g transform="translate(3588 1280.2)"><path d="M225.111,112.315a11.758,11.758,0,0,1-23.511,0h0a11.758,11.758,0,0,1,23.511,0Z" transform="translate(-186.728 0)" fill="#ffb600"/><path d="M213.356,100.8a11.667,11.667,0,0,1,11.756,11.515h0a11.758,11.758,0,0,1-23.511,0" transform="translate(-186.728)" fill="#f7981d"/><path d="M352.8,100.8a11.667,11.667,0,0,1,11.756,11.515h0A11.628,11.628,0,0,1,352.8,123.83" transform="translate(-326.172)" fill="#ff8500"/><path d="M11.631,100.8a11.517,11.517,0,1,0,.124,23.03,12.033,12.033,0,0,0,7.9-2.985h0a11.049,11.049,0,0,0,1.182-1.219H18.411a14.074,14.074,0,0,1-.871-1.158h4.167a7.758,7.758,0,0,0,.684-1.219H16.856a7.176,7.176,0,0,1-.5-1.219h6.469a11.873,11.873,0,0,0,.622-3.656,15.415,15.415,0,0,0-.249-2.437H15.985a8.758,8.758,0,0,1,.311-1.219h6.469a7.176,7.176,0,0,0-.5-1.219H16.794a12.009,12.009,0,0,1,.684-1.219h4.167a5.805,5.805,0,0,0-.933-1.219h-2.3a10.5,10.5,0,0,1,1.182-1.158,11.612,11.612,0,0,0-7.9-2.985C11.693,100.8,11.693,100.8,11.631,100.8Z" fill="#ff5050"/><path d="M0,113.792a11.627,11.627,0,0,0,11.756,11.514,12.033,12.033,0,0,0,7.9-2.985h0a11.047,11.047,0,0,0,1.182-1.218H18.411a14.072,14.072,0,0,1-.871-1.157h4.167a7.757,7.757,0,0,0,.684-1.218H16.856a7.174,7.174,0,0,1-.5-1.218h6.469a11.871,11.871,0,0,0,.622-3.655,15.411,15.411,0,0,0-.249-2.437H15.985A8.756,8.756,0,0,1,16.3,110.2h6.469a7.174,7.174,0,0,0-.5-1.218H16.794a12.01,12.01,0,0,1,.684-1.218h4.167a5.8,5.8,0,0,0-.933-1.218h-2.3a10.5,10.5,0,0,1,1.182-1.157,11.612,11.612,0,0,0-7.9-2.985h-.062" transform="translate(0 -1.476)" fill="#e52836"/><path d="M149.724,125.306a12.033,12.033,0,0,0,7.9-2.985h0a11.049,11.049,0,0,0,1.182-1.218H156.38a14.07,14.07,0,0,1-.871-1.157h4.167a7.756,7.756,0,0,0,.684-1.218h-5.536a7.176,7.176,0,0,1-.5-1.218H160.8a11.87,11.87,0,0,0,.622-3.655,15.413,15.413,0,0,0-.249-2.437h-7.215a8.756,8.756,0,0,1,.311-1.218h6.469a7.175,7.175,0,0,0-.5-1.218h-5.474a12.007,12.007,0,0,1,.684-1.218h4.167a5.8,5.8,0,0,0-.933-1.218h-2.3a10.5,10.5,0,0,1,1.182-1.157,11.612,11.612,0,0,0-7.9-2.985H149.6" transform="translate(-138.31 -1.476)" fill="#cb2026"/><g transform="translate(1.12 109.265)"><path d="M183.4,225.474l.187-1.057a2.693,2.693,0,0,1-.311.062c-.435,0-.5-.249-.435-.373l.373-2.177h.684l.187-1.182h-.622l.124-.746h-1.244s-.746,4.105-.746,4.6a.934.934,0,0,0,1,1.057A1.91,1.91,0,0,0,183.4,225.474Z" transform="translate(-168.903 -219.44)" fill="#fff"/><path d="M210.4,231.506a1.978,1.978,0,0,0,2.177,2.177,3.23,3.23,0,0,0,1.306-.187l.249-1.182a3.729,3.729,0,0,1-1.306.311c-1.368,0-1.12-1-1.12-1h2.55a8.065,8.065,0,0,0,.187-1.12,1.685,1.685,0,0,0-1.8-1.8C211.333,228.582,210.4,229.951,210.4,231.506Zm2.177-1.8c.684,0,.56.809.56.871h-1.368C211.768,230.51,211.893,229.7,212.577,229.7Z" transform="translate(-195.533 -227.463)" fill="#fff"/><path d="M299.421,218.833l.249-1.368a3.057,3.057,0,0,1-1.057.311c-.871,0-1.244-.684-1.244-1.431,0-1.493.746-2.3,1.617-2.3a2.077,2.077,0,0,1,1.12.373l.187-1.306a4.373,4.373,0,0,0-1.431-.311c-1.431,0-2.861,1.244-2.861,3.608,0,1.555.746,2.612,2.239,2.612A5.582,5.582,0,0,0,299.421,218.833Z" transform="translate(-274.644 -212.8)" fill="#fff"/><path d="M88.764,227.2a4.405,4.405,0,0,0-1.493.249l-.187,1.057a3.677,3.677,0,0,1,1.368-.249c.435,0,.809.062.809.435,0,.249-.062.311-.062.311h-.56c-1.057,0-2.239.435-2.239,1.866,0,1.12.746,1.368,1.182,1.368a1.869,1.869,0,0,0,1.306-.56l-.062.5h1.12l.5-3.421A1.474,1.474,0,0,0,88.764,227.2Zm.249,2.8c0,.187-.124,1.182-.871,1.182a.486.486,0,0,1-.5-.5c0-.311.187-.746,1.12-.746A.981.981,0,0,0,89.012,230Z" transform="translate(-80.939 -226.08)" fill="#fff"/><path d="M136.631,231.5a1.594,1.594,0,0,0,1.866-1.617c0-1.555-1.493-1.244-1.493-1.866,0-.311.249-.435.684-.435.187,0,.871.062.871.062l.187-1.12a4.724,4.724,0,0,0-1.182-.124c-.933,0-1.866.373-1.866,1.617,0,1.431,1.555,1.306,1.555,1.866,0,.373-.435.435-.746.435a4.068,4.068,0,0,1-1.12-.187l-.187,1.12C135.262,231.376,135.573,231.5,136.631,231.5Z" transform="translate(-126.034 -225.343)" fill="#fff"/><path d="M430.745,214.4l-.249,1.679a1.725,1.725,0,0,0-1.182-.622c-1.12,0-2.115,1.368-2.115,2.986,0,1,.5,2.053,1.555,2.053a1.66,1.66,0,0,0,1.182-.5l-.062.435h1.244l.933-5.971Zm-.56,3.3c0,.684-.311,1.555-1,1.555-.435,0-.684-.373-.684-1,0-1,.435-1.617,1-1.617C429.937,216.639,430.186,216.95,430.186,217.7Z" transform="translate(-395.907 -214.276)" fill="#fff"/><path d="M15.582,220.371l.746-4.478.124,4.478h.871l1.617-4.478-.684,4.478h1.306l1-5.971H18.505l-1.244,3.67L17.2,214.4H15.4l-1,5.971Z" transform="translate(-14.4 -214.276)" fill="#fff"/><path d="M261.368,233.652c.373-2.053.435-3.732,1.306-3.421a4.882,4.882,0,0,1,.435-1.431h-.249c-.56,0-1,.746-1,.746l.124-.684h-1.182L260,233.714h1.368Z" transform="translate(-241.358 -227.556)" fill="#fff"/><path d="M348.764,227.2a4.405,4.405,0,0,0-1.493.249l-.187,1.057a3.677,3.677,0,0,1,1.368-.249c.435,0,.809.062.809.435,0,.249-.062.311-.062.311h-.56c-1.057,0-2.239.435-2.239,1.866,0,1.12.746,1.368,1.182,1.368a1.868,1.868,0,0,0,1.306-.56l-.062.5h1.12l.5-3.421A1.452,1.452,0,0,0,348.764,227.2Zm.311,2.8c0,.187-.124,1.182-.871,1.182a.486.486,0,0,1-.5-.5c0-.311.187-.746,1.12-.746C349.012,230,349.012,230,349.075,230Z" transform="translate(-321.217 -226.08)" fill="#fff"/><path d="M395.768,233.652c.373-2.053.435-3.732,1.306-3.421a4.882,4.882,0,0,1,.435-1.431h-.249c-.56,0-1,.746-1,.746l.124-.684h-1.182l-.809,4.852h1.368Z" transform="translate(-365.658 -227.556)" fill="#fff"/></g><g transform="translate(1.12 109.265)"><path d="M180,224.6a.934.934,0,0,0,1,1.057,2.368,2.368,0,0,0,.933-.187l.187-1.057a2.694,2.694,0,0,1-.311.062c-.435,0-.5-.249-.435-.373l.373-2.177h.684l.187-1.182h-.622l.124-.746" transform="translate(-167.426 -219.44)" fill="#dce5e5"/><path d="M218.4,231.506c0,1.742.56,2.177,1.555,2.177a3.23,3.23,0,0,0,1.306-.187l.249-1.182a3.729,3.729,0,0,1-1.306.311c-1.368,0-1.12-1-1.12-1h2.55a8.065,8.065,0,0,0,.187-1.12,1.685,1.685,0,0,0-1.8-1.8C218.711,228.582,218.4,229.951,218.4,231.506Zm1.555-1.8c.684,0,.809.809.809.871h-1.617C219.146,230.51,219.271,229.7,219.955,229.7Z" transform="translate(-202.919 -227.463)" fill="#dce5e5"/><path d="M306.8,218.833l.249-1.368a3.057,3.057,0,0,1-1.057.311c-.871,0-1.244-.684-1.244-1.431,0-1.493.746-2.3,1.617-2.3a2.077,2.077,0,0,1,1.12.373l.187-1.306a4.373,4.373,0,0,0-1.431-.311c-1.431,0-2.239,1.244-2.239,3.608,0,1.555.124,2.612,1.617,2.612A5.581,5.581,0,0,0,306.8,218.833Z" transform="translate(-282.027 -212.8)" fill="#dce5e5"/><path d="M87.084,230.044a3.676,3.676,0,0,1,1.368-.249c.435,0,.809.062.809.435,0,.249-.062.311-.062.311h-.56c-1.057,0-2.239.435-2.239,1.866,0,1.12.746,1.368,1.182,1.368a1.869,1.869,0,0,0,1.306-.56l-.062.5h1.12l.5-3.421c0-1.431-1.244-1.493-1.742-1.493m.933,2.675a2.036,2.036,0,0,1-1.493,1.182.486.486,0,0,1-.5-.5c0-.311.187-.746,1.12-.746A5.082,5.082,0,0,0,89.634,231.475Z" transform="translate(-80.939 -227.556)" fill="#dce5e5"/><path d="M136,231.376a5.263,5.263,0,0,0,1.431.124,1.594,1.594,0,0,0,1.866-1.617c0-1.555-1.493-1.244-1.493-1.866,0-.311.249-.435.684-.435.187,0,.871.062.871.062l.187-1.12a4.724,4.724,0,0,0-1.182-.124c-.933,0-1.244.373-1.244,1.617,0,1.431.933,1.306.933,1.866,0,.373-.435.435-.746.435" transform="translate(-126.773 -225.343)" fill="#dce5e5"/><path d="M437.821,216.817a1.725,1.725,0,0,0-1.182-.622c-1.12,0-1.493,1.368-1.493,2.986,0,1-.124,2.053.933,2.053a1.66,1.66,0,0,0,1.182-.5l-.062.435h1.244l.933-5.971m-1.617,3.234c0,.684-.56,1.555-1.244,1.555-.435,0-.684-.373-.684-1,0-1,.435-1.617,1-1.617A.95.95,0,0,1,437.759,218.434Z" transform="translate(-403.232 -215.013)" fill="#dce5e5"/><path d="M15.582,220.371l.746-4.478.124,4.478h.871l1.617-4.478-.684,4.478h1.306l1-5.971H19l-1.742,3.67L17.2,214.4h-.684L14.4,220.371Z" transform="translate(-14.4 -214.276)" fill="#dce5e5"/><path d="M260.8,233.652h1.306c.373-2.053.435-3.732,1.306-3.421a4.882,4.882,0,0,1,.435-1.431H263.6c-.56,0-1,.746-1,.746l.124-.684" transform="translate(-242.096 -227.556)" fill="#dce5e5"/><path d="M347.084,230.044a3.676,3.676,0,0,1,1.368-.249c.435,0,.809.062.809.435,0,.249-.062.311-.062.311h-.56c-1.057,0-2.239.435-2.239,1.866,0,1.12.746,1.368,1.182,1.368a1.869,1.869,0,0,0,1.306-.56l-.062.5h1.12l.5-3.421c0-1.431-1.244-1.493-1.742-1.493m.933,2.675a2.036,2.036,0,0,1-1.493,1.182.486.486,0,0,1-.5-.5c0-.311.187-.746,1.12-.746A5.473,5.473,0,0,0,349.634,231.475Z" transform="translate(-321.217 -227.556)" fill="#dce5e5"/><path d="M395.2,233.652h1.306c.373-2.053.435-3.732,1.306-3.421a4.881,4.881,0,0,1,.435-1.431H398c-.56,0-1,.746-1,.746l.124-.684" transform="translate(-366.395 -227.556)" fill="#dce5e5"/></g></g></g></svg>