<svg xmlns="http://www.w3.org/2000/svg" width="22.138" height="22.137" viewBox="0 0 22.138 22.137"><g transform="translate(0.478 0)"><path d="M18.6,3.126a11.137,11.137,0,0,0-15.474,0A11.136,11.136,0,1,0,18.874,18.875,11.137,11.137,0,0,0,18.6,3.126ZM18.35,18.35h0A10.394,10.394,0,1,1,21.394,11a10.394,10.394,0,0,1-3.044,7.35Z" transform="translate(-0.341)"/><g transform="translate(4.659 5.998)"><path d="M12.288,2.1,11.981.7A.9.9,0,0,0,10.915.023L1.686,2.053H.879a.942.942,0,0,0-.941.94V9.6a.255.255,0,1,0,.509,0V2.993A.433.433,0,0,1,.88,2.56H12a.433.433,0,0,1,.433.433V9.1H.193a.254.254,0,0,0-.254.254v.507a.934.934,0,0,0,.132.48v.007h0a.941.941,0,0,0,.8.451H12a.94.94,0,0,0,.776-.41v0h0a.935.935,0,0,0,.159-.523V2.994a.942.942,0,0,0-.649-.894ZM11.024.519a.387.387,0,0,1,.461.3l.273,1.24H4.049Zm1.4,9.339A.434.434,0,0,1,12,10.29H.879a.434.434,0,0,1-.433-.433V9.6H12.429Zm0,0"/><path d="M184.1,258.082a.254.254,0,1,0,0,.508h1.437a.254.254,0,0,0,0-.508Zm0,0" transform="translate(-179.242 -251.528)"/><path d="M282.148,258.59a.254.254,0,1,0,0-.508h-1.437a.254.254,0,1,0,0,.508Zm0,0" transform="translate(-273.398 -251.528)"/><path d="M378.762,258.082h-1.437a.254.254,0,0,0,0,.508h1.437a.254.254,0,0,0,0-.508Zm0,0" transform="translate(-367.559 -251.528)"/><path d="M253.7,303.383a.254.254,0,0,0,.254.254h4.569a.254.254,0,0,0,0-.508h-4.569a.254.254,0,0,0-.254.254Zm0,0" transform="translate(-247.32 -295.432)"/><path d="M55.277,126.757a.254.254,0,0,0,.22.127h.762l.381.66a.254.254,0,0,0,.44,0l.381-.66h.762a.254.254,0,0,0,.22-.381l-.381-.66.381-.66a.254.254,0,0,0-.22-.381H57.46l-.381-.66a.254.254,0,0,0-.44,0l-.381.66H55.5a.254.254,0,0,0-.22.381l.381.66-.381.66a.254.254,0,0,0,0,.254Zm.894-1.041-.234-.406h.469a.254.254,0,0,0,.22-.127l.234-.406.234.406a.254.254,0,0,0,.22.127h.469l-.234.406a.254.254,0,0,0,0,.254l.234.406h-.469a.254.254,0,0,0-.22.127l-.234.406-.234-.406a.254.254,0,0,0-.22-.127h-.469l.234-.406a.254.254,0,0,0,0-.254Zm0,0" transform="translate(-53.902 -120.866)"/><path d="M261.269,131.4a.254.254,0,0,0-.254-.254h-4.55a.254.254,0,0,0-.254.254v1.281a.254.254,0,0,0,.254.254h4.55a.254.254,0,0,0,.254-.254Zm-.508,1.027h-4.042v-.774h4.042Zm0,0" transform="translate(-249.768 -127.81)"/><path d="M.074,316.112a.255.255,0,0,0,.279.1A.254.254,0,1,0,.1,315.8a.256.256,0,0,0-.028.316Zm0,0" transform="translate(-0.092 -307.703)"/></g></g></svg>