<svg xmlns="http://www.w3.org/2000/svg" width="423" height="264.624" viewBox="0 0 423 264.624"><g transform="translate(-1453.101 -763.282)"><path d="M1865.786,1808.279H1456.88a3.786,3.786,0,0,1-3.78-3.783v-2.013a3.787,3.787,0,0,1,3.78-3.783h408.906a3.787,3.787,0,0,1,3.78,3.783v2.013A3.756,3.756,0,0,1,1865.786,1808.279Z" transform="translate(0 -784.529)" fill="#95a6db"/><g transform="translate(1530.421 763.282)"><g transform="translate(120.653)"><path d="M2271.575,789.453a18.667,18.667,0,1,0,9.6-24.591A18.652,18.652,0,0,0,2271.575,789.453Z" transform="translate(-2269.998 -763.282)" fill="#7c9af2"/><path d="M2285.054,798.586a15.34,15.34,0,0,0,20.2,7.906,17.016,17.016,0,0,0,2.28-1.237,15.331,15.331,0,0,0,6.717-15.157,14.52,14.52,0,0,0-1.115-3.807A15.319,15.319,0,0,0,2299,777.1a15.424,15.424,0,0,0-10.549,4.268,12.268,12.268,0,0,0-1.091,1.164,15.334,15.334,0,0,0-2.3,16.054Z" transform="translate(-2280.421 -773.749)" fill="#92b5f8"/></g><g transform="translate(154.947 70.153)"><path d="M2413.451,1084.014a22.24,22.24,0,1,0,11.447-29.3A22.22,22.22,0,0,0,2413.451,1084.014Z" transform="translate(-2411.579 -1052.836)" fill="#7c9af2"/><path d="M2429.5,1094.884a18.265,18.265,0,0,0,24.057,9.41,17.222,17.222,0,0,0,2.716-1.479,18.674,18.674,0,0,0,3.808-3.347,17.743,17.743,0,0,0,1.164-1.5,18.124,18.124,0,0,0,1.722-17.727,18.25,18.25,0,0,0-16.855-10.937,18.569,18.569,0,0,0-7.2,1.528,18.2,18.2,0,0,0-5.335,3.565,13.837,13.837,0,0,0-1.285,1.382,18.365,18.365,0,0,0-2.789,19.11Z" transform="translate(-2423.993 -1065.306)" fill="#92b5f8"/></g><g transform="translate(0 84.69)"><path d="M1773.819,1144.014a22.24,22.24,0,1,0,11.447-29.3A22.22,22.22,0,0,0,1773.819,1144.014Z" transform="translate(-1771.936 -1112.836)" fill="#7c9af2"/><path d="M1789.876,1154.884a18.265,18.265,0,0,0,24.057,9.409,17.183,17.183,0,0,0,2.716-1.479,18.666,18.666,0,0,0,3.807-3.347,17.69,17.69,0,0,0,1.164-1.5,18.125,18.125,0,0,0,1.722-17.728,18.25,18.25,0,0,0-16.854-10.937,18.57,18.57,0,0,0-7.2,1.528,18.194,18.194,0,0,0-5.335,3.565,13.8,13.8,0,0,0-1.285,1.382,18.368,18.368,0,0,0-2.789,19.11Z" transform="translate(-1784.355 -1125.306)" fill="#92b5f8"/><path d="M1871.8,1271.744c1.964-.412,2.352-.242,3.444,1.431-.412-1.94-.266-2.328,1.431-3.444-1.964.412-2.352.242-3.444-1.431C1873.643,1270.289,1873.473,1270.677,1871.8,1271.744Z" transform="translate(-1847.582 -1230.599)" fill="#fff"/></g><g transform="translate(63.743 41.627)"><path d="M2035.2,951.6l12.611,33.66,39.7,105.88,4.1,10.961,11.859-4.389,65.793-24.348-30.436-81-15.52-41.227-.17-.485L2079.216,935.3Z" transform="translate(-2035.2 -935.3)" fill="#6a86ce"/><path d="M2157.9,974.4l-29.78,11.034a13.967,13.967,0,0,1-8.221,17.921l37.056,98.217a13.959,13.959,0,0,1,17.921,8.245l29.78-11.034a13.967,13.967,0,0,1,8.221-17.921l-37.055-98.217A14,14,0,0,1,2157.9,974.4Z" transform="translate(-2099.36 -964.918)" fill="#7c9af2"/><path d="M2228.2,1142.289a23.141,23.141,0,1,0,29.732,13.677A23.168,23.168,0,0,0,2228.2,1142.289Z" transform="translate(-2169.946 -1090.998)" fill="#6a86ce"/><path d="M2216.7,935.3l17.461,31.623,26.627-15.787.461-.267-.63-.218Z" transform="translate(-2172.685 -935.3)" fill="#6a86ce"/><g transform="translate(41.081)"><path d="M2319.257,1011.149l-30.557,5.238,26.627-15.787Z" transform="translate(-2268.305 -984.764)" fill="#193f1e" opacity="0.2"/><path d="M2207.535,935.3,2225,966.923l-20.4-30.556Z" transform="translate(-2204.6 -935.3)" fill="#193f1e" opacity="0.2"/></g><path d="M2087.2,1141.3l39.7,105.88,15.957,6.572,65.793-24.348-30.435-81H2164.1c-5.335,0-9.87,8.245-11.568,19.789Z" transform="translate(-2074.59 -1091.343)" fill="#193f1e" opacity="0.2"/></g><g transform="translate(9.99 81.927)"><rect width="82.793" height="193.354" transform="translate(0 76.559) rotate(-67.623)" fill="#6a86ce"/><path d="M1918.4,1197.491l-12.1,29.368a13.968,13.968,0,0,1,7.591,18.188l127.221,52.382a13.928,13.928,0,0,1,18.188-7.591l12.1-29.368a13.968,13.968,0,0,1-7.59-18.188L1936.59,1189.9A13.968,13.968,0,0,1,1918.4,1197.491Z" transform="translate(-1883.705 -1168.578)" fill="#7c9af2"/><circle cx="23.136" cy="23.136" r="23.136" transform="translate(73.616 73.845) rotate(-45)" fill="#6a86ce"/></g><g transform="translate(144.227 104.868)"><path d="M2367.5,1225.789v81.556h82.817v-81.556h-58.275c-.048-16.321-5.529-29.489-12.271-29.489s-12.2,13.193-12.271,29.489Z" transform="translate(-2367.5 -1196.3)" fill="#6a86ce"/><rect width="58.251" height="91.669" transform="translate(12.271 0.121)" fill="#7c9af2"/><circle cx="20.662" cy="20.662" r="20.662" transform="translate(12.17 51.254) rotate(-45)" fill="#6a86ce"/><path d="M2367.5,1225.789v8.342h82.817V1196.3H2379.8c-6.766.024-12.222,13.193-12.3,29.489Z" transform="translate(-2367.5 -1196.3)" fill="#193f1e" opacity="0.2"/><path d="M2418.1,1196.4c6.741,0,12.2,13.168,12.271,29.489h82.793c-.048-16.3-5.529-29.489-12.271-29.489Z" transform="translate(-2405.829 -1196.376)" fill="#6a86ce"/><path d="M2479.7,1196.4c2.983,0,5.6,2.692,7.106,6.79a8.21,8.21,0,0,1,8.245,7.93v.024h41.858v-.024a8.09,8.09,0,0,1,7.129-7.833c-1.5-4.147-4.147-6.887-7.154-6.887Z" transform="translate(-2452.49 -1196.376)" fill="#7c9af2"/></g><path d="M2081.269,1449.58v-3.88H1880.3l10.282,4.1Z" transform="translate(-1854.021 -1280.34)" fill="#193f1e" opacity="0.2"/><g transform="translate(255.05 173.996)"><circle cx="36.886" cy="36.886" r="36.886" transform="translate(0 71.153) rotate(-74.692)" fill="#7c9af2"/><path d="M2892.354,1590.908a30.291,30.291,0,0,0,42.1,7.954,30.738,30.738,0,0,0,4-3.25,29.919,29.919,0,0,0,5.166-6.621c.533-.922.994-1.843,1.43-2.789a30.244,30.244,0,0,0,.922-22.432,30.659,30.659,0,0,0-3.54-7.009,30.292,30.292,0,0,0-42.1-7.979,30.876,30.876,0,0,0-7.615,7.445c-.607.849-1.164,1.746-1.7,2.643a30.381,30.381,0,0,0,1.334,32.036Z" transform="translate(-2872.039 -1528.516)" fill="#92b5f8"/><path d="M2910.3,1557.95l52.334,29.974a30.251,30.251,0,0,0,.921-22.432l-34.364-19.692a30.364,30.364,0,0,0-18.891,12.15Z" transform="translate(-2889.621 -1530.237)" fill="#a7c1e9"/><path d="M2890.6,1614.709l50.515,28.931a29.939,29.939,0,0,0,5.165-6.62l-52.6-30.12A30.475,30.475,0,0,0,2890.6,1614.709Z" transform="translate(-2874.698 -1576.52)" fill="#a7c1e9"/><path d="M3046.2,1525.383c3.323,2.765,3.565,3.613,2.183,7.663,2.717-3.3,3.565-3.565,7.663-2.183-3.322-2.765-3.565-3.613-2.183-7.663C3051.1,1526.523,3050.25,1526.765,3046.2,1525.383Z" transform="translate(-2992.564 -1513.118)" fill="#fff"/></g><g transform="translate(32.092 134.07)"><path d="M1906.411,1352.156a25.313,25.313,0,1,0,13.023-33.345A25.3,25.3,0,0,0,1906.411,1352.156Z" transform="translate(-1904.269 -1316.669)" fill="#7c9af2"/><path d="M1924.641,1364.624a20.772,20.772,0,0,0,27.38,10.695,22.423,22.423,0,0,0,3.1-1.673,19.7,19.7,0,0,0,4.317-3.807c.461-.558.9-1.116,1.309-1.7a20.851,20.851,0,0,0,3.468-15.011,21.246,21.246,0,0,0-1.5-5.165,20.776,20.776,0,0,0-27.38-10.719,21.058,21.058,0,0,0-6.063,4.05c-.509.509-1.018,1.019-1.479,1.576a20.718,20.718,0,0,0-3.153,21.754Z" transform="translate(-1918.377 -1330.932)" fill="#92b5f8"/><path d="M1949.2,1341.3l31.5,26.846a20.852,20.852,0,0,0,3.468-15.011l-20.686-17.631a20.923,20.923,0,0,0-8.2,1.746A19.941,19.941,0,0,0,1949.2,1341.3Z" transform="translate(-1938.304 -1330.933)" fill="#a7c1e9"/><path d="M1930.5,1370.775l30.386,25.9a19.707,19.707,0,0,0,4.317-3.807l-31.648-26.967A21.133,21.133,0,0,0,1930.5,1370.775Z" transform="translate(-1924.139 -1353.961)" fill="#a7c1e9"/><path d="M2049,1332.01c1.892,2.28,1.94,2.886.509,5.457,2.255-1.892,2.861-1.94,5.457-.51-1.892-2.279-1.94-2.886-.509-5.457C2052.153,1333.416,2051.546,1333.464,2049,1332.01Z" transform="translate(-2013.901 -1327.903)" fill="#fff"/></g><path d="M1891.374,1548.031H2089.7a11.374,11.374,0,0,0,11.374-11.374v-63.683A11.375,11.375,0,0,0,2089.7,1461.6H1891.374A11.374,11.374,0,0,0,1880,1472.974v63.683A11.374,11.374,0,0,0,1891.374,1548.031Z" transform="translate(-1853.794 -1292.461)" fill="#4e73e6"/><rect width="10.258" height="86.479" transform="translate(141.729 255.626) rotate(180)" fill="#2e5be6"/><g transform="translate(31.275 173.844)"><path d="M1907.836,1557.221a.818.818,0,0,1,.824-.824h5.6a.825.825,0,1,1,0,1.649h-5.578A.838.838,0,0,1,1907.836,1557.221Zm11.18,0a.818.818,0,0,1,.825-.824h5.578a.825.825,0,1,1,0,1.649h-5.578A.833.833,0,0,1,1919.016,1557.221Zm11.155,0a.818.818,0,0,1,.824-.824h5.578a.825.825,0,1,1,0,1.649H1931A.818.818,0,0,1,1930.171,1557.221Zm11.131,0a.818.818,0,0,1,.825-.824h5.578a.825.825,0,0,1,0,1.649h-5.578A.833.833,0,0,1,1941.3,1557.221Zm11.155,0a.818.818,0,0,1,.825-.824h5.578a.825.825,0,1,1,0,1.649h-5.578A.818.818,0,0,1,1952.458,1557.221Zm11.156,0a.818.818,0,0,1,.824-.824h5.578a.825.825,0,1,1,0,1.649h-5.578A.818.818,0,0,1,1963.614,1557.221Zm11.131,0a.818.818,0,0,1,.824-.824h5.578a.825.825,0,0,1,0,1.649h-5.578A.833.833,0,0,1,1974.745,1557.221Zm11.156,0a.818.818,0,0,1,.825-.824h5.578a.825.825,0,0,1,0,1.649h-5.578A.818.818,0,0,1,1985.9,1557.221Zm11.131,0a.818.818,0,0,1,.824-.824h5.578a.825.825,0,0,1,0,1.649h-5.578A.833.833,0,0,1,1997.031,1557.221Zm11.156,0a.818.818,0,0,1,.824-.824h5.578a.825.825,0,0,1,0,1.649h-5.578A.818.818,0,0,1,2008.187,1557.221Zm11.156,0a.817.817,0,0,1,.824-.824h5.578a.825.825,0,0,1,0,1.649h-5.578A.818.818,0,0,1,2019.343,1557.221Zm11.131,0a.817.817,0,0,1,.824-.824h5.578a.825.825,0,0,1,0,1.649H2031.3A.833.833,0,0,1,2030.474,1557.221Zm11.155,0a.818.818,0,0,1,.825-.824h5.578a.825.825,0,1,1,0,1.649h-5.578A.818.818,0,0,1,2041.629,1557.221Zm11.131,0a.818.818,0,0,1,.824-.824h5.578a.825.825,0,0,1,0,1.649h-5.578A.833.833,0,0,1,2052.76,1557.221Zm11.156,0a.818.818,0,0,1,.825-.824h5.578a.825.825,0,0,1,0,1.649h-5.578A.818.818,0,0,1,2063.916,1557.221Zm11.156,0a.818.818,0,0,1,.825-.824h5.578a.825.825,0,0,1,0,1.649H2075.9A.818.818,0,0,1,2075.071,1557.221Zm11.131,0a.818.818,0,0,1,.824-.824h5.578a.825.825,0,0,1,0,1.649h-5.578A.833.833,0,0,1,2086.2,1557.221Zm11.155,0a.818.818,0,0,1,.825-.824h5.577a.825.825,0,1,1,0,1.649h-5.577A.818.818,0,0,1,2097.358,1557.221Zm10.865-1.358a.842.842,0,0,1,.024-1.188,6.036,6.036,0,0,0,1.892-4.389.833.833,0,0,1,.824-.824h0a.838.838,0,0,1,.824.849,7.732,7.732,0,0,1-2.425,5.578.9.9,0,0,1-.582.242A.854.854,0,0,1,2108.222,1555.863Zm-205.115-.194a7.776,7.776,0,0,1-2.183-5.408v-.218a.825.825,0,1,1,1.649,0v.218a6.019,6.019,0,0,0,1.722,4.244.841.841,0,0,1-.024,1.188.894.894,0,0,1-.582.243A.87.87,0,0,1,1903.107,1555.669Zm207.055-10.937v-5.578a.825.825,0,1,1,1.649,0v5.578a.825.825,0,1,1-1.649,0Zm-209.262-.291v-5.578a.825.825,0,1,1,1.649,0v5.578a.825.825,0,1,1-1.649,0Zm209.262-10.84v-5.578a.825.825,0,0,1,1.649,0v5.578a.825.825,0,1,1-1.649,0Zm-209.262-.291v-5.578a.825.825,0,1,1,1.649,0v5.578a.818.818,0,0,1-.825.825A.833.833,0,0,1,1900.9,1533.31Zm209.262-10.864v-5.578a.825.825,0,1,1,1.649,0v5.578a.825.825,0,0,1-1.649,0Zm-209.262-.291v-5.578a.825.825,0,1,1,1.649,0v5.578a.825.825,0,1,1-1.649,0Zm209.262-10.84v-5.578a.825.825,0,1,1,1.649,0v5.578a.825.825,0,1,1-1.649,0ZM1900.9,1511v-5.578a.825.825,0,1,1,1.649,0V1511a.818.818,0,0,1-.825.824A.8.8,0,0,1,1900.9,1511Zm209.262-10.84v-5.578a.825.825,0,1,1,1.649,0v5.578a.825.825,0,1,1-1.649,0Zm-209.262-.291v-5.578a.825.825,0,0,1,1.649,0v5.578a.818.818,0,0,1-.825.825A.833.833,0,0,1,1900.9,1499.867ZM2110.162,1489v-.218a6.118,6.118,0,0,0-1.722-4.268.84.84,0,1,1,1.213-1.164,7.814,7.814,0,0,1,2.207,5.432V1489a.818.818,0,0,1-.825.824A.86.86,0,0,1,2110.162,1489Zm-208.437.558a.838.838,0,0,1-.824-.849,7.827,7.827,0,0,1,2.425-5.578.84.84,0,0,1,1.164,1.213,6.1,6.1,0,0,0-1.916,4.365.829.829,0,0,1-.849.849Zm6.427-7.736a.818.818,0,0,1,.824-.825h5.578a.825.825,0,0,1,0,1.649h-5.578A.818.818,0,0,1,1908.151,1481.825Zm11.156,0a.818.818,0,0,1,.825-.825h5.578a.825.825,0,0,1,0,1.649h-5.578A.8.8,0,0,1,1919.307,1481.825Zm11.131,0a.818.818,0,0,1,.824-.825h5.578a.825.825,0,0,1,0,1.649h-5.578A.818.818,0,0,1,1930.438,1481.825Zm11.156,0a.818.818,0,0,1,.824-.825H1948a.825.825,0,0,1,0,1.649h-5.578A.8.8,0,0,1,1941.594,1481.825Zm11.155,0a.818.818,0,0,1,.825-.825h5.578a.825.825,0,0,1,0,1.649h-5.578A.8.8,0,0,1,1952.749,1481.825Zm11.131,0a.818.818,0,0,1,.824-.825h5.578a.825.825,0,0,1,0,1.649H1964.7A.817.817,0,0,1,1963.88,1481.825Zm11.155,0a.818.818,0,0,1,.824-.825h5.578a.825.825,0,1,1,0,1.649h-5.578A.8.8,0,0,1,1975.036,1481.825Zm11.131,0a.818.818,0,0,1,.825-.825h5.578a.825.825,0,0,1,0,1.649h-5.578A.818.818,0,0,1,1986.167,1481.825Zm11.156,0a.818.818,0,0,1,.825-.825h5.578a.825.825,0,0,1,0,1.649h-5.578A.8.8,0,0,1,1997.322,1481.825Zm11.156,0a.817.817,0,0,1,.824-.825h5.578a.825.825,0,0,1,0,1.649H2009.3A.8.8,0,0,1,2008.478,1481.825Zm11.131,0a.818.818,0,0,1,.824-.825h5.578a.825.825,0,1,1,0,1.649h-5.578A.818.818,0,0,1,2019.609,1481.825Zm11.156,0a.818.818,0,0,1,.824-.825h5.578a.825.825,0,1,1,0,1.649h-5.578A.8.8,0,0,1,2030.765,1481.825Zm11.131,0a.818.818,0,0,1,.825-.825h5.578a.825.825,0,1,1,0,1.649h-5.578A.818.818,0,0,1,2041.9,1481.825Zm11.155,0a.818.818,0,0,1,.824-.825h5.578a.825.825,0,1,1,0,1.649h-5.578A.8.8,0,0,1,2053.051,1481.825Zm11.131,0a.818.818,0,0,1,.824-.825h5.578a.825.825,0,0,1,0,1.649h-5.578A.818.818,0,0,1,2064.182,1481.825Zm11.155,0a.818.818,0,0,1,.825-.825h5.578a.825.825,0,0,1,0,1.649h-5.578A.8.8,0,0,1,2075.338,1481.825Zm11.156,0a.817.817,0,0,1,.824-.825h5.578a.825.825,0,0,1,0,1.649h-5.578A.8.8,0,0,1,2086.494,1481.825Zm11.131,0a.817.817,0,0,1,.824-.825h5.578a.818.818,0,0,1,.825.825.839.839,0,0,1-.849.825h-5.554A.817.817,0,0,1,2097.625,1481.825Z" transform="translate(-1900.9 -1481)" fill="#7292f7"/></g><g transform="translate(43.085 189.243)"><path d="M1953.917,1589.583h71.9a4.326,4.326,0,0,0,4.317-4.317v-36.449a4.326,4.326,0,0,0-4.317-4.317h-71.9a4.327,4.327,0,0,0-4.317,4.317v36.449A4.3,4.3,0,0,0,1953.917,1589.583Z" transform="translate(-1949.6 -1544.5)" fill="#7292f7"/><g transform="translate(6.063 6.645)"><path d="M1975.813,1576.266h34.727a1.217,1.217,0,0,0,1.213-1.213v-1.94a1.216,1.216,0,0,0-1.213-1.213h-34.727a1.216,1.216,0,0,0-1.212,1.213v1.94A1.232,1.232,0,0,0,1975.813,1576.266Z" transform="translate(-1974.6 -1571.9)" fill="#4e73e6"/><path d="M2049.013,1649.465h16.976a1.216,1.216,0,0,0,1.213-1.213v-1.94a1.216,1.216,0,0,0-1.213-1.212h-16.976a1.216,1.216,0,0,0-1.213,1.212v1.94A1.233,1.233,0,0,0,2049.013,1649.465Z" transform="translate(-2030.048 -1627.348)" fill="#4e73e6"/><path d="M1975.813,1686.065h34.727a1.216,1.216,0,0,0,1.213-1.212v-1.94a1.216,1.216,0,0,0-1.213-1.212h-34.727a1.216,1.216,0,0,0-1.212,1.212v1.94A1.248,1.248,0,0,0,1975.813,1686.065Z" transform="translate(-1974.6 -1655.073)" fill="#4e73e6"/><path d="M2009.813,1612.865h26.482a1.216,1.216,0,0,0,1.213-1.213v-1.94a1.216,1.216,0,0,0-1.213-1.213h-26.482a1.217,1.217,0,0,0-1.213,1.213v1.94A1.232,1.232,0,0,0,2009.813,1612.865Z" transform="translate(-2000.355 -1599.624)" fill="#4e73e6"/></g><g transform="translate(47.193 6.669)"><rect width="26.894" height="30.969" fill="#fff"/><path d="M2144.2,1665.683v4.777h26.894v-4.777c-2.085-2.692-7.324-4.584-13.459-4.584C2151.524,1661.075,2146.31,1662.991,2144.2,1665.683Z" transform="translate(-2144.2 -1639.492)" fill="#4e73e6"/><g transform="translate(6.499 5.99)"><path d="M2171,1603.66a6.96,6.96,0,1,0,6.96-6.96A6.96,6.96,0,0,0,2171,1603.66Z" transform="translate(-2171 -1596.7)" fill="#060534"/><path d="M2174.1,1610.375v.339a6.209,6.209,0,0,0,12.417.024v-.364a6.51,6.51,0,0,0-2.934-5.5,5.9,5.9,0,0,0-3.274-.97,6.32,6.32,0,0,0-6.208,6.475Z" transform="translate(-2173.348 -1602.154)" fill="#fb9491"/><path d="M2174.1,1610.033v.315a7.715,7.715,0,0,0,1.5.122,8.4,8.4,0,0,0,6.135-2.643,8.3,8.3,0,0,0,1.843-3.08,6.079,6.079,0,0,0-3.274-.946c-.218,0-.461.024-.679.024A6.267,6.267,0,0,0,2174.1,1610.033Z" transform="translate(-2173.348 -1602.078)" fill="#060534"/><path d="M2196.9,1603.993a8.332,8.332,0,0,0,2.11,3.977,8.538,8.538,0,0,0,4.777,2.546v-.339a6.153,6.153,0,0,0-2.934-5.263,6.081,6.081,0,0,0-3.274-.946A3.194,3.194,0,0,0,2196.9,1603.993Z" transform="translate(-2190.619 -1602.198)" fill="#060534"/></g></g></g><g transform="translate(146.909 185.712)"><g transform="translate(7.275)"><path d="M2408.5,1534.38v4.268h72.123v-4.268a4.683,4.683,0,0,0-4.681-4.68h-62.786A4.678,4.678,0,0,0,2408.5,1534.38Z" transform="translate(-2408.5 -1529.7)" fill="#92b5f8"/></g><g transform="translate(0 7.154)"><rect width="85.024" height="1.795" fill="#2e5be6"/></g></g><g transform="translate(146.909 197.803)"><g transform="translate(7.275)"><path d="M2408.5,1584.281v2.74h72.123v-2.74a4.683,4.683,0,0,0-4.681-4.68h-62.786A4.663,4.663,0,0,0,2408.5,1584.281Z" transform="translate(-2408.5 -1579.6)" fill="#f57c00"/></g><g transform="translate(0 6.96)"><rect width="85.024" height="1.795" fill="#2e5be6"/></g></g><g transform="translate(146.909 210.428)"><g transform="translate(7.275)"><path d="M2408.5,1636.381v3.977h72.123v-3.977a4.683,4.683,0,0,0-4.681-4.681h-62.786A4.694,4.694,0,0,0,2408.5,1636.381Z" transform="translate(-2408.5 -1631.7)" fill="#0b0754"/></g><g transform="translate(0 6.887)"><rect width="85.024" height="1.795" fill="#2e5be6"/></g></g><g transform="translate(223.659 245.627)"><path d="M2695.3,1780.323v4.7a3.312,3.312,0,0,0,3.322,3.323H2755.9a3.312,3.312,0,0,0,3.322-3.323v-4.7a3.242,3.242,0,0,0-.776-2.134A3.312,3.312,0,0,0,2755.9,1777h-57.281a3.351,3.351,0,0,0-2.546,1.188A3.29,3.29,0,0,0,2695.3,1780.323Z" transform="translate(-2695.3 -1777)" fill="#92b5f8"/><rect width="1.673" height="11.325" transform="translate(59.076 0)" fill="#7c9af2"/><rect width="1.673" height="11.325" transform="translate(52.115 0)" fill="#7c9af2"/><rect width="1.673" height="11.325" transform="translate(45.131 0)" fill="#7c9af2"/><rect width="1.673" height="11.325" transform="translate(38.147 0)" fill="#7c9af2"/><rect width="1.673" height="11.325" transform="translate(31.187 0)" fill="#7c9af2"/><rect width="1.673" height="11.325" transform="translate(24.203 0)" fill="#7c9af2"/><rect width="1.673" height="11.325" transform="translate(17.218 0)" fill="#7c9af2"/><rect width="1.673" height="11.325" transform="translate(10.258 0)" fill="#7c9af2"/><rect width="1.673" height="11.325" transform="translate(3.274 0)" fill="#7c9af2"/><path d="M2698.5,1778.188h62.35A3.313,3.313,0,0,0,2758.3,1777h-57.257A3.351,3.351,0,0,0,2698.5,1778.188Z" transform="translate(-2697.724 -1777)" fill="#7c9af2"/><path d="M2698.5,1818.9h62.35a3.314,3.314,0,0,1-2.546,1.188h-57.257A3.351,3.351,0,0,1,2698.5,1818.9Z" transform="translate(-2697.724 -1808.739)" fill="#7c9af2"/></g><g transform="translate(227.922 234.277)"><path d="M2712.9,1733.622v4.7a3.312,3.312,0,0,0,3.323,3.323H2773.5a3.312,3.312,0,0,0,3.322-3.323v-4.7a3.239,3.239,0,0,0-.776-2.134,3.311,3.311,0,0,0-2.546-1.188h-57.281a3.351,3.351,0,0,0-2.546,1.188A3.243,3.243,0,0,0,2712.9,1733.622Z" transform="translate(-2712.9 -1730.276)" fill="#92b5f8"/><rect width="1.673" height="11.325" transform="translate(59.076 0.024)" fill="#7c9af2"/><rect width="1.673" height="11.325" transform="translate(52.091 0.024)" fill="#7c9af2"/><rect width="1.673" height="11.325" transform="translate(45.107 0.024)" fill="#7c9af2"/><rect width="1.673" height="11.325" transform="translate(38.147 0.024)" fill="#7c9af2"/><rect width="1.673" height="11.325" transform="translate(31.163 0.024)" fill="#7c9af2"/><rect width="1.673" height="11.325" transform="translate(24.178 0.024)" fill="#7c9af2"/><rect width="1.673" height="11.325" transform="translate(17.218 0.024)" fill="#7c9af2"/><rect width="1.673" height="11.325" transform="translate(10.234 0.024)" fill="#7c9af2"/><rect width="1.673" height="11.325" transform="translate(3.25 0.024)" fill="#7c9af2"/><path d="M2716.1,1731.388h62.35a3.313,3.313,0,0,0-2.547-1.188h-57.281A3.471,3.471,0,0,0,2716.1,1731.388Z" transform="translate(-2715.324 -1730.2)" fill="#7c9af2"/><path d="M2716.1,1772.2h62.35a3.314,3.314,0,0,1-2.547,1.188h-57.281A3.47,3.47,0,0,1,2716.1,1772.2Z" transform="translate(-2715.324 -1762.015)" fill="#7c9af2"/></g><g transform="translate(13.329 245.772)"><path d="M1826.9,1780.9v4.656a3.3,3.3,0,0,0,3.3,3.3h56.869a3.3,3.3,0,0,0,3.3-3.3V1780.9a3.284,3.284,0,0,0-3.3-3.3H1830.2a3.284,3.284,0,0,0-3.3,3.3Z" transform="translate(-1826.9 -1777.6)" fill="#92b5f8"/><rect width="1.649" height="11.252" transform="translate(58.663 0)" fill="#7c9af2"/><rect width="1.649" height="11.252" transform="translate(51.727 0)" fill="#7c9af2"/><rect width="1.649" height="11.252" transform="translate(44.816 0)" fill="#7c9af2"/><rect width="1.649" height="11.252" transform="translate(37.88 0)" fill="#7c9af2"/><rect width="1.649" height="11.252" transform="translate(30.944 0)" fill="#7c9af2"/><rect width="1.649" height="11.252" transform="translate(24.033 0)" fill="#7c9af2"/><rect width="1.649" height="11.252" transform="translate(17.097 0)" fill="#7c9af2"/><rect width="1.649" height="11.252" transform="translate(10.185 0)" fill="#7c9af2"/><rect width="1.649" height="11.252" transform="translate(3.25 0)" fill="#7c9af2"/><path d="M1830.1,1778.764h61.913a3.32,3.32,0,0,0-2.522-1.164h-56.869A3.32,3.32,0,0,0,1830.1,1778.764Z" transform="translate(-1829.324 -1777.6)" fill="#7c9af2"/><path d="M1830.1,1819.2h61.913a3.321,3.321,0,0,1-2.522,1.164h-56.869A3.322,3.322,0,0,1,1830.1,1819.2Z" transform="translate(-1829.324 -1809.112)" fill="#7c9af2"/></g><g transform="translate(9.352 234.52)"><path d="M1810.5,1734.5v4.656a3.3,3.3,0,0,0,3.3,3.3h56.869a3.3,3.3,0,0,0,3.3-3.3V1734.5a3.284,3.284,0,0,0-3.3-3.3H1813.8a3.284,3.284,0,0,0-3.3,3.3Z" transform="translate(-1810.5 -1731.2)" fill="#92b5f8"/><rect width="1.649" height="11.252" transform="translate(58.663)" fill="#7c9af2"/><rect width="1.649" height="11.252" transform="translate(51.728)" fill="#7c9af2"/><rect width="1.649" height="11.252" transform="translate(44.816)" fill="#7c9af2"/><rect width="1.649" height="11.252" transform="translate(37.88)" fill="#7c9af2"/><rect width="1.649" height="11.252" transform="translate(30.944)" fill="#7c9af2"/><rect width="1.649" height="11.252" transform="translate(24.033)" fill="#7c9af2"/><rect width="1.649" height="11.252" transform="translate(17.097)" fill="#7c9af2"/><rect width="1.649" height="11.252" transform="translate(10.161)" fill="#7c9af2"/><rect width="1.649" height="11.252" transform="translate(3.25)" fill="#7c9af2"/><path d="M1813.7,1732.364h61.913a3.321,3.321,0,0,0-2.522-1.164h-56.869A3.32,3.32,0,0,0,1813.7,1732.364Z" transform="translate(-1812.924 -1731.2)" fill="#7c9af2"/><path d="M1813.7,1772.8h61.913a3.321,3.321,0,0,1-2.522,1.164h-56.869A3.32,3.32,0,0,1,1813.7,1772.8Z" transform="translate(-1812.924 -1762.712)" fill="#7c9af2"/></g><g transform="translate(220.897 222.952)"><path d="M2683.9,1686.822v4.7a3.312,3.312,0,0,0,3.323,3.322H2744.5a3.312,3.312,0,0,0,3.322-3.322v-4.7a3.242,3.242,0,0,0-.776-2.134,3.312,3.312,0,0,0-2.546-1.188h-57.281a3.322,3.322,0,0,0-3.323,3.322Z" transform="translate(-2683.9 -1683.5)" fill="#92b5f8"/><rect width="1.673" height="11.325" transform="translate(59.076 0.024)" fill="#7c9af2"/><rect width="1.673" height="11.325" transform="translate(52.116 0.024)" fill="#7c9af2"/><rect width="1.673" height="11.325" transform="translate(45.131 0.024)" fill="#7c9af2"/><rect width="1.673" height="11.325" transform="translate(38.147 0.024)" fill="#7c9af2"/><rect width="1.673" height="11.325" transform="translate(31.163 0.024)" fill="#7c9af2"/><rect width="1.673" height="11.325" transform="translate(24.203 0.024)" fill="#7c9af2"/><rect width="1.673" height="11.325" transform="translate(17.218 0.024)" fill="#7c9af2"/><rect width="1.673" height="11.325" transform="translate(10.234 0.024)" fill="#7c9af2"/><rect width="1.673" height="11.325" transform="translate(3.274 0.024)" fill="#7c9af2"/><path d="M2687.1,1684.689h62.35a3.315,3.315,0,0,0-2.547-1.188h-57.281A3.384,3.384,0,0,0,2687.1,1684.689Z" transform="translate(-2686.324 -1683.5)" fill="#7c9af2"/><path d="M2687.1,1725.4h62.35a3.314,3.314,0,0,1-2.547,1.188h-57.281A3.3,3.3,0,0,1,2687.1,1725.4Z" transform="translate(-2686.324 -1715.239)" fill="#7c9af2"/></g></g><g transform="translate(1463.454 821.133)"><g transform="translate(18.945 0)"><path d="M1612.039,1125.3h0l5.092.024,1.164,12.028-5.966,3.153-6.33-3.1,1.018-12.077Z" transform="translate(-1598.219 -1095.568)" fill="#fb9491"/><path d="M1588.559,1035.172c1.164,8.73,7.664,15.06,14.5,14.163,6.863-.922,11.471-8.731,10.307-17.437-1.164-8.73-7.663-15.06-14.5-14.163S1587.419,1026.442,1588.559,1035.172Z" transform="translate(-1584.877 -1014.025)" fill="#fb9491"/><path d="M1658.024,1090.7c1.261,1.649,2.862,3.637,2.862,3.637A3.127,3.127,0,0,1,1658,1096.5c.994-.533,1.94-1.31,1.382-2.643C1658.825,1092.543,1658.024,1090.7,1658.024,1090.7Z" transform="translate(-1637.609 -1069.359)" fill="#e08482"/><path d="M1577.338,1016.839c-.752-8.318,6.912-11.034,6.912-11.034s-1.722-.606-1.285-3.1a6.6,6.6,0,0,0,4.1.946c9.506-.946,15.5.63,14.55,4.341-.339,1.334,5.82,2.013,3.08,10.792-.582-1.043-1.115-4.947-2.959-5.8-1.843-.873-.752,2.182-4.947,1.7-4.244-.485-6.984-2.231-10.088-.558-2.474,1.528-5.554,11.641-5.408,12.32C1580.927,1024.866,1577.653,1020.5,1577.338,1016.839Z" transform="translate(-1576.469 -1002.7)" fill="#060534"/><path d="M1617.838,1088.577s-.8,4.753-1.843,6.014c-.218-2.037-4.7-.752-6.645-.582-3.516.315-7.105-2.813-8.294,1.819-4.487.267-6.111-9.628-6.111-9.628-2.765,9.87,2.183,17.073,13.071,18.067C1615.171,1104.922,1619.148,1095.779,1617.838,1088.577Z" transform="translate(-1589.274 -1065.95)" fill="#060534"/><path d="M1633.075,1081.091a1.2,1.2,0,1,1,1.115-1.285A1.181,1.181,0,0,1,1633.075,1081.091Z" transform="translate(-1617.752 -1060.259)"/><path d="M1674.375,1079.591a1.2,1.2,0,1,1,1.116-1.285A1.214,1.214,0,0,1,1674.375,1079.591Z" transform="translate(-1649.036 -1059.123)"/><g transform="translate(23.223 15.589)"><path d="M1673.8,1069.314a.563.563,0,0,1-.533-.267,1.753,1.753,0,0,0-1.164-.849,2.129,2.129,0,0,0-1.455.437.6.6,0,1,1-.752-.946,3.4,3.4,0,0,1,2.376-.679,2.972,2.972,0,0,1,1.989,1.358.584.584,0,0,1-.145.824A.473.473,0,0,1,1673.8,1069.314Z" transform="translate(-1669.675 -1066.981)" fill="#060534"/></g><g transform="translate(11.964 16.148)"><path d="M1623.891,1072.031a.768.768,0,0,1-.388-.1.614.614,0,0,1-.146-.849,3.779,3.779,0,0,1,2.5-1.77,3.044,3.044,0,0,1,2.11.534.6.6,0,0,1-.752.946,1.725,1.725,0,0,0-1.213-.291,2.615,2.615,0,0,0-1.649,1.261A.582.582,0,0,1,1623.891,1072.031Z" transform="translate(-1623.248 -1069.288)" fill="#060534"/></g><g transform="translate(0 19.092)"><path d="M1579.465,1082.607c1.5,1.431,1.77,3.589.606,4.8-1.164,1.237-3.322,1.067-4.826-.364s-1.77-3.589-.606-4.8S1577.986,1081.176,1579.465,1082.607Z" transform="translate(-1573.915 -1081.425)" fill="#fb9491"/><g transform="translate(2.145 1.719)"><path d="M1584.832,1092.195a.434.434,0,0,0,.17-.121,2.07,2.07,0,0,0,.412-2.474,2.183,2.183,0,0,0-2.3-1.043.447.447,0,0,0,.194.873,1.29,1.29,0,0,1,1.309.63,1.16,1.16,0,0,1-.291,1.407.457.457,0,0,0,.509.728Z" transform="translate(-1582.762 -1088.511)" fill="#e08482"/></g></g><path d="M1640.557,1122.141c-.048-.315.024-.606.34-.558a29.078,29.078,0,0,0,3.371.243c1.261,0,2.571-.121,3.371-.194.316-.024.388.267.316.582a3.716,3.716,0,0,1-3.638,2.692A4.015,4.015,0,0,1,1640.557,1122.141Z" transform="translate(-1624.385 -1092.749)" fill="#fff"/></g><path d="M1642.309,1775.1c4.511,6.208,15.569,2.4,15.206,10.816H1633.7a61.963,61.963,0,0,1,.752-8.318Z" transform="translate(-1600.256 -1587.785)"/><path d="M1538.509,1775.1c4.511,6.208,15.569,2.4,15.206,10.816H1529.9a62.023,62.023,0,0,1,.752-8.318Z" transform="translate(-1521.629 -1587.785)"/><path d="M1633.5,1383.2s2.74,39.844,1.625,48.7-5.044,20.2-4.584,49.5c-5.481,1.382-13.435,0-13.435,0s-1.188-33.127,4.608-47.92c-2.352-14.381-9.919-47.289-9.919-47.289Z" transform="translate(-1583.667 -1290.925)" fill="#060534"/><path d="M1558.739,1387.7s-5.5,44.719-8.221,53.207c-2.692,8.488-5.044,14.7-9.943,43.555-5.626.291-13.775.1-13.775.1s.728-35.746,9.506-44.088c.291-14.575-1.431-52.5-1.431-52.5Z" transform="translate(-1519.281 -1294.333)" fill="#0b0754"/><g transform="translate(12.806 40.391)"><path d="M1549.837,1171.471s9.579-3.347,12.78-1.819c9.919,4.777,12.2,0,12.2,0,3.177.267,12.756,1.819,12.756,1.819,0,10.695.7,21.414.509,29.513-.146,7.057,1.213,26.215,1.213,26.215a96.762,96.762,0,0,1-20.541,2.838,94.065,94.065,0,0,1-20.153-2.741s.534-19.425.97-26.627C1549.4,1192.594,1549.837,1182.141,1549.837,1171.471Z" transform="translate(-1548.6 -1169.253)" fill="#f57c00"/></g><g transform="translate(49.037 42.609)"><path d="M1717.741,1194.285c-3.953-9.434-15.69-15.424-17.024-15.885L1698,1190.5a70.608,70.608,0,0,1,9.725,6.936c-.7,3.371-.582,6.669-2.522,10.937,0,0,1.7-2.328,3.783-.946,2.037,1.334,5.772-1.406,5.772-1.406S1720.772,1201.487,1717.741,1194.285Z" transform="translate(-1698 -1178.4)" fill="#fcb061"/></g><g transform="translate(0 42.609)"><g transform="translate(39.17 3.662)"><path d="M1687.985,1229.561c.073.024.145.024.194.049h.218a1.093,1.093,0,0,0,.922-.752l10.549-33.976c.024-.073.024-.146.048-.194v-.218a.09.09,0,0,0-.024-.073,1.087,1.087,0,0,0-.727-.849c-.073-.024-.121-.024-.194-.048h-26.749l-10.622,36.11h26.434Z" transform="translate(-1660.56 -1193.5)" fill="#7c9af2"/><path d="M1669.191,1193.557a1.074,1.074,0,0,0-1.334.7l-10.476,33.9-.024.073a1.073,1.073,0,0,0,.7,1.334h0a1.074,1.074,0,0,0,1.334-.7l10.5-33.976A1.074,1.074,0,0,0,1669.191,1193.557Z" transform="translate(-1657.311 -1193.508)" fill="#6a86ce"/></g><path d="M1787.254,1260.449a1.826,1.826,0,0,1,.315-.146c0-.024-.024-.024-.024-.048a1.963,1.963,0,0,1,.1-2.668,1.873,1.873,0,0,1,.388-.17,1.578,1.578,0,0,1,.485-1.77,1.112,1.112,0,0,1,.679-.194,1.583,1.583,0,0,1,.533-1.867,1.7,1.7,0,0,1,2.3.679,1.741,1.741,0,0,1-.267,2.4,1.316,1.316,0,0,1-.582.218,1.814,1.814,0,0,1-.267,2.377,1.881,1.881,0,0,1-.388.17,1.578,1.578,0,0,1-.485,1.77,1.2,1.2,0,0,1-.631.194,1.352,1.352,0,0,1-.412,1.649,1.47,1.47,0,0,1-1.964-.582A1.423,1.423,0,0,1,1787.254,1260.449Z" transform="translate(-1716.173 -1235.18)" fill="#fb9491"/><path d="M1654.4,1258.323l2.425-1.406a4.6,4.6,0,0,1,4.56-3.516c-.437,1.431-1.092,3.516-1.092,3.516s1.916,1.479,6.451-1.067c4.438-.994,2.547,2.231,4,2.474,2.158.34-1.576,4.608-6.014,5.263-5.723.849-6.4-.34-6.4-.34l-3.249,1.14Z" transform="translate(-1615.936 -1235.212)" fill="#fb9491"/><path d="M1509.521,1205.512c8.075-.557,24.227-4.874,24.227-4.874,2.207,3.4,1.6,7.882,1.6,7.882-12.562,11.01-31.453,14.575-37.25,11.907-5.287-2.425-1.528-34.655,11.762-42.027Z" transform="translate(-1495.794 -1178.4)" fill="#fcb061"/></g><path d="M1716.816,1205.823a1.952,1.952,0,1,1-.97-2.789A2.135,2.135,0,0,1,1716.816,1205.823Z" transform="translate(-1660.358 -1154.362)" fill="#6a86ce"/><path d="M1735.434,1207.838a1.249,1.249,0,0,1-1.576.8,1.282,1.282,0,0,1-.582-1.673,1.175,1.175,0,1,1,2.158.873Z" transform="translate(-1675.606 -1156.766)" fill="#6a86ce"/></g><rect width="54.007" height="66.957" transform="translate(1566.589 952.307)" fill="#3662c1"/><rect width="55.292" height="82.817" transform="translate(1522.467 936.447)" fill="#6a86ce"/><g transform="translate(1543.401 962.808)"><rect width="56.456" height="56.456" fill="#7c9af2"/><rect width="26.215" height="10.719" transform="translate(22.917 9.264)" fill="#6a86ce"/><rect width="11.446" height="11.446" transform="translate(3.647 23.958) rotate(-28.967)" fill="#3662c1"/><path d="M1876.6,1698.272a6.572,6.572,0,1,0,6.572-6.572A6.562,6.562,0,0,0,1876.6,1698.272Z" transform="translate(-1864.281 -1666.285)" fill="#6a86ce"/></g></g></svg>