<svg xmlns="http://www.w3.org/2000/svg" width="22.138" height="22.137" viewBox="0 0 22.138 22.137"><g transform="translate(0.136 0)"><path d="M18.6,3.126a11.137,11.137,0,0,0-15.474,0A11.136,11.136,0,1,0,18.874,18.875,11.137,11.137,0,0,0,18.6,3.126ZM18.35,18.35h0A10.394,10.394,0,1,1,21.394,11a10.394,10.394,0,0,1-3.044,7.35Z" transform="translate(0.001)"/><g transform="translate(4.381 4.448)"><path d="M113.586,111.975,111.5,109.9a1.214,1.214,0,0,0-1.717,0h0l-1.2,1.2a.264.264,0,0,1-.338.03,13.779,13.779,0,0,1-3.219-3.159.26.26,0,0,1,.026-.338l1.225-1.225a1.214,1.214,0,0,0,0-1.715l-2.086-2.086a1.244,1.244,0,0,0-1.719,0l-.661.661a3.712,3.712,0,0,0-.921,3.787,11.136,11.136,0,0,0,1.359,2.755,14.44,14.44,0,0,0,4.169,4.1,10.627,10.627,0,0,0,3.089,1.374,3.577,3.577,0,0,0,.861.1,3.757,3.757,0,0,0,2.647-1.114l.568-.568a1.214,1.214,0,0,0,0-1.722Zm-.526,1.209h0v-.011l-.568.568a2.97,2.97,0,0,1-2.8.8,9.868,9.868,0,0,1-2.866-1.284,13.725,13.725,0,0,1-3.95-3.872,10.393,10.393,0,0,1-1.27-2.569,2.97,2.97,0,0,1,.742-3.033l.661-.661a.471.471,0,0,1,.667,0h0l2.086,2.086a.471.471,0,0,1,0,.667h0l-1.225,1.225a1,1,0,0,0-.1,1.3,14.625,14.625,0,0,0,3.4,3.334,1.006,1.006,0,0,0,1.284-.111l1.184-1.2a.471.471,0,0,1,.667,0h0l2.09,2.094a.471.471,0,0,1,0,.667Z" transform="translate(-100.712 -102.253)"/></g></g></svg>