<svg xmlns="http://www.w3.org/2000/svg" width="28" height="27.998" viewBox="0 0 28 27.998"><path d="M28.266,22.617,22.6,18.838a1.654,1.654,0,0,0-2.215.36L18.733,21.32a.706.706,0,0,1-.9.19l-.314-.173a18.978,18.978,0,0,1-4.946-3.884,19.055,19.055,0,0,1-3.885-4.946l-.172-.314a.706.706,0,0,1,.187-.908l2.121-1.65a1.655,1.655,0,0,0,.36-2.215L7.4,1.753a1.646,1.646,0,0,0-2.218-.5L2.811,2.677A3.343,3.343,0,0,0,1.287,4.655c-.853,3.109-.211,8.476,7.694,16.382,6.288,6.288,10.97,7.979,14.187,7.979a8.267,8.267,0,0,0,2.193-.286,3.34,3.34,0,0,0,1.978-1.524l1.425-2.368A1.646,1.646,0,0,0,28.266,22.617Zm-.305,1.74-1.422,2.37a2.411,2.411,0,0,1-1.423,1.1c-2.871.788-7.885.135-15.475-7.454S1.4,7.773,2.187,4.9a2.415,2.415,0,0,1,1.1-1.425l2.37-1.422a.714.714,0,0,1,.963.216L8.677,5.354,10.4,7.939a.718.718,0,0,1-.156.961L8.123,10.55a1.633,1.633,0,0,0-.433,2.1l.168.306A19.794,19.794,0,0,0,11.9,18.113a19.815,19.815,0,0,0,5.16,4.044l.307.169a1.633,1.633,0,0,0,2.1-.433l1.65-2.122a.719.719,0,0,1,.961-.156L27.744,23.4A.713.713,0,0,1,27.96,24.358Z" transform="translate(-1 -1.018)" fill="#707070"/></svg>