<svg xmlns="http://www.w3.org/2000/svg" width="28" height="20" viewBox="0 0 28 20"><g transform="translate(-22214 546)"><rect width="28" height="20" transform="translate(22214 -546)" fill="none"/><g transform="translate(-6.23 -1.606)"><g transform="translate(22221.23 -556.97)"><g transform="translate(3 13.576)"><g transform="translate(0 0)"><path d="M176.478,159.668a2.489,2.489,0,1,0,2.489,2.489A2.489,2.489,0,0,0,176.478,159.668Zm0,3.793a1.3,1.3,0,1,1,0-2.608h0a1.3,1.3,0,1,1,0,2.608Z" transform="translate(-166.396 -153.704)" fill="#707070"/><path d="M18.264,28.1,5,26.594a1.821,1.821,0,0,0-1.433.413,1.846,1.846,0,0,0-.7,1.263l-.243,1.992H1.871A1.952,1.952,0,0,0,0,32.277V42.21A1.846,1.846,0,0,0,1.8,44.1H15.2a1.994,1.994,0,0,0,2.04-1.894v-.389a2.429,2.429,0,0,0,.923-.389,2.016,2.016,0,0,0,.7-1.311l1.117-9.86A1.967,1.967,0,0,0,18.264,28.1ZM16.273,42.21a1.023,1.023,0,0,1-1.069.923H1.871a.874.874,0,0,1-.9-.848q0-.037,0-.075v-1.8l3.764-2.769a1.166,1.166,0,0,1,1.506.073L8.89,40.049a2.283,2.283,0,0,0,1.433.534,2.21,2.21,0,0,0,1.166-.316L16.273,37.5V42.21Zm0-5.853-5.295,3.084a1.239,1.239,0,0,1-1.433-.121L6.874,36.964a2.162,2.162,0,0,0-2.7-.1L.972,39.2V32.277a.98.98,0,0,1,.9-1.044H15.2a1.117,1.117,0,0,1,1.069,1.044v4.08Zm2.745-6.227v.01L17.876,40a.826.826,0,0,1-.316.656c-.1.1-.316.146-.316.194V32.277a2.089,2.089,0,0,0-2.04-2.016H3.6l.219-1.894a1.117,1.117,0,0,1,.364-.631,1.117,1.117,0,0,1,.729-.194l13.236,1.53A.971.971,0,0,1,19.018,30.13Z" transform="translate(0 -26.576)" fill="#707070"/></g></g></g></g></g></svg>