<svg xmlns="http://www.w3.org/2000/svg" width="48" height="24" viewBox="0 0 48 24"><g transform="translate(-3959 -1397)"><rect width="48" height="24" transform="translate(3959 1397)" fill="none"/><g transform="translate(3958.984 1402.984)"><g transform="translate(42.314 0.944)"><path d="M-1.477,0,1.235,5.376l-5.7,5.378Z" transform="translate(4.467)" fill="#008c44"/></g><g transform="translate(40.436 0.944)"><path d="M-1.478,0,1.231,5.376l-5.7,5.378Z" transform="translate(4.467)" fill="#f47920"/></g><g transform="translate(0.016 0.016)"><path d="M0-4.815l2.7-9.743H7.028a4.029,4.029,0,0,1,2.713.655,2.08,2.08,0,0,1,.269,2.154,3.708,3.708,0,0,1-.766,1.479,3.557,3.557,0,0,1-1.357.931,1.188,1.188,0,0,1,.911.68,2.536,2.536,0,0,1-.044,1.484L8.425-5.814v.037c-.095.381-.067.585.088.6l-.1.361H5.487c.01-.229.028-.434.047-.606a2.886,2.886,0,0,1,.073-.406L5.881-6.8A1.434,1.434,0,0,0,5.9-7.863c-.129-.209-.417-.311-.871-.311H3.8L2.861-4.815ZM4.407-10.37H5.723a1.927,1.927,0,0,0,1.012-.2,1.166,1.166,0,0,0,.459-.705c.1-.341.072-.579-.065-.715a1.5,1.5,0,0,0-.975-.2H4.913Z" transform="translate(0 14.558)" fill="#1b3281"/></g><g transform="translate(9.419 2.559)"><path d="M-4.258,0-6.252,7.189H-8.674l.3-1.053a4.73,4.73,0,0,1-1.3.94,3.184,3.184,0,0,1-1.381.309,2.2,2.2,0,0,1-1.022-.217,1.4,1.4,0,0,1-.629-.651,1.856,1.856,0,0,1-.158-.936,10.436,10.436,0,0,1,.392-1.85L-11.444,0h2.65L-9.825,3.713a2.2,2.2,0,0,0-.113,1.134c.076.21.281.318.612.318A1.113,1.113,0,0,0-8.48,4.8,2.56,2.56,0,0,0-7.927,3.7L-6.9,0Z" transform="translate(12.874)" fill="#1b3281"/></g><g transform="translate(17.057 0.016)"><path d="M0-4.815l2.7-9.743H6.418a8.851,8.851,0,0,1,1.907.155,2.362,2.362,0,0,1,1.069.5,1.986,1.986,0,0,1,.615,1.135,3.687,3.687,0,0,1-.139,1.6A4.605,4.605,0,0,1,8.28-8.663,4.523,4.523,0,0,1,5.464-7.8H3.725L2.9-4.815Zm4.383-5.362h.934A2.717,2.717,0,0,0,6.6-10.4a1.252,1.252,0,0,0,.516-.774c.1-.374.077-.635-.08-.781a1.921,1.921,0,0,0-1.16-.219H4.939Z" transform="translate(0 14.558)" fill="#1b3281"/></g><g transform="translate(25.528 2.306)"><path d="M-2.225-3.678l.027-.683a4.826,4.826,0,0,1-1.3.713,4.111,4.111,0,0,1-1.389.232,1.87,1.87,0,0,1-1.577-.6A1.881,1.881,0,0,1-6.6-5.7,2.65,2.65,0,0,1-5.559-7.28a6.056,6.056,0,0,1,2.5-.74c.148-.024.346-.043.595-.073.863-.1,1.347-.33,1.452-.7a.386.386,0,0,0-.106-.45,1.169,1.169,0,0,0-.685-.144,1.206,1.206,0,0,0-.679.176,1.063,1.063,0,0,0-.409.542H-5.478A2.98,2.98,0,0,1-4.052-10.5a5.564,5.564,0,0,1,2.818-.616,5.944,5.944,0,0,1,1.471.162,2.233,2.233,0,0,1,.957.442,1.3,1.3,0,0,1,.446.78,3.067,3.067,0,0,1-.156,1.242L.373-4.487a.8.8,0,0,0-.023.355A.427.427,0,0,0,.5-3.881l-.06.2Zm.644-3.21a9.642,9.642,0,0,1-1.1.34c-.714.191-1.115.447-1.2.763a.487.487,0,0,0,.064.479.646.646,0,0,0,.508.17,1.6,1.6,0,0,0,1.056-.331,2.085,2.085,0,0,0,.6-1.053c.024-.1.045-.176.059-.231Z" transform="translate(6.726 11.121)" fill="#1b3281"/></g><g transform="translate(32.684 2.549)"><path d="M0-4.953.588-7.081h.758a1.093,1.093,0,0,0,.594-.141.767.767,0,0,0,.3-.469A1.683,1.683,0,0,0,2.294-8a3.411,3.411,0,0,0,0-.394l-.4-6.583H4.572l-.042,4.362,2.342-4.362H9.367L5.227-7.821q-.7,1.2-1.028,1.649a3.435,3.435,0,0,1-.614.682,2.3,2.3,0,0,1-.849.457,5.377,5.377,0,0,1-1.41.136c-.182,0-.391,0-.617-.015S.245-4.934,0-4.953" transform="translate(0 14.976)" fill="#1b3281"/></g></g></g></svg>