<svg xmlns="http://www.w3.org/2000/svg" width="54" height="54" viewBox="0 0 54 54"><g transform="translate(-286 -276)"><circle cx="27" cy="27" r="27" transform="translate(286 276)" fill="#f29015"/><g transform="translate(275.904 798.95)"><path d="M43.812-511.861a5.185,5.185,0,0,0-3.737,2.836,4.05,4.05,0,0,0-.518,2.251,10.1,10.1,0,0,0,.043,1.085l.049.247-4.779,2.725c-2.627,1.5-4.816,2.725-4.859,2.725a.387.387,0,0,1-.2-.136,5.772,5.772,0,0,0-1.455-.9,4.857,4.857,0,0,0-2.232-.364,4.3,4.3,0,0,0-2.1.53,5.114,5.114,0,0,0-2.306,2.232,5.26,5.26,0,0,0,3.243,7.529,7.025,7.025,0,0,0,2.732.031,6.41,6.41,0,0,0,1.9-.962,2.335,2.335,0,0,1,.444-.314c.037,0,2.208,1.221,4.828,2.719,4.187,2.386,4.76,2.732,4.742,2.849-.006.074-.031.487-.049.919a3.8,3.8,0,0,0,.092,1.369,5.3,5.3,0,0,0,3.675,3.9,3.86,3.86,0,0,0,1.449.166,3.86,3.86,0,0,0,1.449-.166,5.293,5.293,0,0,0,3.237-2.695,4.645,4.645,0,0,0,.536-2.127,4.983,4.983,0,0,0-1.634-4.045,4.971,4.971,0,0,0-3.62-1.424,5.04,5.04,0,0,0-3.515,1.381l-.308.3-.894-.512c-.493-.277-2.639-1.5-4.766-2.713a27.288,27.288,0,0,1-3.842-2.312,5.715,5.715,0,0,0,0-2.849c-.025-.08.845-.6,4.057-2.436,2.251-1.276,4.4-2.5,4.766-2.713l.678-.388.308.3a5.3,5.3,0,0,0,2.282,1.246,4.438,4.438,0,0,0,1.264.129,4.638,4.638,0,0,0,2.386-.567,5.27,5.27,0,0,0,2.762-3.632,6.222,6.222,0,0,0-.086-2.46A5.3,5.3,0,0,0,43.812-511.861Z" transform="translate(0)" fill="#fff"/></g></g></svg>