<svg xmlns="http://www.w3.org/2000/svg" width="54" height="54" viewBox="0 0 54 54"><g transform="translate(-701 -276)"><circle cx="27" cy="27" r="27" transform="translate(701 276)" fill="#3390ec"/><g transform="translate(711.867 759.931)"><path d="M28.349-468.794c-2.012.74-26.834,10.272-27.2,10.45-1.213.574-1.355,1.331-.343,1.846.1.053,1.775.586,3.734,1.2L8.1-454.2l8.071-5.053c4.444-2.775,8.166-5.083,8.272-5.118.278-.095.515-.089.621.024.077.077.083.112.018.225-.036.077-2.988,2.757-6.55,5.953s-6.491,5.84-6.5,5.87-.13,1.627-.266,3.55l-.249,3.491.272-.035a1.652,1.652,0,0,0,.515-.172c.142-.071,1.065-.911,2.065-1.864s1.846-1.752,1.888-1.763,1.627,1.106,3.527,2.5,3.592,2.592,3.775,2.675a1.6,1.6,0,0,0,1.361.059,1.774,1.774,0,0,0,.746-1.012c.047-.166,1.136-5.177,2.408-11.136,2.124-9.917,2.319-10.876,2.319-11.39a1.5,1.5,0,0,0-.148-.858,1.313,1.313,0,0,0-.4-.473A1.68,1.68,0,0,0,28.349-468.794Z" transform="translate(0)" fill="#fff"/></g></g></svg>