<svg xmlns="http://www.w3.org/2000/svg" width="28" height="20" viewBox="0 0 28 20"><g transform="translate(-22214 593)"><rect width="28" height="20" transform="translate(22214 -593)" fill="none"/><g transform="translate(-6 -1)"><g transform="translate(21981 -1125)"><g transform="translate(243 533)" fill="#fff" stroke="#707070" stroke-width="1"><rect width="20" height="20" stroke="none"/><rect x="0.5" y="0.5" width="19" height="19" fill="none"/></g></g><line x2="15" transform="translate(22226.5 -588.5)" fill="none" stroke="#707070" stroke-width="1"/><line x2="15" transform="translate(22226.5 -585.5)" fill="none" stroke="#707070" stroke-width="1"/><line x2="15" transform="translate(22226.5 -582.5)" fill="none" stroke="#707070" stroke-width="1"/><line x2="6" transform="translate(22235.5 -579.5)" fill="none" stroke="#707070" stroke-width="1"/><g transform="translate(21982.922 -1113.955)"><g transform="translate(243.078 532.955)" fill="#fff" stroke="#707070" stroke-width="1"><rect width="8" height="7" stroke="none"/><rect x="0.5" y="0.5" width="7" height="6" fill="none"/></g></g><path d="M-1668.584,2.777l-.216.232.216-.232L-1670,1.289l1.417,1.487L-1666,0l-2.584,2.777.228.239Z" transform="translate(23898 -579)" fill="none" stroke="#707070" stroke-width="1"/><line x2="6" transform="translate(22235.5 -577.5)" fill="none" stroke="#707070" stroke-width="1"/><line x2="6" transform="translate(22235.5 -575.5)" fill="none" stroke="#707070" stroke-width="1"/></g></g></svg>