<svg xmlns="http://www.w3.org/2000/svg" width="54" height="54" viewBox="0 0 54 54"><g transform="translate(-358 -267)"><circle cx="27" cy="27" r="27" transform="translate(358 267)" fill="#29a9e1"/><path d="M74.22,125.229A19.92,19.92,0,0,0,85.012,128.4c13.094,0,20.487-11.062,20.046-20.981a14.146,14.146,0,0,0,3.516-3.651,13.993,13.993,0,0,1-4.047,1.115,7.078,7.078,0,0,0,3.094-3.9,13.985,13.985,0,0,1-4.5,1.709,7.06,7.06,0,0,0-12.015,6.421,20.028,20.028,0,0,1-14.533-7.375,7.069,7.069,0,0,0,2.185,9.416,6.943,6.943,0,0,1-3.193-.9,7.06,7.06,0,0,0,5.657,7.006,7.006,7.006,0,0,1-3.184.117,7.051,7.051,0,0,0,6.583,4.9,14.2,14.2,0,0,1-10.405,2.95Z" transform="translate(293.779 179.521)" fill="#fff"/></g></svg>