<svg xmlns="http://www.w3.org/2000/svg" width="48" height="24" viewBox="0 0 48 24"><g transform="translate(-3513 -1381)"><rect width="48" height="24" transform="translate(3513 1381)" fill="none"/><g transform="translate(3513 1210.4)"><path d="M184.8,194.015l2.445-13.615h3.82L188.7,194.015Z" transform="translate(-167.342 -4.342)" fill="#3c58bf"/><path d="M184.8,194.015l3.132-13.615h3.132L188.7,194.015Z" transform="translate(-167.342 -4.342)" fill="#293688"/><path d="M259.689,176.205a9.772,9.772,0,0,0-3.514-.605c-3.82,0-6.57,1.892-6.57,4.616,0,2.043,1.91,3.1,3.438,3.784s1.986,1.135,1.986,1.741c0,.908-1.222,1.362-2.292,1.362a8.371,8.371,0,0,1-3.667-.757l-.535-.227-.535,3.1a12.492,12.492,0,0,0,4.355.757c4.049,0,6.723-1.892,6.723-4.768,0-1.589-.993-2.8-3.285-3.784-1.375-.681-2.216-1.059-2.216-1.741,0-.605.688-1.211,2.216-1.211a7.066,7.066,0,0,1,2.9.53l.382.151.611-2.951Z" transform="translate(-224.61 0)" fill="#3c58bf"/><path d="M259.689,176.205a9.772,9.772,0,0,0-3.514-.605c-3.82,0-5.883,1.892-5.883,4.616a3.96,3.96,0,0,0,2.75,3.784c1.528.681,1.986,1.135,1.986,1.741,0,.908-1.222,1.362-2.292,1.362a8.371,8.371,0,0,1-3.667-.757l-.535-.227-.535,3.1a12.492,12.492,0,0,0,4.355.757c4.049,0,6.723-1.892,6.723-4.768,0-1.589-.993-2.8-3.285-3.784-1.375-.681-2.216-1.059-2.216-1.741,0-.605.688-1.211,2.216-1.211a7.066,7.066,0,0,1,2.9.53l.382.151.611-2.951Z" transform="translate(-224.61 0)" fill="#293688"/><path d="M366.116,180.4c-.917,0-1.6.076-1.986.983l-5.73,12.632h4.126l.764-2.269h4.89l.458,2.269H372.3L369.1,180.4Zm-1.757,9.077c.229-.681,1.528-4.009,1.528-4.009s.306-.832.535-1.361l.229,1.286s.764,3.4.917,4.16h-3.209Z" transform="translate(-324.625 -4.342)" fill="#3c58bf"/><path d="M367.033,180.4c-.917,0-1.6.076-1.986.983L358.4,194.015h4.126l.764-2.269h4.89l.458,2.269H372.3L369.1,180.4Zm-2.674,9.077c.306-.756,1.528-4.009,1.528-4.009s.306-.832.535-1.361l.229,1.286s.764,3.4.917,4.16h-3.209Z" transform="translate(-324.625 -4.342)" fill="#293688"/><path d="M56.93,190.655l-.382-1.967a11,11,0,0,0-5.348-5.975l3.438,12.1h4.126L64.952,181.2H60.826Z" transform="translate(-46.31 -5.065)" fill="#3c58bf"/><path d="M56.93,190.655l-.382-1.967a11,11,0,0,0-5.348-5.975l3.438,12.1h4.126L64.952,181.2H61.59Z" transform="translate(-46.31 -5.065)" fill="#293688"/><path d="M0,180.4l.688.153c4.89,1.146,8.251,4.049,9.55,7.487l-1.375-6.494c-.229-.917-.917-1.146-1.757-1.146Z" transform="translate(0 -4.342)" fill="#ffbc00"/><path d="M0,180.4H0c4.89,1.146,8.939,4.126,10.238,7.564l-1.3-5.424a1.865,1.865,0,0,0-1.834-1.452Z" transform="translate(0 -4.342)" fill="#f7981d"/><path d="M0,180.4H0c4.89,1.146,8.939,4.126,10.238,7.564l-.917-2.98a2.694,2.694,0,0,0-1.6-2.216Z" transform="translate(0 -4.342)" fill="#ed7c00"/><g transform="translate(4.966 177.586)"><path d="M61.474,203.954l-2.6-2.568-1.222,2.871-.306-1.889A10.991,10.991,0,0,0,52,196.4l3.438,12.087h4.126Z" transform="translate(-52 -196.4)" fill="#051244"/><path d="M188.7,292.562l-3.285-3.362-.611,3.362Z" transform="translate(-172.264 -280.475)" fill="#051244"/><path d="M254.647,274.8h0c.306.306.458.535.382.84,0,.917-1.222,1.375-2.292,1.375a8.3,8.3,0,0,1-3.667-.764l-.535-.229L248,279.155a12.389,12.389,0,0,0,4.355.764,7.564,7.564,0,0,0,5.577-1.91Z" transform="translate(-229.537 -267.45)" fill="#051244"/><path d="M364,229.608h3.591l.764-2.292h4.89l.458,2.292h3.667l-1.3-5.577-4.584-4.431.229,1.222s.764,3.438.917,4.2h-3.209c.306-.764,1.528-4.049,1.528-4.049s.306-.84.535-1.375" transform="translate(-334.656 -217.521)" fill="#051244"/></g></g></g></svg>