<svg xmlns="http://www.w3.org/2000/svg" width="22.138" height="22.137" viewBox="0 0 22.138 22.137"><g transform="translate(0.136 0)"><path d="M18.6,3.126a11.137,11.137,0,0,0-15.474,0A11.136,11.136,0,1,0,18.874,18.875,11.137,11.137,0,0,0,18.6,3.126ZM18.35,18.35h0A10.394,10.394,0,1,1,21.394,11a10.394,10.394,0,0,1-3.044,7.35Z" transform="translate(0.001)"/><g transform="translate(4.997 5.399)"><g transform="translate(0.003 0)"><g transform="translate(0 0)"><path d="M11.457,6.05V4.364a1.089,1.089,0,0,0-1-1.082L8.887.546a1.079,1.079,0,0,0-1.481-.4L2.037,3.273H1.094A1.092,1.092,0,0,0,0,4.364v6.545A1.092,1.092,0,0,0,1.094,12h9.273a1.092,1.092,0,0,0,1.091-1.091V9.223A.817.817,0,0,0,12,8.455V6.818A.817.817,0,0,0,11.457,6.05ZM9.82,3.273H7.442L9.225,2.235ZM8.954,1.762l-2.6,1.511H5.282l3.4-1.982ZM7.681.618A.527.527,0,0,1,8.086.564a.535.535,0,0,1,.328.253h0L4.2,3.273H3.121Zm3.231,10.291a.546.546,0,0,1-.545.545H1.094a.546.546,0,0,1-.545-.545V4.364a.546.546,0,0,1,.545-.545h9.273a.546.546,0,0,1,.545.545V6H9.276a1.636,1.636,0,1,0,0,3.273h1.636v1.636Zm.545-2.455a.273.273,0,0,1-.273.273H9.276a1.091,1.091,0,1,1,0-2.182h1.909a.273.273,0,0,1,.273.273Z" transform="translate(-0.003 0)"/><path d="M341.882,277.341a.545.545,0,1,0,.545.545A.546.546,0,0,0,341.882,277.341Z" transform="translate(-332.61 -270.25)"/></g></g></g></g></svg>