<svg id="Layer_1" xmlns="http://www.w3.org/2000/svg" width="300" height="600" viewBox="0 0 300 600"><style>.st0,.st1{fill:none;stroke:#77b644;stroke-miterlimit:10}.st1{stroke:#ff5959}.st2{fill:#e73636}.st3{fill:#444}.st4,.st5{fill:none;stroke:#444;stroke-miterlimit:10}.st5{stroke-width:2}.st6{fill:#777}.st7{fill:none;stroke:#4898e5;stroke-width:.9683;stroke-miterlimit:10}.st8{fill:#4898e5}.st9{fill:#df9292}.st10,.st11{fill:none;stroke-miterlimit:10}.st10{stroke-width:2;stroke:#fff}.st11{stroke:#444;stroke-linecap:round}.st12,.st13,.st14,.st15{fill:none;stroke:#969696;stroke-miterlimit:10}.st13,.st14,.st15{stroke:#f88988}.st14,.st15{stroke:#777}.st15{stroke:#fff}.st16{fill:#fff}</style><path class="st0" d="M11.5 7v13M18 13.5H5"/><path class="st1" d="M18 38.5H5"/><path class="st2" d="M48.5 20.3c2.8-3.3 3.4-8.1 1.1-12C47.7 5 44.2 3 40.5 3c-1.8 0-3.6.5-5.2 1.4-1.1.6-2 1.5-2.8 2.4-2.7 3.3-3.2 8-1 11.9 1.9 3.3 5.4 5.3 9.1 5.3 1.8 0 3.6-.5 5.2-1.4 1-.6 1.9-1.4 2.7-2.3zM36.3 6.1C37.6 5.4 39 5 40.5 5c3 0 5.9 1.6 7.4 4.3 1.7 2.9 1.4 6.4-.3 9L34.7 7.4c.5-.5 1-.9 1.6-1.3zm8.5 14.8c-1.3.7-2.7 1.1-4.2 1.1-3 0-5.9-1.6-7.4-4.3-1.6-2.8-1.4-6.2.2-8.8l12.9 10.9c-.5.4-1 .8-1.5 1.1z"/><path class="st3" d="M65 12l10 10 10-10H65z"/><path class="st4" d="M139 15.5l5-11h8l-6 8h6l-13.9 14.6 7-11.6H139z"/><path class="st5" d="M155 14v6M158 17h-6"/><path class="st4" d="M169.5 12.5h12v9h-12zM171.5 12.5v-2c0-1.7 1.3-3 3-3h2c1.7 0 3 1.3 3 3v2M188.5 12.5h12v9h-12zM197.5 12.5v-2c0-1.7 1.3-3 3-3h2c1.7 0 3 1.3 3 3V12"/><circle class="st6" cx="217" cy="14" r="2"/><circle class="st6" cx="223" cy="14" r="2"/><circle class="st6" cx="229" cy="14" r="2"/><path transform="rotate(-45.001 247.993 11.7)" class="st7" d="M244.1 9.6h7.8v4.2h-7.8z"/><path class="st8" d="M246 18h-4v-4"/><circle class="st9" cx="268" cy="13" r="6"/><path class="st10" d="M265 13h6"/><path class="st4" d="M267 59.5s-.3-4.8 6-9 6-9 6-9h-12s-.3 4.8 6 9 6 9 6 9h-12z"/><path class="st3" d="M275.6 43c.2 0 .4.2.3.4-.2 1-1 3.6-2.9 3.6-1.6 0-2.4-1.6-2.7-2.8-.1-.3.2-.6.5-.4.3.2.7.3 1.2.2.4 0 .8-.5.9-.8.1-.1.2-.2.3-.2h2.4z"/><path class="st5" d="M282 47v6M285 50h-6"/><path class="st3" d="M116.6 11.9l-1.6-1.6c-.6-.6-1.5-.6-2.1 0l-9.8 9.7-.8 4.6 4.5-1 9.8-9.7c.3-.3.4-.7.4-1.1s-.1-.6-.4-.9zm-.7 1.4l-9.1 9-2.3-2.3 9.1-9c.2-.2.5-.2.7 0l1.6 1.6c.2.2.2.5 0 .7z"/><path class="st4" d="M112 12l3 3"/><circle class="st4" cx="44.9" cy="46" r="3.5"/><path class="st11" d="M47.5 48.5L50 51"/><path class="st4" d="M40 49.5h-3.5v-13H40m4 0h3.5V41"/><path class="st4" d="M39.5 35.5h5v2h-5z"/><path class="st12" d="M31.5 64.5h4v4h-4zM31.5 72.5h4v4h-4zM39 64.5h9M39 66.5h9M39 68.5h7M39 72.5h9M39 74.5h9M39 76.5h7M5 64.5h14M5 67.5h14M5 70.5h14M5 73.5h14M5 76.5h14"/><path class="st13" d="M31.5 87.5h4v4h-4zM31.5 95.5h4v4h-4zM39 87.5h9M39 89.5h9M39 91.5h7M39 95.5h9M39 97.5h9M39 99.5h7M5 87.5h14M5 90.5h14M5 93.5h14M5 96.5h14M5 99.5h14"/><path class="st14" d="M71.6 40.4l-8.2 8.2M71.6 48.6l-8.2-8.2"/><path class="st15" d="M88.6 40.4l-8.2 8.2M88.6 48.6l-8.2-8.2"/><path class="st16" d="M239.5 33.7V32h-1v20h1v-8.6c7.3-4.8 8.7 3.1 15 0v-9.7c-6.3 3.1-7.7-4.8-15 0zm14 9c-4.5 1.7-7-4.8-13.9-.7v-6.9c6.3-4.8 7.3 1.4 13.9.3v7.3zM209.4 46.5c-.1 0-.3 0-.4-.1-.3-.2-.5-.5-.5-.8v-5.8l-6-5.8c-.2-.2-.3-.4-.3-.6v-1c0-.5.4-.9.9-.9h14.7c.5 0 .9.4.9.9v1c0 .2-.1.5-.3.6l-6 5.8v4.5c0 .3-.1.5-.3.7l-2.2 1.3c-.1.1-.3.2-.5.2zm-6.2-13.1l6 5.8c.2.2.3.4.3.6v5.7l2-1.2v-4.5c0-.2.1-.5.3-.6l6-5.8v-.9h-14.6v.9z"/><path class="st15" d="M172.7 40.9l4.7-10.4h7.6l-5.7 7.6h5.7l-13.2 13.8 6.6-11h-5.7z"/><path class="st10" d="M188 40v6m3-3h-6"/><path class="st15" d="M99 53.5s-.3-4.8 6-9 6-9 6-9H99s-.3 4.8 6 9 6 9 6 9H99z"/><path class="st16" d="M107.6 37c.2 0 .4.2.3.4-.2 1-1 3.6-2.9 3.6-1.6 0-2.4-1.6-2.7-2.8-.1-.3.2-.6.5-.4.3.2.7.3 1.2.2.4 0 .8-.5.9-.8.1-.1.2-.2.3-.2h2.4z"/><path class="st10" d="M114 41v6M117 44h-6"/></svg>