<svg xmlns="http://www.w3.org/2000/svg" width="22.138" height="22.137" viewBox="0 0 22.138 22.137"><g transform="translate(0.136 0)"><path d="M18.6,3.126a11.137,11.137,0,0,0-15.474,0A11.136,11.136,0,1,0,18.874,18.875,11.137,11.137,0,0,0,18.6,3.126ZM18.35,18.35h0A10.394,10.394,0,1,1,21.394,11a10.394,10.394,0,0,1-3.044,7.35Z" transform="translate(0.001)"/><path d="M10.452,1.744A5.948,5.948,0,0,0,1.093,8.919L.25,12,3.4,11.173a5.94,5.94,0,0,0,2.842.724h0A5.949,5.949,0,0,0,10.452,1.744ZM6.246,10.893h0A4.936,4.936,0,0,1,3.729,10.2l-.18-.107-1.871.491.5-1.824-.118-.187a4.942,4.942,0,1,1,4.187,2.316Zm2.711-3.7c-.149-.074-.879-.434-1.015-.483s-.235-.074-.334.074-.384.483-.471.582-.173.112-.322.037A4.058,4.058,0,0,1,5.62,6.664a4.482,4.482,0,0,1-.827-1.029c-.087-.149,0-.221.065-.3a4.2,4.2,0,0,0,.371-.508.273.273,0,0,0-.012-.26c-.037-.074-.334-.806-.458-1.1s-.243-.25-.334-.255S4.24,3.2,4.141,3.2a.546.546,0,0,0-.4.186,1.666,1.666,0,0,0-.52,1.239,2.89,2.89,0,0,0,.607,1.537A6.623,6.623,0,0,0,6.369,8.406a8.5,8.5,0,0,0,.847.313,2.037,2.037,0,0,0,.936.059,1.531,1.531,0,0,0,1-.706,1.241,1.241,0,0,0,.087-.707c-.037-.062-.136-.1-.285-.174Zm0,0" transform="translate(4.75 5.399)" fill-rule="evenodd"/></g></svg>