<svg xmlns="http://www.w3.org/2000/svg" width="54" height="54" viewBox="0 0 54 54"><g transform="translate(-444 -268)"><circle cx="27" cy="27" r="27" transform="translate(444 268)" fill="#40c351"/><g transform="translate(275.939 -21.596)"><path d="M212.309,315.827a16.828,16.828,0,0,0-33.622-.3v.732a16.628,16.628,0,0,0,2.4,8.623l-3.031,8.954,9.32-2.962a16.837,16.837,0,0,0,24.946-14.616C212.318,316.106,212.318,315.966,212.309,315.827ZM195.5,330.286a14.068,14.068,0,0,1-7.778-2.326l-5.435,1.742,1.742-5.226a13.937,13.937,0,0,1-2.691-8.231,8.937,8.937,0,0,1,.07-1.368,14.146,14.146,0,0,1,28.169.27c0,.366.052.723.052,1.1A14.1,14.1,0,0,1,195.5,330.286Z" transform="translate(0 0)" fill="#fff" fill-rule="evenodd"/><path d="M204.583,320.956c-.418-.209-2.439-1.2-2.822-1.333s-.653-.209-.923.2-1.071,1.333-1.307,1.6-.479.3-.871.1a11.324,11.324,0,0,1-3.319-2.038,12.073,12.073,0,0,1-2.291-2.822.6.6,0,0,1,.183-.871c.183-.192.409-.479.618-.714l.148-.2a4.128,4.128,0,0,0,.261-.488.732.732,0,0,0,0-.714c-.1-.209-.923-2.221-1.272-3.04s-.688-.679-.932-.679-.505-.044-.784-.044a1.542,1.542,0,0,0-1.106.514,4.6,4.6,0,0,0-1.437,3.423,5.4,5.4,0,0,0,.209,1.394,9.268,9.268,0,0,0,1.472,2.831c.209.27,2.857,4.538,7.047,6.184s4.2,1.089,4.947,1.019a4.155,4.155,0,0,0,2.787-1.951,3.484,3.484,0,0,0,.244-1.942A6.048,6.048,0,0,0,204.583,320.956Z" transform="translate(-1.376 -1.331)" fill="#fff" fill-rule="evenodd"/></g></g></svg>