<svg xmlns="http://www.w3.org/2000/svg" width="28" height="28" viewBox="0 0 28 28"><path d="M14,0A14,14,0,0,0,2.12,21.41c-.553,1.937-1.552,5.6-1.563,5.64a.539.539,0,0,0,.678.656L6.785,26A14,14,0,1,0,14,0Zm0,26.923a12.891,12.891,0,0,1-6.855-1.966.538.538,0,0,0-.286-.082A.548.548,0,0,0,6.7,24.9L1.855,26.391c.356-1.3,1-3.623,1.367-4.916a.54.54,0,0,0-.066-.442A12.924,12.924,0,1,1,14,26.923Z" fill="#707070"/><path d="M27.3,21.682c-.985-.546-1.824-1.094-2.436-1.493-.468-.3-.805-.525-1.053-.649a1.214,1.214,0,0,0-1.416.1.533.533,0,0,0-.067.081,7.494,7.494,0,0,1-1.932,2.162,12.854,12.854,0,0,1-3.281-2.121c-1.508-1.255-2.457-2.456-2.6-3.274.968-.994,1.316-1.619,1.316-2.331a15.065,15.065,0,0,0-2.024-4.106c-.311-.31-1.012-.359-2.083-.145a.539.539,0,0,0-.273.145c-.13.129-3.164,3.218-1.722,6.961,1.583,4.108,5.646,8.883,10.826,9.658a11.245,11.245,0,0,0,1.657.132c3.047,0,4.846-1.531,5.352-4.567A.53.53,0,0,0,27.3,21.682Zm-6.584,3.934c-5.478-.82-8.928-6.237-9.988-8.987C9.672,13.9,11.611,11.47,12.1,10.92a4.032,4.032,0,0,1,.987-.068,19.119,19.119,0,0,1,1.677,3.305c0,.28-.091.669-1.178,1.754a.53.53,0,0,0-.156.377c0,2.789,5.894,6.659,6.938,6.659.908,0,2.092-1.523,2.766-2.516a.507.507,0,0,1,.2.062c.192.1.525.313.946.588.556.363,1.295.844,2.167,1.344C26.046,24.327,24.939,26.25,20.712,25.617Z" transform="translate(-4.225 -4.422)" fill="#707070"/></svg>